<?xml version="1.0" encoding="UTF-8"?>
<svg xmlns="http://www.w3.org/2000/svg" xmlns:xlink="http://www.w3.org/1999/xlink" width="140" height="100" viewBox="0 0 8640 2038.11" version="1.1">
<defs>
<clipPath id="clip1">
  <path d="M 5622 361 L 7758 361 L 7758 2038.109375 L 5622 2038.109375 Z M 5622 361 "/>
</clipPath>
</defs>
<g id="surface1">
<path style=" stroke:none;fill-rule:nonzero;fill:rgb(0%,54.510498%,28.627014%);fill-opacity:1;" d="M 868.632813 642.578125 C 925.589844 637.835938 974.230469 622.410156 1014.589844 596.304688 C 1054.921875 570.199219 1085.171875 537.300781 1105.363281 497.519531 C 1125.53125 457.785156 1135.636719 415.953125 1135.636719 372.027344 C 1135.636719 328.148438 1125.230469 286.917969 1104.492188 248.332031 C 1083.699219 209.746094 1053.449219 178.898438 1013.714844 155.738281 C 973.933594 132.625 926.1875 121.042969 870.429688 121.042969 L 822.359375 121.042969 L 822.359375 642.578125 Z M 320.394531 1515.675781 C 224.277344 1480.636719 146.855469 1430.21875 88.128906 1364.378906 C 29.375 1298.488281 0 1221.066406 0 1132.066406 C 0 1083.445313 10.382813 1038.621094 31.148438 997.6875 C 51.914063 956.753906 80.390625 923.808594 116.605469 898.902344 C 152.769531 873.992188 192.832031 861.515625 236.757813 861.515625 C 279.460938 861.515625 318.023438 874.59375 352.4375 900.699219 C 386.855469 926.804688 411.191406 965.390625 425.417969 1016.355469 C 357.78125 1010.464844 307.066406 1027.039063 273.246094 1066.222656 C 239.425781 1105.359375 222.503906 1154.628906 222.503906 1213.976563 C 222.503906 1278.023438 239.703125 1335.277344 274.121094 1385.742188 C 308.539063 1436.160156 355.109375 1475.292969 413.863281 1503.199219 C 472.589844 1531.050781 536.359375 1545.027344 605.195313 1545.027344 C 698.9375 1545.027344 787.917969 1523.363281 872.203125 1480.085938 C 956.4375 1436.707031 1024.074219 1374.761719 1075.113281 1294.046875 C 1126.128906 1213.378906 1151.664063 1119.636719 1151.664063 1012.8125 C 1151.664063 917.921875 1125.53125 839 1073.34375 776.105469 C 1021.105469 713.210938 952.292969 679.367188 866.859375 674.625 L 822.359375 674.625 L 822.359375 1342.117188 L 455.691406 1342.117188 C 475.835938 1299.386719 488.613281 1263.496094 493.953125 1234.445313 C 499.296875 1205.34375 501.964844 1167.65625 501.964844 1121.382813 L 501.964844 313.273438 C 501.964844 267 499.296875 229.363281 493.953125 200.261719 C 488.613281 171.210938 475.835938 135.269531 455.691406 92.589844 L 1000.363281 92.589844 C 1081.03125 92.589844 1150.761719 106.816406 1209.515625 135.269531 C 1268.242188 163.773438 1313.019531 201.460938 1343.894531 248.332031 C 1374.742188 295.203125 1390.167969 346.519531 1390.167969 402.277344 C 1390.167969 452.144531 1377.113281 500.164063 1351.007813 546.488281 C 1324.898438 592.761719 1286.9375 632.496094 1237.09375 665.738281 C 1304.734375 693.042969 1358.417969 736.921875 1398.175781 797.421875 C 1437.9375 857.96875 1458.402344 926.207031 1459.601563 1002.128906 C 1459.601563 1099.46875 1426.929688 1191.417969 1361.6875 1278.023438 C 1296.421875 1364.628906 1200.878906 1434.664063 1075.113281 1488.074219 C 949.324219 1541.484375 799.796875 1568.191406 626.558594 1568.191406 C 518.5625 1568.191406 416.535156 1550.667969 320.394531 1515.675781 "/>
<path style=" stroke:none;fill-rule:nonzero;fill:rgb(0%,54.510498%,28.627014%);fill-opacity:1;" d="M 2109.273438 712.011719 C 2091.476563 728.632813 2065.945313 748.203125 2032.75 770.765625 C 1987.625 803.960938 1950.5625 833.910156 1921.484375 860.617188 C 1892.40625 887.320313 1867.472656 918.769531 1846.734375 954.957031 C 1825.941406 991.199219 1815.585938 1031.832031 1815.585938 1076.90625 C 1815.585938 1201.5 1892.105469 1263.796875 2045.203125 1263.796875 C 2060.601563 1263.796875 2081.367188 1262.648438 2107.5 1260.25 Z M 2448.359375 1861.003906 C 2348.074219 1815.28125 2267.683594 1746.195313 2207.183594 1653.597656 C 2146.660156 1561.050781 2115.210938 1446.542969 2112.839844 1310.070313 C 2070.113281 1314.8125 2005.417969 1326.691406 1918.8125 1345.660156 C 1852.347656 1361.085938 1807.847656 1368.820313 1785.308594 1368.820313 C 1734.292969 1368.820313 1686.523438 1358.738281 1642.023438 1338.570313 C 1597.523438 1318.40625 1561.632813 1289.304688 1534.351563 1251.316406 C 1507.023438 1213.378906 1493.394531 1168.855469 1493.394531 1117.839844 C 1493.394531 1059.734375 1509.117188 1011.914063 1540.566406 974.527344 C 1571.988281 937.1875 1610.273438 907.539063 1655.375 885.574219 C 1700.476563 863.609375 1760.402344 840.148438 1835.152344 815.242188 C 1908.730469 789.132813 1967.457031 765.421875 2011.382813 744.058594 C 2055.261719 722.695313 2092.375 694.191406 2122.625 658.601563 C 2152.875 623.011719 2168.023438 578.484375 2168.023438 525.121094 C 2168.023438 479.996094 2154.371094 445.304688 2127.066406 420.996094 C 2099.761719 396.6875 2066.566406 384.507813 2027.40625 384.507813 C 1985.851563 384.507813 1949.960938 397.535156 1919.710938 423.640625 C 1889.4375 449.746094 1874.3125 485.9375 1874.3125 532.210938 C 1874.3125 559.515625 1880.824219 584.722656 1893.902344 607.886719 C 1906.933594 630.996094 1926.523438 649.714844 1952.632813 663.941406 C 1938.40625 686.503906 1918.214844 703.726563 1892.105469 715.554688 C 1866 727.4375 1838.097656 733.375 1808.472656 733.375 C 1762.171875 733.375 1722.714844 721.496094 1690.09375 697.785156 C 1657.445313 674.027344 1641.148438 639.632813 1641.148438 594.507813 C 1641.148438 519.78125 1675.542969 461.925781 1744.378906 420.996094 C 1813.1875 380.011719 1896.851563 359.546875 1995.359375 359.546875 C 2070.113281 359.546875 2140.695313 372.027344 2207.183594 396.9375 C 2273.625 421.84375 2327.335938 458.683594 2368.265625 507.300781 C 2409.199219 555.972656 2429.664063 615.324219 2429.664063 685.304688 L 2427.894531 1254.910156 C 2427.894531 1422.234375 2446.859375 1553.613281 2484.847656 1649.15625 C 2522.808594 1744.648438 2568.785156 1810.539063 2622.792969 1846.726563 C 2676.777344 1882.917969 2732.261719 1901.039063 2789.21875 1901.039063 C 2831.945313 1901.039063 2870.507813 1880.273438 2904.925781 1838.742188 C 2939.316406 1797.160156 2966.347656 1745.84375 2985.914063 1684.746094 C 3005.484375 1623.648438 3015.292969 1566.394531 3015.292969 1512.984375 C 3015.292969 1495.210938 3014.667969 1482.132813 3013.496094 1473.847656 C 3084.703125 1477.390625 3147.597656 1496.660156 3202.183594 1531.703125 C 3256.742188 1566.691406 3284.070313 1607.925781 3284.070313 1655.394531 C 3284.070313 1704.015625 3263.28125 1749.441406 3221.773438 1791.570313 C 3180.21875 1833.648438 3121.191406 1867.195313 3044.644531 1892.152344 C 2968.121094 1917.0625 2880.589844 1929.492188 2782.105469 1929.492188 C 2659.882813 1929.492188 2548.617188 1906.628906 2448.359375 1861.003906 "/>
<path style=" stroke:none;fill-rule:nonzero;fill:rgb(0%,54.510498%,28.627014%);fill-opacity:1;" d="M 3195.042969 1342.117188 C 3215.210938 1299.386719 3227.988281 1263.496094 3233.304688 1234.445313 C 3238.648438 1205.34375 3241.316406 1167.65625 3241.316406 1121.382813 L 3241.316406 624.808594 C 3241.316406 547.683594 3224.695313 509.097656 3191.5 509.097656 C 3166.566406 509.097656 3135.117188 529.566406 3097.15625 570.496094 C 3059.167969 611.429688 3022.980469 664.839844 2988.5625 730.679688 C 2954.144531 796.570313 2928.636719 864.507813 2912.039063 934.492188 L 2912.039063 1064.425781 C 2912.039063 1133.261719 2914.382813 1184.027344 2919.152344 1216.625 C 2923.867188 1249.269531 2936.949219 1291.101563 2958.3125 1342.117188 L 2545.347656 1342.117188 C 2565.515625 1299.386719 2578.292969 1263.496094 2583.632813 1234.445313 C 2588.976563 1205.34375 2591.644531 1167.65625 2591.644531 1121.382813 L 2591.644531 681.761719 C 2591.644531 641.429688 2588.976563 606.089844 2583.632813 575.839844 C 2578.292969 545.589844 2562.542969 512.042969 2536.460938 475.257813 C 2680.023438 466.96875 2805.242188 433.722656 2912.039063 375.570313 L 2912.039063 845.488281 C 2947.628906 743.460938 2991.507813 655.65625 3043.746094 582.078125 C 3095.957031 508.5 3151.140625 452.992188 3209.292969 415.65625 C 3267.421875 378.265625 3322.007813 359.546875 3373.046875 359.546875 C 3427.605469 359.546875 3472.734375 378.566406 3508.324219 416.503906 C 3543.914063 454.539063 3561.734375 505.503906 3561.734375 569.597656 L 3561.734375 1064.425781 C 3561.734375 1133.261719 3564.082031 1184.027344 3568.847656 1216.625 C 3573.566406 1249.269531 3586.644531 1291.101563 3608.007813 1342.117188 Z M 3195.042969 1342.117188 "/>
<path style=" stroke:none;fill-rule:nonzero;fill:rgb(0%,54.510498%,28.627014%);fill-opacity:1;" d="M 4337.796875 1342.117188 C 4357.960938 1299.386719 4370.742188 1263.496094 4376.058594 1234.445313 C 4381.398438 1205.34375 4384.066406 1167.65625 4384.066406 1121.382813 L 4384.066406 624.808594 C 4384.066406 547.683594 4367.445313 509.097656 4334.25 509.097656 C 4309.316406 509.097656 4277.871094 529.566406 4239.90625 570.496094 C 4201.921875 611.429688 4165.730469 664.839844 4131.3125 730.679688 C 4096.894531 796.570313 4071.386719 864.507813 4054.789063 934.492188 L 4054.789063 1064.425781 C 4054.789063 1133.261719 4057.136719 1184.027344 4061.902344 1216.625 C 4066.621094 1249.269531 4079.699219 1291.101563 4101.0625 1342.117188 L 3688.101563 1342.117188 C 3708.265625 1299.386719 3721.042969 1263.496094 3726.386719 1234.445313 C 3731.726563 1205.34375 3734.398438 1167.65625 3734.398438 1121.382813 L 3734.398438 681.761719 C 3734.398438 641.429688 3731.726563 606.089844 3726.386719 575.839844 C 3721.042969 545.589844 3705.296875 512.042969 3679.214844 475.257813 C 3822.777344 466.96875 3947.992188 433.722656 4054.789063 375.570313 L 4054.789063 845.488281 C 4090.382813 743.460938 4134.257813 655.65625 4186.496094 582.078125 C 4238.710938 508.5 4293.894531 452.992188 4352.046875 415.65625 C 4410.175781 378.265625 4464.761719 359.546875 4515.800781 359.546875 C 4570.359375 359.546875 4615.484375 378.566406 4651.074219 416.503906 C 4686.664063 454.539063 4704.484375 505.503906 4704.484375 569.597656 L 4704.484375 1064.425781 C 4704.484375 1133.261719 4706.832031 1184.027344 4711.601563 1216.625 C 4716.316406 1249.269531 4729.394531 1291.101563 4750.761719 1342.117188 Z M 4337.796875 1342.117188 "/>
<path style=" stroke:none;fill-rule:nonzero;fill:rgb(0%,54.510498%,28.627014%);fill-opacity:1;" d="M 4024.539063 1699.871094 C 4024.539063 1642.914063 4045.007813 1596.042969 4085.9375 1559.253906 C 4126.871094 1522.464844 4182.378906 1504.097656 4252.363281 1504.097656 C 4315.28125 1504.097656 4410.199219 1517.722656 4537.164063 1545.027344 C 4613.113281 1560.453125 4673.039063 1571.734375 4716.941406 1578.871094 C 4760.84375 1585.960938 4804.171875 1589.554688 4846.875 1589.554688 C 5020.136719 1589.554688 5138.789063 1497.558594 5202.882813 1313.613281 L 4832.648438 564.257813 C 4808.886719 520.382813 4785.175781 482.09375 4761.441406 449.449219 C 4737.679688 416.851563 4712.199219 392.242188 4684.894531 375.570313 L 5163.722656 375.570313 C 5150.644531 394.589844 5144.128906 414.15625 5144.128906 434.324219 C 5144.128906 448.550781 5147.101563 463.425781 5153.039063 478.851563 L 5371.976563 930.949219 C 5402.828125 864.507813 5431.878906 791.230469 5459.207031 711.113281 C 5486.488281 630.996094 5508.425781 554.175781 5525.046875 480.597656 C 5560.664063 332.292969 5606.3125 215.089844 5662.121094 129.078125 C 5717.878906 43.023438 5795 -0.00390625 5893.511719 -0.00390625 C 5942.15625 -0.00390625 5983.988281 12.773438 6019.003906 38.28125 C 6053.996094 63.789063 6079.800781 95.535156 6096.425781 133.523438 C 6020.476563 133.523438 5946.023438 165.269531 5873.046875 228.714844 C 5800.066406 292.210938 5737.769531 363.441406 5686.15625 442.359375 C 5634.515625 521.277344 5594.484375 590.964844 5566.003906 651.464844 L 5236.703125 1342.117188 C 5160.753906 1502.300781 5067.285156 1614.164063 4956.34375 1677.660156 C 4845.375 1741.101563 4721.683594 1772.851563 4585.234375 1772.851563 C 4562.699219 1772.851563 4531.25 1771.652344 4490.890625 1769.308594 L 4449.957031 1767.507813 L 4371.640625 1760.421875 C 4279.066406 1753.28125 4222.113281 1749.738281 4200.75 1749.738281 C 4152.101563 1749.738281 4117.710938 1755.976563 4097.519531 1768.40625 C 4077.351563 1780.886719 4067.867188 1803.148438 4069.042969 1835.148438 C 4039.390625 1793.617188 4024.539063 1748.539063 4024.539063 1699.871094 "/>
<g clip-path="url(#clip1)" clip-rule="nonzero">
<path style=" stroke:none;fill-rule:nonzero;fill:rgb(62.745667%,18.823242%,8.235168%);fill-opacity:1;" d="M 7379.792969 2012.300781 C 7348.917969 1995.082031 7327.554688 1971.023438 7315.699219 1940.171875 C 7373.828125 1925.945313 7417.753906 1900.4375 7447.429688 1863.648438 C 7477.082031 1826.859375 7491.933594 1786.476563 7491.933594 1742.601563 C 7491.933594 1699.871094 7479.753906 1661.335938 7455.441406 1626.894531 C 7431.105469 1592.5 7396.691406 1566.09375 7352.1875 1547.726563 C 7307.6875 1529.304688 7256.347656 1521.917969 7198.21875 1525.460938 C 7130.582031 1530.203125 7037.410156 1543.832031 6918.757813 1566.394531 C 6825.015625 1584.214844 6742.824219 1597.839844 6672.242188 1607.324219 C 6601.636719 1616.808594 6531.328125 1621.550781 6461.316406 1621.550781 C 6304.679688 1621.550781 6162.5625 1589.804688 6035.003906 1526.359375 C 5907.4375 1462.867188 5806.855469 1373.863281 5733.304688 1259.355469 C 5659.699219 1144.84375 5622.9375 1014.011719 5622.9375 866.855469 C 5622.9375 776.703125 5641.628906 693.292969 5679.019531 616.769531 C 5716.40625 540.246094 5772.738281 478.550781 5848.113281 431.675781 C 5923.460938 384.804688 6014.535156 361.34375 6121.332031 361.34375 L 6123.128906 361.34375 C 6190.769531 361.34375 6253.0625 371.128906 6310.019531 390.695313 C 6366.976563 410.3125 6412.375 438.21875 6446.191406 474.359375 C 6480.011719 510.597656 6496.910156 553.574219 6496.910156 603.441406 C 6496.910156 644.972656 6481.785156 678.167969 6451.535156 703.128906 C 6421.261719 728.035156 6385.371094 740.464844 6343.839844 740.464844 C 6314.164063 740.464844 6285.386719 733.976563 6257.507813 720.898438 C 6229.605469 707.871094 6206.765625 688.300781 6188.972656 662.144531 C 6209.136719 646.769531 6224.585938 627.453125 6235.269531 604.292969 C 6245.925781 581.179688 6251.269531 556.570313 6251.269531 530.464844 C 6251.269531 486.535156 6239.410156 452.144531 6215.675781 427.1875 C 6191.914063 402.277344 6158.097656 389.847656 6114.21875 389.847656 C 6052.496094 389.847656 6000.585938 419.796875 5958.480469 479.699219 C 5916.324219 539.648438 5892.886719 618.867188 5888.171875 717.355469 C 5886.972656 730.433594 5886.371094 750 5886.371094 776.105469 C 5886.371094 933.894531 5923.761719 1070.964844 5998.511719 1187.273438 C 6073.289063 1303.578125 6172.648438 1392.234375 6296.667969 1453.382813 C 6420.660156 1514.480469 6555.039063 1545.027344 6699.820313 1545.027344 C 6735.4375 1545.027344 6776.945313 1542.035156 6824.441406 1536.144531 L 6938.351563 1521.917969 C 7008.359375 1512.382813 7080.441406 1503.496094 7154.617188 1495.210938 C 7228.769531 1486.875 7292.5625 1481.535156 7345.976563 1479.1875 C 7425.441406 1476.792969 7496.648438 1488.671875 7559.570313 1514.78125 C 7622.441406 1540.886719 7671.085938 1578.222656 7705.527344 1626.894531 C 7739.921875 1675.5625 7757.140625 1730.71875 7757.140625 1792.46875 C 7757.140625 1865.996094 7731.035156 1925.347656 7678.820313 1970.472656 C 7626.582031 2015.546875 7561.914063 2038.109375 7484.792969 2038.109375 C 7445.632813 2038.109375 7410.617188 2029.476563 7379.792969 2012.300781 "/>
</g>
<path style=" stroke:none;fill-rule:nonzero;fill:rgb(62.745667%,18.823242%,8.235168%);fill-opacity:1;" d="M 7606.714844 1844.980469 C 7509.976563 1789.773438 7431.65625 1707.011719 7371.757813 1596.644531 C 7311.832031 1486.277344 7281.878906 1351.601563 7281.878906 1192.613281 L 7281.878906 868.652344 C 7261.664063 943.378906 7232.613281 1019.054688 7194.652344 1095.574219 C 7156.664063 1172.148438 7110.390625 1237.089844 7055.808594 1290.5 C 7001.222656 1343.914063 6941.273438 1370.617188 6876.027344 1370.617188 C 6807.195313 1370.617188 6756.152344 1349.804688 6722.957031 1308.273438 C 6689.714844 1266.789063 6668.671875 1214.828125 6659.765625 1152.53125 C 6650.855469 1090.234375 6646.410156 1010.46875 6646.410156 913.128906 L 6646.410156 681.761719 C 6646.410156 678.167969 6646.6875 664.242188 6647.308594 639.933594 C 6647.882813 615.621094 6643.441406 588.617188 6633.957031 558.917969 C 6624.445313 529.265625 6610.195313 501.363281 6591.226563 475.257813 C 6657.667969 471.710938 6723.53125 461.628906 6788.824219 445.007813 C 6854.066406 428.382813 6913.417969 405.273438 6966.804688 375.570313 L 6966.804688 996.789063 C 6966.804688 1054.941406 6974.515625 1098.871094 6989.941406 1128.519531 C 7005.363281 1158.171875 7025.558594 1172.996094 7050.464844 1172.996094 C 7075.398438 1172.996094 7102.679688 1158.171875 7132.355469 1128.519531 C 7162.003906 1098.871094 7190.207031 1055.242188 7216.890625 997.6875 C 7243.59375 940.132813 7265.234375 872.195313 7281.878906 793.875 L 7281.878906 681.761719 C 7281.878906 641.429688 7279.210938 606.089844 7273.867188 575.839844 C 7268.527344 545.589844 7252.777344 512.042969 7226.695313 475.257813 C 7370.257813 466.96875 7495.476563 433.726563 7602.273438 375.570313 L 7602.273438 1425.777344 C 7602.273438 1532.550781 7615.625 1621.550781 7642.308594 1692.785156 C 7669.011719 1763.964844 7703.40625 1816.179688 7745.5625 1849.421875 C 7787.664063 1882.617188 7833.039063 1899.242188 7881.707031 1899.242188 C 7923.238281 1899.242188 7962.101563 1885.265625 7998.316406 1857.410156 C 8034.503906 1829.507813 8063.855469 1788.023438 8086.417969 1732.816406 C 8108.957031 1677.660156 8120.238281 1610.871094 8120.238281 1532.550781 C 8120.238281 1506.441406 8119.613281 1486.277344 8118.464844 1472.050781 C 8164.738281 1472.050781 8208.042969 1479.738281 8248.402344 1495.210938 C 8288.734375 1510.585938 8321.078125 1531.402344 8345.414063 1557.507813 C 8369.722656 1583.566406 8381.902344 1611.46875 8381.902344 1641.167969 C 8381.902344 1688.589844 8362.585938 1734.613281 8324.050781 1779.089844 C 8285.464844 1823.617188 8230.605469 1859.457031 8159.398438 1886.8125 C 8088.191406 1914.066406 8006.328125 1927.742188 7913.753906 1927.742188 C 7805.761719 1927.742188 7703.40625 1900.140625 7606.714844 1844.980469 "/>
<path style=" stroke:none;fill-rule:nonzero;fill:rgb(62.745667%,18.823242%,8.235168%);fill-opacity:1;" d="M 8295.574219 816.140625 C 8335.304688 760.929688 8355.199219 691.847656 8355.199219 608.785156 C 8355.199219 545.886719 8343.640625 493.675781 8320.480469 452.144531 C 8297.34375 410.613281 8268.566406 389.847656 8234.175781 389.847656 C 8191.445313 389.847656 8154.332031 409.117188 8122.910156 447.703125 C 8091.460938 486.238281 8067.425781 535.503906 8050.828125 595.40625 C 8034.207031 655.355469 8025.894531 716.15625 8025.894531 777.851563 C 8025.894531 812.296875 8028.867188 846.089844 8034.804688 879.335938 C 8068.023438 892.414063 8100.046875 898.902344 8130.921875 898.902344 C 8200.929688 898.902344 8255.8125 871.296875 8295.574219 816.140625 M 7916.425781 1301.183594 C 7844.621094 1254.910156 7790.636719 1194.363281 7754.46875 1119.636719 C 7718.257813 1044.859375 7700.160156 965.390625 7700.160156 881.082031 C 7700.160156 790.929688 7721.800781 706.371094 7765.128906 627.453125 C 7808.429688 548.535156 7871.328125 484.789063 7953.8125 436.121094 C 8036.277344 387.453125 8133.292969 363.140625 8244.832031 363.140625 C 8323.152344 363.140625 8389.292969 375.320313 8443.300781 399.632813 C 8497.289063 423.941406 8537.644531 456.285156 8564.351563 496.621094 C 8591.054688 537.003906 8604.410156 580.878906 8604.410156 628.351563 C 8604.410156 682.960938 8586.886719 733.375 8551.894531 779.652344 C 8516.878906 825.921875 8468.507813 862.414063 8406.8125 889.117188 C 8345.117188 915.824219 8275.679688 929.152344 8198.558594 929.152344 C 8140.40625 929.152344 8087.59375 919.667969 8040.144531 900.699219 C 8057.941406 988.503906 8093.832031 1060.582031 8147.84375 1116.941406 C 8201.828125 1173.347656 8267.371094 1201.5 8344.515625 1201.5 C 8402.644531 1201.5 8456.929688 1180.433594 8507.394531 1138.304688 C 8557.8125 1096.222656 8597.269531 1040.714844 8625.75 971.878906 L 8640 982.5625 C 8624.550781 1066.824219 8591.929688 1138.304688 8542.089844 1197.058594 C 8492.269531 1255.808594 8434.417969 1299.386719 8368.550781 1327.890625 C 8302.683594 1356.34375 8238.316406 1370.617188 8175.421875 1370.617188 C 8074.539063 1370.617188 7988.230469 1347.457031 7916.425781 1301.183594 "/>
</g>
</svg>
