<svg width="80" height="40" viewBox="0 0 326 340" fill="none" xmlns="http://www.w3.org/2000/svg">
<g id="." clip-path="url(#clip0_1_2)">
<g id="cook">
<path id="path2979" d="M191.246 339.09C183.486 336.4 177.506 328.95 185.656 322.18C190.216 318.51 201.946 311.52 197.616 306.06C195.026 307.99 197.136 296.62 198.896 294.43C199.306 290.66 199.196 285.49 197.496 291.83C196.456 286.16 195.206 281.19 191.206 276.98C188.626 278.9 189.876 291.39 186.466 288C185.806 281.19 191.646 274.89 189.156 267.89C187.306 261.35 189.956 274.3 186.016 273.79C184.256 267.74 189.746 260.06 186.896 253.86C185.836 251.11 188.276 247.12 183.906 247.87C183.946 244.09 187.396 236.27 186.226 235.16C185.086 238.42 180.476 245.53 181.886 237.76C186.406 229.21 175.256 242.12 178.616 235.45C180.886 233.13 188.526 223.94 181.006 230.37C177.836 229.4 186.846 222.22 186.876 218.38C190.256 215.88 192.716 208.1 192.646 205.27C188.506 211.87 186.046 220.4 178.786 224.51C180.506 221.1 179.896 215.08 179.286 211.46C183.806 210.14 178.066 205.35 184.656 204.67C188.416 202.43 191.426 194.85 190.416 192.25C188.776 196.04 182.636 204.81 179.336 202.74C185.696 199.57 179.796 198.1 177.246 194.87C178.296 194.89 185.176 195.46 182.726 190.78C176.686 188.69 172.956 184.46 166.716 183.15C171.676 181.31 180.866 190.36 182.046 185.98C177.956 183.84 167.066 177.28 176.746 175.21C181.396 171.84 164.496 178.17 172.676 173.29C176.676 173.11 186.836 160.85 178.406 167.12C173.836 169.04 169.716 177.45 164.326 173.88C166.606 173.34 174.096 168.8 169.246 168.86C165.746 171.22 160.866 159.64 161.866 168.51C159.046 173.82 159.046 159.89 157.496 166.86C154.646 173.44 158.106 160.44 154.886 161.17C152.286 160.71 151.256 152.53 150.876 159.73C154.276 162.45 153.756 168.35 154.626 170.57C149.146 173.91 152.496 159.45 150.186 168.04C150.756 171.7 149.936 174.71 147.756 175.92C152.696 181.67 142.036 187.46 144.496 193.02C144.926 198.82 139.886 206.74 140.396 211.11C145.736 207.52 137.056 217.41 136.806 219.54C130.636 219.52 139.026 208.84 137.886 206.72C136.796 209.64 128.676 215.19 132.136 209.92C138.536 206.83 124.806 203.02 134.826 202.53C136.906 200.16 132.526 197.38 137.576 195.48C139.306 193.16 131.036 195.6 135.816 192.18C137.226 187.32 136.796 185.08 133.436 182.3C142.306 179.28 124.436 179.44 130.726 173.94C130.466 170.85 118.616 171.95 123.846 167.5C120.616 164.96 123.016 160.33 119.406 156.86C120.266 149.06 114.546 161.18 110.706 157.15C110.106 149.93 117.816 144.03 122.316 139.07C134.496 141.16 114.386 152.93 123.976 154.81C127.526 154.22 119.976 149.86 125.956 151.4C131.296 152.93 134.716 160.51 139.216 159.81C140.106 162.3 143.756 166.06 143.526 160.92C150.496 169.06 148.966 154.82 143.666 152.95C141.616 150.36 147.086 141.09 142.246 148.48C137.066 152.63 143.226 137.95 135.346 139.14C127.276 135.28 118.356 134.38 109.526 134.79C98.796 131.88 126.786 134.37 115.506 130.02C108.516 128.24 98.506 129.57 93.406 125.11C99.716 124.78 107.916 128.3 113.136 127.29C105.276 124.19 98.466 118.04 93.836 111.08C95.736 109.72 99.536 115.51 100.646 109.72C104.306 104.98 107.596 107.72 102.216 111.02C97.326 116.6 109.066 117.54 113.046 119.7C113.616 115.97 113.136 110.75 111.826 106.75C111.406 100.32 113.986 101.41 113.386 106.71C112.636 111.41 118.066 95.532 116.526 104.9C112.766 112.6 121.566 117.25 126.946 120.68C131.416 123.41 138.546 127.17 140.276 121.86C142.146 125.77 152.896 124.13 151.066 128.79C149.066 124.73 139.916 127.91 147.656 130.12C149.476 132.88 140.686 130.37 144.886 135.41C150.076 138.86 154.016 132.98 156.046 128.17C156.146 125.16 150.656 121.9 152.476 118.03C149.286 118.12 145.746 126.75 143.706 122.06C137.516 115.03 145.656 108.3 145.936 101.63C144.756 98.44 139.076 88.878 145.336 95.99C152.086 101.83 144.396 88.839 141.916 86.753C139.116 84.535 136.696 75.921 141.556 82.793C145.456 87.508 150.206 99.21 155.616 90.554C159.596 87.576 152.556 84.116 158.166 83.493C157.226 78.395 160.106 75.119 161.726 74.46C158.316 70.039 162.266 68.134 162.246 62.889C167.056 64.108 163.236 56.278 165.936 53.11C167.476 50.15 168.316 48.164 168.006 44.005C171.416 42.836 169.766 52.146 171.136 44.862C168.156 39.448 172.776 33.007 174.676 29.196C178.006 23.078 181.576 14.798 187.066 8.83599C189.316 6.38799 194.196 -0.588311 194.986 4.41479C202.656 1.69799 185.876 12.09 192.226 11.633C189.266 15.188 190.956 27.35 193.906 17.351C196.106 14.55 198.736 6.49699 201.866 7.54099C196.296 14.399 193.656 22.802 191.526 31.328C189.846 40.987 198.956 24.352 195.746 32.86C191.916 35.79 191.176 40.932 195.946 42.11C193.006 46.643 194.986 47.232 199.066 46.499C197.626 48.967 193.136 49.76 191.196 51.666C191.946 48.836 193.236 39.375 190.906 47.125C189.996 50.115 185.076 58.594 190.216 57.641C188.906 61.639 183.666 65.139 185.316 58.201C186.596 53.853 189.476 41.705 186.926 41.184C184.996 45.028 185.456 55.983 182.396 55.622C183.336 51.869 185.206 36.767 181.776 47.868C181.436 53.983 180.166 59.714 179.356 65.581C178.586 70.564 185.466 52.718 183.226 61.898C179.456 71.143 192.146 58.556 188.826 67.316C188.266 70.616 195.416 69.016 188.946 70.658C183.826 70.638 182.746 80.345 188.036 78.318C183.876 79.612 179.676 88.054 175.946 81.934C174.686 89.581 183.486 89.761 188.636 85.372C192.636 83.385 185.106 90.641 190.766 88.179C195.136 87.083 196.506 78.558 196.296 86.742C196.586 90.414 198.316 80.107 199.916 79.235C201.086 78.971 200.586 84.276 201.966 79.283C200.866 74.073 207.366 70.605 206.536 65.722C210.026 60.382 210.836 52.093 214.016 48.35C212.056 43.457 218.216 42.515 216.636 36.876C221.266 32.645 218.226 23.654 224.026 19.538C226.686 15.017 228.176 9.02399 230.426 4.97199C232.406 10.857 236.096 -1.85331 236.456 5.60999C236.376 12.882 241.626 -6.06801 242.316 2.07069C238.986 5.23759 242.686 8.12199 245.246 6.67899C243.416 8.90399 244.086 13.163 244.436 14.581C252.946 10.564 244.636 18.051 244.676 21.624C247.596 16.696 249.076 28.244 245.126 29.67C243.826 32.449 249.756 33.732 244.726 35.412C242.056 39.203 249.036 39.675 243.796 43.147C247.926 48.476 238.466 52.431 243.586 55.865C242.886 58.578 236.726 64.164 242.426 62.512C242.276 66.142 231.366 74.727 240.246 73.376C237.516 77.035 231.626 79.148 231.686 83.344C239.446 83.444 224.726 88.231 228.086 92.839C225.786 94.325 219.196 98.05 225.766 97.9C225.256 101.32 214.346 100.97 221.166 103.8C217.186 106.71 219.506 114.57 224.246 113.7C221.256 115.35 213.966 117.38 221.986 118.22C224.026 117.31 228.996 112.23 226.016 117.74C223.276 120.89 217.386 122.93 223.246 126.82C216.566 124.62 216.926 125.84 222.076 128.94C226.406 126.84 230.546 123.78 234.366 120.86C237.356 122.87 222.886 130.19 232.616 126.74C235.696 126.18 246.526 117.93 242.626 124.3C236.376 128.94 227.276 128.49 221.766 133.7C224.086 140.36 235.406 132.91 240.806 131.18C240.356 137.21 229.546 136.68 224.496 138.12C220.816 139.81 215.446 140.96 222.516 143.8C225.626 145.75 239.076 138.74 230.396 144.71C226.066 144.54 220.916 150.04 222.906 152.25C228.036 149.36 227.456 152.76 229.486 155.63C231.306 151 232.256 154.05 232.196 156.77C235.446 149.69 242.486 146.65 245.576 138.94C246.696 133.81 248.576 136.99 248.286 139.79C249.706 136.07 253.556 132.02 257.136 133.93C255.256 138.4 262.836 126.14 262.876 133.47C268.136 130.66 272.306 138.18 275.836 138.4C279.596 135.81 283.026 132.48 286.546 129.86C293.306 129.93 295.746 122.49 300.976 125C304.186 122.11 311.826 118.08 308.016 126.12C302.116 145.95 288.886 162.15 277.066 178.68C275.366 181.16 267.486 192.51 274.266 186.14C285.906 171.6 296.516 156.14 305.556 139.85C308.066 132.96 312.296 124.68 309.746 118.25C318.876 114.73 312.256 129.73 310.596 133.77C308.126 145.4 300.036 154.66 293.816 164.48C282.966 179.82 271.616 195.32 256.746 207C249.406 212.62 248.166 204.24 252.586 199.42C253.996 187.14 252.326 174.06 258.126 162.61C260.956 158.73 260.246 156.9 256.626 155.11C256.926 151.83 250.506 146.72 254.036 152.23C249.636 154.99 258.076 158.03 250.136 159.05C250.176 161.3 250.696 162.94 246.376 163.66C244.716 165.1 252.206 166.39 246.246 167.15C240.706 167.79 250.556 171.26 242.546 171.08C247.666 175.59 235.736 172 240.106 177.91C239.136 178.97 232.346 176.26 236.746 179.86C241.156 181.76 229.286 182.47 235.676 186.77C237.936 190.45 239.936 195.1 236.846 198.04C241.726 200.7 237.066 205.95 235.906 199.45C231.146 198.85 243.566 209.17 235.786 209.45C238.356 210.61 242.406 220.23 237.506 215.04C237.506 218.73 243.026 220.73 238.316 222.14C238.986 226 241.346 227.35 243.246 223.92C244.136 228.66 245.246 227.09 248.546 224.98C247.656 229.04 246.706 232.39 250.416 227.24C253.596 226.25 264.726 228 256.286 231.98C252.326 234.66 249.496 231.87 253.246 228.6C250.226 230.22 241.526 238.44 246.046 239.23C248.536 231.41 250.986 241.12 246.366 242.05C245.826 246.17 239.446 248.76 247.216 247.94C254.126 250.72 234.536 253.69 244.616 257.84C241.346 255.09 250.126 251.92 247.386 258C246.906 261.7 248.786 266.38 243.506 261.85C236.616 257.27 245.666 268.24 242.676 271.49C244.436 271.46 249.316 264.42 246.626 270.55C244.326 273.3 240.986 279.23 246.516 276.68C249.556 281.94 248.336 267.99 250.086 271.82C252.416 274.78 253.106 282.34 255.856 282.2C255.206 279.23 254.026 267 256.416 275.57C254.876 281.7 262.796 283.58 257.976 287.86C254.406 283.85 255.156 291.79 259.866 288.95C279.256 287.08 298.746 286.27 318.166 285.05C323.376 287.11 310.556 287.46 308.156 287.69C291.406 289.03 274.436 288.79 257.806 290.85C276.546 292.18 295.426 290.22 314.186 291.41C309.756 293.63 297.266 292.02 294.516 293.6C300.336 294.58 311.976 292.61 314.606 295.11C307.156 296.83 298.596 295.37 291.756 298.16C295.696 299.72 306.956 297.07 307.166 299.91C287.146 301.56 267.076 302.83 247.116 305.14C243.376 305.04 233.736 309.14 242.776 308.68C255.616 307.86 268.526 306.48 281.396 307.35C277.846 310.45 265.786 308.03 258.996 309.65C250.146 310.38 241.256 310.83 232.396 311.29C230.556 314.23 225.486 314.72 224.916 316.46C223.116 318.88 215.586 320.31 212.136 323.55C219.436 325.5 198.606 325.49 208.406 327.06C216.126 326.59 211.506 329.1 207.246 329.79C202.036 332.72 216.376 330.45 208.156 333.68C201.896 333.81 198.376 342.16 191.246 339.09ZM200.656 333.36C201.326 330.44 203.426 322.65 201.316 322.06C199.116 325.18 194.766 329.12 198.426 322.7C202.156 320.33 201.336 315.85 197.856 321.42C192.846 320.3 182.026 329.35 188.156 331.68C189.286 327.56 192.916 322.49 191.426 330.19C190.986 338.77 196.576 325.71 196.396 331.86C194.246 335.64 198.966 337.38 200.656 333.36ZM211.166 317.12C206.566 314.54 204.646 324.1 209.436 318.49L210.226 317.85L211.166 317.12ZM204.346 314.24C197.626 319.17 206.046 309.43 204.346 314.24V314.24ZM209.936 311.29C204.796 319 211.576 304.28 209.936 311.29V311.29ZM207.246 308.8C204.646 305.45 205.366 313.8 207.246 308.8V308.8ZM210.246 304.8C207.766 308.54 207.836 302.45 210.246 304.8V304.8ZM200.986 300.78C204.126 296.94 200.526 285.43 200.176 295.72C198.666 297.84 195.746 308.25 200.986 300.78ZM206.826 298.27C209.726 293.97 202.666 285.06 203.326 294.12C204.116 297.87 200.636 307.42 206.106 300.66L206.526 299.52L206.826 298.27ZM204.496 295.36C205.056 287.52 205.166 302.48 204.496 295.36V295.36ZM222.996 302.1C220.706 296.66 209.156 303.7 217.966 301.1C221.336 299.3 219.566 307.14 222.996 302.1ZM213.166 299.49C210.986 298.97 207.746 304.73 212.796 300.78L213.166 299.49ZM226.336 295.77C223.686 288.52 226.896 305.61 226.666 296.72L226.336 295.77ZM217.646 297.26C219.176 293.56 213.916 283.97 215.426 293.15C216.516 294.77 214.646 301.51 217.646 297.26ZM222.046 297.66C225.526 294.16 220.626 286.11 221.176 294.72C220.106 296.45 216.746 300.49 222.046 297.66ZM249.486 298.15C241.776 297.6 246.496 299.39 249.486 298.15V298.15ZM212.696 296.61C215.446 290.5 212.426 282.4 207.626 279.87C205.086 287.22 213.546 291.81 211.156 297.86L212.086 297.49L212.696 296.61ZM208.906 292.59C207.296 294.61 209.876 298.22 208.906 292.59V292.59ZM262.486 295.15C254.776 294.6 259.496 296.39 262.486 295.15V295.15ZM246.226 293.11C242.486 299.39 244.246 282.48 246.226 293.11V293.11ZM252.246 292.36C249.716 287.15 250.206 297.38 252.246 292.36V292.36ZM218.806 287.31C213.856 279.86 220.316 298.97 219.466 288.5L218.806 287.31ZM228.976 291.17C223.126 283.91 225.286 297.06 228.976 291.17V291.17ZM250.746 288.86C247.786 285.47 250.306 292.33 250.746 288.86V288.86ZM206.246 281.87C206.876 278.29 204.816 269.88 203.606 276.84C197.256 275.46 204.576 263.65 196.726 264.67C199.336 262.81 201.236 255.83 196.606 259.42C194.256 264.34 197.646 245.51 198.426 254.55C205.086 253.24 199.716 243.58 195.546 251.06C189.596 256.52 195.086 264.35 195.216 271.58C197.936 277.17 203.246 278.98 205.266 284.76C205.516 289.59 207.286 282.94 206.246 281.87ZM225.276 283.44C226.236 281.37 224.926 276.9 222.396 276.03C222.066 278.97 226.836 292.15 225.276 283.44ZM231.556 282.55C227.546 282.73 232.006 288.43 231.556 282.55V282.55ZM251.786 279.23C247.796 269.54 251.636 293.08 252.126 282.2L252.006 280.71L251.786 279.23ZM201.246 282.86C199.226 277.18 196.466 285.75 201.176 284.25L201.246 282.86ZM218.606 280.36C214.316 275.33 219.586 284.92 218.606 280.36V280.36ZM232.846 278.13C230.796 278.77 234.286 282.9 232.846 278.13V278.13ZM227.356 276.57C223.586 276.28 230.216 282.37 227.356 276.57V276.57ZM242.746 278.86C239.786 275.47 242.306 282.33 242.746 278.86V278.86ZM236.746 277.86C233.786 274.47 236.306 281.33 236.746 277.86V277.86ZM215.226 274.61C213.586 269.18 213.866 281.64 215.226 274.61V274.61ZM211.226 272.11C210.606 264.87 207.546 271.01 210.246 273.86C211.036 273.8 211.216 272.66 211.226 272.11ZM232.336 267.14C229.296 263.87 233.146 279.28 233.096 270.44C233.036 269.31 232.876 268.15 232.336 267.14ZM225.226 268.61C221.926 266.01 223.786 275.89 225.226 268.61V268.61ZM238.696 267.61C238.296 263.04 235.006 258.5 236.706 266.15C236.496 267.98 240.046 275.18 238.696 267.61ZM206.846 267.13C203.236 266.72 208.436 272.26 206.846 267.13V267.13ZM215.046 265.32C209.946 257.84 216.916 274.03 215.046 265.32V265.32ZM219.496 265.71C216.186 265.1 221.456 270.75 219.496 265.71V265.71ZM205.246 261.74C203.976 256.84 200.786 267.47 205.136 262.58L205.246 261.74ZM222.846 261.13C220.796 261.77 224.286 265.9 222.846 261.13V261.13ZM220.246 260.36C217.716 255.15 218.206 265.38 220.246 260.36V260.36ZM209.246 258.36C206.716 253.15 207.206 263.38 209.246 258.36V258.36ZM203.246 256.8C200.646 253.45 201.366 261.8 203.246 256.8V256.8ZM238.766 253.89C237.646 250.79 233.726 241.46 235.236 249.9C236.076 252.87 242.326 263.89 239.246 254.89L238.766 253.89ZM230.246 255.86C227.556 251.83 227.886 259.75 230.246 255.86V255.86ZM207.246 253.3C204.476 251.16 204.876 257.11 207.246 253.3V253.3ZM214.246 253.92C211.516 257.84 211.896 248.38 214.246 253.92V253.92ZM241.246 252.86C238.536 249.17 240.286 256.05 241.246 252.86V252.86ZM225.846 250.13C223.796 250.77 227.286 254.9 225.846 250.13V250.13ZM231.426 250.64C227.256 249.06 234.026 255.13 231.426 250.64V250.64ZM232.336 245.55C229.196 244.39 234.196 253.91 233.006 246.87L232.336 245.55ZM229.066 246.36C224.416 238.59 227.436 252.68 229.566 247.6L229.066 246.36ZM243.206 244.4C245.986 237.49 237.466 244.15 242.026 245.56L243.206 244.4ZM222.246 243.36C219.716 238.15 220.206 248.38 222.246 243.36V243.36ZM235.486 242.35C231.776 232.31 235.076 250.31 235.486 242.35V242.35ZM238.466 240.68C232.946 238.98 240.606 246.71 238.466 240.68V240.68ZM188.846 240.13C186.796 240.77 190.286 244.9 188.846 240.13V240.13ZM242.246 237.83C237.886 235.45 240.176 242.72 242.246 237.83V237.83ZM221.246 235.36C218.946 230.37 220.496 239.98 221.246 235.36V235.36ZM229.526 234.63C227.876 231.62 225.496 224.92 226.726 232.14C226.466 233.53 231.346 239.67 229.526 234.63ZM233.456 233.85C229.836 222.89 232.726 243.02 233.456 233.85V233.85ZM198.496 234.44C195.126 239.18 196.136 229.32 198.496 234.44V234.44ZM238.606 234.36C236.066 229.75 238.416 239.18 238.606 234.36V234.36ZM225.246 232.86C222.536 229.17 224.286 236.05 225.246 232.86V232.86ZM241.906 230.61C240.266 231.43 242.796 235.74 241.906 230.61V230.61ZM194.536 230.86C192.216 237.01 194.206 224.43 194.536 230.86V230.86ZM206.246 229.92C202.796 233.91 203.246 224.13 206.246 229.92V229.92ZM234.526 228.82C232.106 222.53 235.086 235.27 234.526 228.82V228.82ZM240.246 229.8C237.766 233.54 237.836 227.45 240.246 229.8V229.8ZM199.056 223.11C200.506 220.01 201.816 213.32 198.726 220.28C195.046 222.47 195.386 229.61 199.056 223.11ZM226.226 221.83C221.476 216.03 228.316 230.41 226.646 222.74L226.226 221.83ZM234.246 220.86C232.916 214.9 229.826 217.42 232.876 221.88C234.886 227.8 235.816 224.69 234.246 220.86ZM189.246 221.74C186.476 220.01 187.646 226.31 189.246 221.74V221.74ZM218.246 222.3C216.176 218.61 217.326 226.88 218.246 222.3V222.3ZM230.696 220.61C225.996 209 230.416 229.11 230.696 220.61V220.61ZM225.606 217.36C221.236 212.41 225.326 222.31 225.606 217.36V217.36ZM188.526 208.61C188.226 202.96 177.156 217.94 183.596 216.23C185.406 213.81 187.236 211.35 188.526 208.61ZM214.246 216.36C211.716 211.15 212.206 221.38 214.246 216.36V216.36ZM224.846 212.13C221.236 211.72 226.436 217.26 224.846 212.13V212.13ZM196.246 209.3C193.476 207.16 193.876 213.11 196.246 209.3V209.3ZM202.246 209.94C204.656 204.42 200.786 206.91 200.496 210.64C201.086 211.11 202.246 210.82 202.246 209.94ZM228.216 206.24C228.456 203.21 223.576 198.01 225.926 204.37C225.956 207.56 229.936 212.48 228.216 206.24ZM201.226 198.86C203.796 194.19 200.186 192.44 199.106 198.2C196.676 201.93 197.176 208.43 199.566 201.15L200.226 199.96L201.226 198.86ZM195.846 201.13C193.796 201.77 197.286 205.9 195.846 201.13V201.13ZM220.246 202.3C217.476 200.16 217.876 206.11 220.246 202.3V202.3ZM256.246 202.86C253.536 199.17 255.286 206.05 256.246 202.86V202.86ZM259.246 200.86C256.556 196.83 256.886 204.75 259.246 200.86V200.86ZM262.696 196.77C258.056 194.54 262.616 201.92 262.696 196.77V196.77ZM185.816 195.09C180.546 193.73 183.136 201.26 185.816 195.09V195.09ZM233.606 195.37C229.526 191.57 233.726 200.16 233.606 195.37V195.37ZM256.596 194.33C253.496 189.44 256.496 200.58 256.596 194.33V194.33ZM266.246 194.48C268.546 193.72 272.766 186.92 267.506 190.18C264.986 190.59 262.736 199.12 266.246 194.48ZM196.216 190.42C192.986 190.82 192.746 197.95 195.806 191.74L196.216 190.42ZM189.246 190.62C186.456 189.38 185.146 196.69 188.806 191.69L189.246 190.62ZM258.336 185.08C257.986 181.87 259.806 167.44 259.806 177.56C259.636 183.15 259.316 188.72 259.076 194.3C276.106 176.31 292.206 156.75 302.526 134.05C305.456 130.56 304.676 123.02 300.756 130.03C296.426 145.05 288.226 159.09 277.126 170.08C277.586 165.01 285.676 159.13 288.516 153.25C293.016 146.11 297.816 138.33 298.726 129.95C294.746 133.11 294.666 142.32 291.476 144.85C291.196 140.53 296.886 131.91 293.876 130.33C290.996 137.83 286.736 144.48 282.756 151.41C279.176 154.94 284.796 143.64 285.476 141.49C287.176 134.19 281.566 147.02 280.306 148.78C277.196 154.9 270.756 158.28 266.376 162.65C267.876 159.05 272.506 153.94 265.446 157.99C257.806 161.58 258.716 171.78 256.556 178.63C256.656 180.87 256.326 192.25 257.996 192.81C258.226 190.24 258.286 187.66 258.336 185.08ZM259.316 169.11C260.916 158.14 262.666 172.26 259.316 169.11V169.11ZM219.246 191.92C216.516 195.84 216.896 186.38 219.246 191.92V191.92ZM186.696 189.61C188.376 184.44 188.936 180.09 184.876 186.32C182.616 187.81 184.716 193.23 186.696 189.61ZM227.426 188.64C223.256 187.06 230.026 193.13 227.426 188.64V188.64ZM140.246 188.3C137.476 186.16 137.876 192.11 140.246 188.3V188.3ZM224.366 187.18C220.656 183.43 226.396 193.74 224.366 187.18V187.18ZM232.266 186.38C225.566 181.12 235.526 192.38 232.266 186.38V186.38ZM194.416 185.21C199.376 179.83 191.446 183.28 191.866 186.86C192.866 186.56 193.646 185.86 194.416 185.21ZM188.206 179.61C192.766 183.37 186.876 172.37 185.346 179.23C183.156 184.02 180.796 185.68 188.206 179.61ZM180.676 181.75C180.916 178.5 186.736 176.39 182.636 176.03C184.526 170.52 172.116 185.61 180.676 181.75ZM140.746 179.86C136.326 183.43 140.436 176.32 140.746 179.86V179.86ZM234.246 179.86C231.556 175.83 231.886 183.75 234.246 179.86V179.86ZM177.916 177.19C172.726 176.5 175.136 182.58 177.916 177.19V177.19ZM197.246 176.24C194.806 172.46 195.116 182.89 197.246 176.24V176.24ZM191.256 174.37C184.896 170.72 192.726 179.34 191.256 174.37V174.37ZM146.246 172.83C141.886 170.45 144.176 177.72 146.246 172.83V172.83ZM199.706 171.79C196.936 168.79 199.316 176.71 199.706 171.79V171.79ZM184.216 168.59C180.666 168.17 177.226 175.08 182.626 170.46L183.416 169.76L184.216 168.59ZM187.666 172.25C180.186 173.9 193.726 165.91 187.666 172.25V172.25ZM204.846 167.13C202.796 167.77 206.286 171.9 204.846 167.13V167.13ZM200.246 167.92C197.516 171.84 197.896 162.38 200.246 167.92V167.92ZM133.436 167.18C128.986 166.44 133.996 169 133.436 167.18V167.18ZM167.516 164.79C163.086 159.36 167.626 171.93 167.516 164.79V164.79ZM190.246 165.8C187.766 169.54 187.836 163.45 190.246 165.8V165.8ZM171.246 163.86C168.556 159.83 168.886 167.75 171.246 163.86V163.86ZM164.006 160.42C157.916 152.98 159.756 169.59 164.006 160.42V160.42ZM178.746 162.86C174.976 166.19 177.226 159.36 178.746 162.86V162.86ZM202.846 161.13C200.796 161.77 204.286 165.9 202.846 161.13V161.13ZM167.906 156.59C166.296 158.61 168.876 162.22 167.906 156.59V156.59ZM191.686 159.33C195.726 154.55 184.206 162.92 190.786 159.96L191.686 159.33ZM125.246 158.4C119.546 153.24 120.466 159.2 125.246 158.4V158.4ZM185.246 157.8C182.766 161.54 182.836 155.45 185.246 157.8V157.8ZM179.776 156.05C176.136 156.32 177.156 159.77 179.776 156.05V156.05ZM224.996 154.28C220.246 152.83 224.396 160.54 224.996 154.28V154.28ZM177.226 150.42C176.766 148.56 174.676 151.01 175.886 146.64C176.956 134.44 161.936 144.73 155.756 140.78C150.756 142.58 140.316 132.53 144.746 142.86C145.446 145.8 147.466 152.73 149.606 151.99C147.896 148.21 149.776 144.48 151.606 150.27C153.236 155.61 164.176 155.25 166.726 152.34C167.916 146.87 168.256 156.88 169.346 154.5C170.456 152.26 171.996 146.97 172.026 152.28C172.096 156.5 175.046 150.68 174.496 155.85C176.056 154.54 177.106 152.46 177.226 150.42ZM194.226 152.49C190.006 151.75 192.296 159.8 194.226 152.49V152.49ZM204.846 153.13C202.796 153.77 206.286 157.9 204.846 153.13V153.13ZM181.116 149.45C183.636 145.08 178.626 141.45 179.526 147.91C178.646 151.35 177.926 158.14 180.626 151.05L181.116 149.45ZM268.416 153.21C273.576 146.84 266.126 147.39 264.066 152.61C261.156 156.33 267.316 154.61 268.416 153.21ZM246.746 152.86C242.326 156.43 246.436 149.32 246.746 152.86V152.86ZM262.556 149.06C265.786 146.15 265.586 145 261.616 145.25C257.096 140.53 257.016 158.44 262.556 149.06ZM248.206 144.55C244.456 145.01 241.396 154.83 246.736 147.37L247.506 146.22L248.206 144.55ZM255.606 144.85C256.956 142.91 259.066 141.06 261.306 139.15C257.656 134.07 244.466 145.8 254.916 141.19C255.256 144.78 246.116 146.76 249.046 150.05C251.236 148.36 252.676 145.42 255.606 144.85ZM186.056 147.92C185.276 144.44 181.306 152.08 185.366 148.98L186.056 147.92ZM177.906 143.59C176.296 145.61 178.876 149.22 177.906 143.59V143.59ZM278.246 146.36C275.946 151.35 277.496 141.74 278.246 146.36V146.36ZM272.006 143.61C273.946 139.21 269.086 135.68 269.946 142.59C269.656 144.47 270.576 145.88 272.006 143.61ZM264.246 142.3C261.476 140.16 261.876 146.11 264.246 142.3V142.3ZM185.246 141.8C182.766 145.54 182.836 139.45 185.246 141.8V141.8ZM267.856 137.29C262.896 131.94 268.416 149.14 268.156 139.05L267.856 137.29ZM283.226 139.05C281.106 145.76 281.356 136.12 283.226 139.05V139.05ZM178.696 138.14C178.786 134.63 171.386 137.63 177.886 139.78L178.696 138.14ZM188.746 138.86C185.786 135.47 188.306 142.33 188.746 138.86V138.86ZM216.876 135.33C211.126 129.81 218.876 143.01 216.876 135.33V135.33ZM168.496 136.11C169.176 132.55 176.256 141.88 172.716 134.91C180.476 131.9 163.576 129.52 163.246 127.51C168.276 127.87 180.936 132.71 175.136 123.12C176.406 117.12 169.336 111.39 164.946 117.25C160.116 115.57 168.166 105.79 162.076 113.1C159.516 118.31 159.856 114.12 161.016 111.39C158.656 113.84 155.426 117.88 160.766 118.41C164.456 119.5 169.476 123.25 162.476 122.59C154.076 125.56 160.236 139.87 167.906 137.25L168.406 136.77L168.496 136.11ZM162.756 134.88C162.856 131.2 168.646 137.18 162.756 134.88V134.88ZM168.246 132.86C170.606 136.75 170.936 128.83 168.246 132.86V132.86ZM170.916 123.19C168.666 116.59 175.896 125.78 170.916 123.19V123.19ZM166.246 118.86C169.926 114.84 170.086 122.77 166.246 118.86V118.86ZM171.746 117.86C172.056 114.32 176.166 121.43 171.746 117.86V117.86ZM136.886 134.29C137.576 129.41 125.166 134.69 126.206 134.44C128.796 134.87 137.176 139.77 136.886 134.29ZM178.196 132.77C173.706 127.44 179.766 139.34 178.196 132.77V132.77ZM183.246 133.92C179.506 127.63 179.806 137.63 183.246 133.92V133.92ZM290.606 133.36C288.536 138.45 289.596 127.42 290.606 133.36V133.36ZM132.566 130.87C130.756 128.21 123.806 130.43 120.246 130.68C122.416 134.14 129.296 131.63 132.566 130.87ZM136.246 128.86C131.136 125.29 132.936 130.99 136.246 128.86V128.86ZM179.606 128.36C177.536 133.45 178.596 122.42 179.606 128.36V128.36ZM210.676 126.02C207.136 118.26 208.736 129.39 211.866 129.39C211.756 128.18 211.176 127.1 210.676 126.02ZM192.846 125.13C190.796 125.77 194.286 129.9 192.846 125.13V125.13ZM125.246 124.99C122.246 123.2 111.506 124.17 119.696 126.45C124.366 126.99 129.066 126.65 133.746 126.67C130.916 126.11 128.076 125.55 125.246 124.99ZM114.246 123.4C111.816 120.76 105.076 118.36 102.716 118.68C105.046 120.49 111.806 127.64 114.246 123.4ZM122.516 119.96C119.056 118.46 113.856 110.59 115.376 119.08C116.216 122.48 133.036 126.04 123.536 120.63L122.516 119.96ZM194.346 119.26C203.046 112.36 189.006 102.67 183.966 111.8C178.466 116.1 187.726 110.86 188.896 114.43C190.996 121.47 182.016 122.81 181.576 115.66C179.006 124.58 190.296 123.53 194.346 119.26ZM149.976 113.6C156.416 106.55 141.406 106.22 146.946 113.16C145.906 119.69 147.316 117.59 149.976 113.6ZM167.376 113.2C160.916 118.33 168.496 109.33 167.376 113.2V113.2ZM215.216 108.9C208.156 112.23 218.846 104.53 215.216 108.9V108.9ZM215.746 103.86C215.416 100.61 209.816 106.16 214.866 104.57L215.746 103.86ZM180.436 101.18C175.986 100.44 180.996 103 180.436 101.18V101.18ZM219.006 99.57C219.716 97 218.076 94.806 222.416 93.73C222.446 88.374 227.616 85.966 230.206 80.551C231.956 74.309 234.906 69.004 237.116 62.599C230.066 62.524 243.066 55.253 239.816 50.057C240.326 42.782 244.246 33.907 239.626 27.531C232.846 29.169 246.136 10.179 238.916 17.11C236.606 21.787 237.406 15.762 237.096 13.537C236.676 15.428 233.406 22.339 232.586 15.596C233.666 21.632 226.946 18.821 229.736 25.261C221.236 27.562 227.616 35.559 223.426 40.816C222.786 46.729 216.066 55.508 217.206 59.248C225.446 53.309 211.476 65.87 216.956 66.192C219.076 57.777 220.056 69.806 215.826 71.332C213.896 74.848 215.126 80.578 218.306 75.915C218.406 83.861 210.916 85.107 212.056 93.407C215.886 89.716 217.826 80.291 223.816 76.86C227.056 81.778 216.246 85.914 215.526 91.344C213.946 93.895 211.176 103.86 214.696 96.31C219.096 88.312 214.486 100.07 214.796 101.54C216.306 101.15 217.736 100.47 219.006 99.57ZM221.386 58.45C225.536 51.031 222.226 63.481 220.876 59.669L221.386 58.45ZM225.246 48.419C226.166 43.838 227.316 52.108 225.246 48.419V48.419ZM232.246 30.86C234.606 34.753 234.936 26.83 232.246 30.86V30.86ZM167.706 91.791C164.936 88.789 167.316 96.71 167.706 91.791V91.791ZM173.636 90.278C168.316 95.635 175.366 83.74 173.636 90.278V90.278ZM200.436 85.834C196.046 80.763 202.226 93.571 200.436 85.834V85.834ZM211.226 82.551C207.756 82.297 210.056 88.693 211.226 82.551V82.551ZM182.246 78.738C178.866 75.185 177.116 85.265 181.836 79.701L182.246 78.738ZM171.226 73.551C169.156 72.651 166.866 69.477 168.256 74.888C169.386 78.074 170.916 75.368 171.226 73.551ZM183.416 70.86C184.266 61.656 180.186 73.492 182.656 74.544C183.146 73.379 183.266 72.101 183.416 70.86ZM177.426 70.643C173.246 69.067 180.036 75.124 177.426 70.643V70.643ZM212.666 69.219C208.676 74.272 212.156 65.897 212.666 69.219V69.219ZM176.826 62.102C173.676 62.963 177.666 72.381 177.116 64.37V63.343L176.826 62.102ZM169.896 62.403C165.236 56.924 170.736 68.639 169.896 62.403V62.403ZM214.246 56.801C211.766 60.542 211.836 54.452 214.246 56.801V56.801ZM171.426 54.643C167.246 53.067 174.036 59.124 171.426 54.643V54.643ZM177.216 47.995C174.186 48.229 173.546 58.936 176.346 50.639L176.806 49.432L177.216 47.995ZM217.846 49.131C215.796 49.767 219.286 53.898 217.846 49.131V49.131ZM172.906 38.61C171.266 39.428 173.796 43.735 172.906 38.61V38.61ZM221.906 38.61C220.266 39.428 222.796 43.735 221.906 38.61V38.61ZM183.246 35.122C182.226 26.682 178.356 43.698 183.156 36.649L183.246 35.122ZM187.246 34.36C190.116 29.219 190.326 21.536 187.246 16.86C186.366 23.476 189.366 28.582 185.616 35.118C185.086 39.696 187.516 36.364 187.246 34.36ZM178.226 33.61C176.086 40.582 176.656 28.689 178.226 33.61V33.61ZM182.246 29.801C179.646 26.453 180.366 34.804 182.246 29.801V29.801ZM185.846 27.131C183.796 27.767 187.286 31.898 185.846 27.131V27.131ZM225.246 25.801C222.766 29.542 222.836 23.452 225.246 25.801V25.801ZM245.246 25.86C242.556 21.83 242.886 29.753 245.246 25.86V25.86ZM140.486 335.14C130.086 332.18 134.876 318.81 141.396 314.01C146.356 306.54 131.806 311.82 128.086 310.94C95.386 312.79 62.765 315.72 30.205 319.22C27.979 319.81 22.22 319.39 25.21 317.29C17.459 315.91 6.60601 320.03 1.88001 311.58C-3.50049 305.63 3.60801 293.49 11.383 297.81C17.884 300.41 11.756 310.53 7.53801 305.61C13.912 303.65 6.41701 297.23 4.47001 303.91C3.73501 316.72 23.554 308.67 18.868 298.75C16.657 289.99 10.077 283.16 6.66401 274.85C1.15501 265.71 3.94901 254.33 7.72601 245.08C10.012 237.15 23.055 232.24 15.469 223.36C14.806 217.51 6.56601 214.08 13.681 208.44C20.728 203.2 30.242 204.94 38.495 203.42C48.671 202.34 58.944 201.69 69.078 200.58C72.813 194.55 76.423 186.27 84.724 185.66C92.436 181.24 95.496 172.15 101.546 166C102.396 162.69 94.586 160.6 98.396 155.54C99.856 150.51 108.716 144.25 112.046 149.1C105.256 147.94 96.126 155.81 102.026 161.43C101.356 153.94 102.766 160.21 104.956 160.42C105.196 154.91 114.636 162.78 109.836 166.04C105.316 172.93 99.266 179.05 96.426 186.87C91.396 189.26 90.556 197.9 91.506 201.01C99.636 201.58 107.866 201.34 115.886 202.91C120.086 206.76 114.796 214.2 113.386 219.57C111.126 223.37 118.626 225 120.126 227.98C127.466 232.95 132.516 241.12 131.686 250.22C131.496 254.25 131.466 262.73 135.346 254.83C138.886 252.72 140.846 243.06 136.746 250.68C133.176 249.63 143.086 238.21 134.366 240.18C135.486 237.35 139.236 233.82 134.326 233.12C139.406 228.04 135.936 217.59 143.126 214.56C141.246 217.46 137.966 226.96 143.216 221.42C141.166 224.32 138.256 233.58 142.926 228.68C141.326 231.34 138.266 242.58 142.246 234.35C147.536 226.25 140.596 240.87 143.626 241.86C146.116 242.94 142.246 247.38 147.186 248.51C144.926 248.91 140.626 256.51 146.306 251.75C146.916 256.91 140.666 264.51 138.376 270.07C140.346 280.59 142.066 259.03 144.496 269.9C145.976 277.4 145.306 285.54 149.266 292.36C149.266 288.97 145.356 276.73 150.066 284.78C151.946 288.46 158.866 300.22 151.046 299.11C145.026 291.21 153.916 305.98 149.356 308.15C148.496 314.87 139.116 317.83 137.696 325.42C136.576 329.36 141.106 335.15 139.666 327.84C139.566 322.78 144.756 322.22 141.676 327.68C142.966 333.73 147.776 328.86 146.126 325.03C149.196 326.89 157.346 326.4 151.336 324.68C151.236 317 159.066 312.83 161.486 306.32C162.766 300.32 161.286 314.82 164.236 309.34C166.116 306.63 159.096 297.45 163.956 298.89C165.956 301.97 166.416 312.47 170.496 306.07C172.076 313.2 167.646 316.91 161.046 316.52C161.856 316.76 173.106 316.31 168.436 318.55C165.386 317.98 151.856 320.74 161.496 320.4C167.166 322.31 149.866 321.73 156.556 327.5C155.976 334.61 146.546 336.44 140.486 335.14ZM49.583 314.41C62.522 314.27 75.284 312.2 88.185 311.43C84.929 310.28 72.588 310.77 66.038 310.82C62.535 311.42 50.225 309.48 59.935 308.24C65.583 308.77 68.892 303.44 74.725 304.4C65.562 303.57 55.95 305.94 47.107 302.9C39.854 297.47 30.933 302.37 23.4 304.52C21.483 306.42 13.164 313.83 16.755 313.82C22.083 314.22 33.096 311.31 35.027 313.63C30.55 312.91 25.003 316.28 32.698 315.2C38.319 314.81 43.952 314.6 49.583 314.41ZM105.876 310.65C103.196 308.67 91.246 312.22 100.576 311.73C102.336 311.54 104.326 311.6 105.876 310.65ZM114.436 310.18C109.986 309.44 114.996 312 114.436 310.18V310.18ZM127.496 309.66C135.196 307.92 119.626 308.67 117.276 309.98C113.646 311.9 126.946 309.22 127.496 309.66ZM99.436 308.18C94.986 307.44 99.996 310 99.436 308.18V308.18ZM119.746 307.86C119.746 306.74 106.526 307.74 103.636 308.7C108.996 309.03 114.446 308.68 119.746 307.86ZM135.496 308.2C130.366 307.31 134.676 309.84 135.496 308.2V308.2ZM142.246 308C138.416 306.13 135.196 310.26 141.516 308.61L142.046 308.33L142.246 308ZM145.246 307.3C142.476 305.16 142.876 311.11 145.246 307.3V307.3ZM146.816 303.65C146.716 300.09 143.216 295.06 139.926 297.08C136.306 288.44 136.406 302.04 133.866 304.45C137.476 305.24 144.376 307.67 146.816 303.65ZM139.746 303.79C136.436 301.74 149.366 303.51 141.526 304.21L139.746 303.79ZM121.246 304.31C119.176 294.55 107.196 298.46 100.096 296.57C89.742 293.41 79.848 297.25 69.602 298.66C65.522 300.62 56.826 296.84 55.47 301.42C65.814 301.48 76.163 300.2 86.42 299.06C89.023 302.13 76.8 299.81 83.702 302.93C84.37 304.37 89.01 299.75 90.996 303.4C100.256 303.93 109.496 301.62 118.746 302.3C119.246 304.76 111.436 304.63 118.956 304.72L120.146 304.65L121.246 304.31ZM131.676 300.29C136.486 295.06 129.346 291.62 127.626 297.49C121.056 293.45 137.576 286.02 130.536 285.22C127.546 291.9 129.496 282.06 129.516 279.68C130.936 277.14 127.786 276.3 129.416 273.49C121.336 274.97 121.226 288.3 121.476 295.44C121.816 300.03 127.936 304.08 131.676 300.29ZM30.646 298.98C38.156 299.14 39.389 293.89 38.589 287.6C39.9 280.83 52.649 282.89 47.418 288.77C40.754 281.88 42.007 302.17 48.816 294.13C49.012 284.64 58.787 278.07 52.078 268.63C49.323 263 52.608 252.68 47.432 249.74C38.23 248.33 29.395 244.09 22.176 238.25C14.159 239.6 13.03 251.21 10.638 257.95C10.265 265.77 11.648 275.11 16.792 281.06C22.149 285.77 20.406 292.29 23.147 298.6C24.41 301.86 28.352 299.39 30.646 298.98ZM49.438 298.18C44.99 297.44 50.002 300 49.438 298.18V298.18ZM75.336 294.06C71.937 292.67 66.03 297.64 72.878 295.56C73.154 295.22 75.913 294.93 75.336 294.06ZM66.697 294.95C62.38 291.43 80.995 289.93 73.465 289.41C68.334 293.92 65.131 285.3 71.592 288.18C73.159 284.86 65.302 285.81 72.927 284.16C80.138 280.02 61.61 284.53 58.062 283.65C52.791 282.25 60.017 290.55 54.594 286.31C49.697 284.39 51.483 298.75 57.531 292.4C62.635 289.23 64.859 294.63 59.114 295.54C61.56 295.79 64.481 296.16 66.697 294.95ZM62.25 288.36C66.201 282.63 66.498 293.88 62.25 288.36V288.36ZM58.719 287.81C57.746 282.93 63.545 290.2 58.719 287.81V287.81ZM117.27 291.13C117.71 280.17 123.46 270.47 126.07 260.07C127.24 249.03 123.55 235.82 113.23 230.26C105.02 230.77 101.08 242.09 92.64 244.08C83.942 247.39 74.684 249.19 65.372 249.2C62.769 254.81 60.075 260.59 59.971 266.89C56.391 264.89 59.608 255.55 62.283 251.69C65.605 247.9 53.506 249.72 55.625 254.36C55.847 260.47 54.913 269.99 59.765 273.66C61.776 269.8 66.585 265.92 68.973 264.29C70.611 274.97 68.963 251.8 71.495 261.87C70.317 265.66 74.505 273.5 75.99 265.77C77.12 261.8 71.104 253.95 73.998 252.56C80.142 258.98 76.592 267.95 76.709 274.46C79.363 284.55 90.033 278.47 96.12 275.41C101.18 273.15 102.05 261.3 108.97 269.77C113.64 276.13 106.33 283.23 100.2 278.28C95.46 279.97 86.594 281.57 84.772 285.61C85.243 296.2 97.83 292.82 105.04 294.71C108.96 294.32 119.13 298.94 117.27 291.13ZM152.21 292.72C147.32 280.52 153.73 302.65 152.21 292.72V292.72ZM135.25 288.8C132.65 285.45 133.37 293.8 135.25 288.8V288.8ZM79.25 287.3C76.476 285.16 76.879 291.11 79.25 287.3V287.3ZM143.96 282.02C144.88 278.88 141.92 265.25 142.81 275.61C143.56 278.86 140.21 288.78 143.74 287.41C143.87 285.62 143.9 283.82 143.96 282.02ZM81.75 285.86C78.791 282.47 81.314 289.33 81.75 285.86V285.86ZM78.25 284.86C75.538 281.17 77.295 288.05 78.25 284.86V284.86ZM67.852 278.18C72.428 276.78 73.968 273.38 68.245 276.27C65.164 279.02 55.76 280.92 64.045 276.69C55.582 274.66 58.562 285.1 65.582 279.18L66.678 278.71L67.852 278.18ZM71.221 279.9C75.552 275.97 61.375 282.09 69.595 280.54L71.221 279.9ZM107.08 275.48C107.26 271.49 101.59 269.02 105.09 273.73C102.02 276.99 105.58 279.83 107.08 275.48ZM8.76601 269.93C5.27201 260.56 7.85801 277.17 9.07001 272.09L8.97601 271.1L8.76601 269.93ZM134.846 271.13C132.796 271.77 136.286 275.9 134.846 271.13V271.13ZM70.746 271.36C67.636 267.12 59.467 275.08 68.299 272.44C69.045 272.13 70.33 272.27 70.746 271.36ZM130.246 267.74C127.476 266.01 128.646 272.31 130.246 267.74V267.74ZM7.74601 263.86C4.78701 260.47 7.31001 267.33 7.74601 263.86V263.86ZM138.246 263.3C135.476 261.16 135.876 267.11 138.246 263.3V263.3ZM8.24601 258.8C5.64401 255.45 6.37001 263.8 8.24601 258.8V258.8ZM130.246 256.8C127.786 250.4 127.936 264.44 130.246 256.8V256.8ZM8.74601 254.86C4.97901 251.53 7.22101 258.36 8.74601 254.86V254.86ZM129.846 250.13C126.236 249.72 131.436 255.26 129.846 250.13V250.13ZM129.706 246.79C126.936 243.79 129.316 251.71 129.706 246.79V246.79ZM69.246 245.13C74.97 244.27 62.247 243.34 69.215 242.68C73.128 242.77 82.968 238.75 83.197 241.18C81.842 242.1 70.382 243.52 74.629 243.67C81.244 244.01 88.29 242.46 93.866 239.14C90.816 240.16 81.085 241.47 89.015 238.63C93.366 239.47 103.076 232.17 93.396 235.07C74.136 240.51 53.854 241.06 33.996 240.01C23.466 238.47 38.039 245.67 41.928 245.08C50.935 246.36 60.269 246.91 69.246 245.13ZM129.246 243.86C126.556 239.83 126.886 247.75 129.246 243.86V243.86ZM128.246 240.3C125.476 238.16 125.876 244.11 128.246 240.3V240.3ZM57.434 237.18C52.986 236.44 57.998 239 57.434 237.18V237.18ZM76.434 236.18C71.986 235.44 76.998 238 76.434 236.18V236.18ZM81.746 232.9C87.133 232.35 97.846 230.86 97.526 225.41C85.476 227.32 73.312 229.93 61.031 229.04C59.005 226.85 70.508 226.94 73.585 226.98C82.245 226.48 91.036 225.34 99.346 222.96C100.976 218.41 89.31 223.68 86.319 222.83C81.993 221.99 72.102 226.17 70.687 223.2C77.937 217.58 60.91 222.16 57.432 221C48.436 220.65 39.556 222.69 30.591 221.15C25.422 221.4 13.029 215.74 19.431 225.68C21.838 234.57 31.738 234.3 39.182 234.66C53.371 235.47 67.66 234.73 81.746 232.9ZM89.246 228.86C92.606 227.43 97.666 228.22 91.596 229.46C89.779 229.79 84.428 229.95 88.988 228.94L89.246 228.86ZM59.746 224.86C64.733 228.91 66.261 220.91 59.746 224.86V224.86ZM100.246 228.3C97.476 226.16 97.876 232.11 100.246 228.3V228.3ZM102.246 225.36C94.966 230 104.236 220.09 102.246 225.36V225.36ZM106.246 223.8C103.766 227.54 103.836 221.45 106.246 223.8V223.8ZM104.246 220.67C100.886 225.66 101.156 218.39 104.246 220.67V220.67ZM109.486 220.44C114.256 216.21 101.296 223.35 108.696 220.37L109.486 220.44ZM87.447 219.77C92.026 218.55 105.116 216.15 104.506 214.16C96.166 216.74 87.322 217.86 79.125 220.71C81.91 220.86 84.709 220.26 87.447 219.77ZM76.941 217.9C89.565 216.77 102.246 214.1 113.776 208.81C108.416 207.03 100.146 212.4 93.476 212.84C83.578 215.11 73.453 216.02 63.398 217.19C58.275 221.61 71.079 218.06 73.802 218.22C74.848 218.11 75.894 218 76.941 217.9ZM39.746 217.35C36.533 216.01 20.855 216.71 32.317 217.73C34.735 217.7 37.485 217.99 39.746 217.35ZM55.496 217.14C52.036 216.47 44.668 217.64 52.246 217.54C52.28 217.52 58.477 217.56 55.496 217.14ZM69.79 213.79C62.943 212.16 54.851 213.89 47.546 214.02C37.886 214.91 54.369 214.89 57.529 214.86C61.588 214.63 65.899 215.12 69.79 213.79ZM39.246 212.91C49.769 210.55 21.164 213.72 34.192 213.56C35.884 213.41 37.572 213.2 39.246 212.91ZM87.246 212.16C95.826 209.74 75.308 209.01 73.082 213.45C77.811 213.56 82.559 212.74 87.246 212.16ZM19.246 210.86C20.845 207.6 10.94 212.18 17.796 211.57L19.246 210.86ZM38.746 210.25C48.428 208.72 58.237 208.53 67.977 207.75C71.661 200.25 57.256 205.04 52.71 204.42C48.158 205.18 38.943 204.41 37.344 207.05C41.003 207.39 53.68 206.24 43.629 208.32C38.405 209.67 26.998 209.61 25.178 211.8C29.724 211.56 34.23 210.8 38.746 210.25ZM58.974 211.13C55.192 210.51 47.449 211.63 55.746 211.53C55.828 211.53 62.342 211.53 58.974 211.13ZM32.246 207.86C38.192 206.26 27.173 207.31 25.377 208.21C19.879 209.23 33.072 208.34 32.246 207.86ZM107.026 207.19C111.726 205.71 110.126 205.1 106.086 204.83C99.426 204.5 89.741 201.39 85.246 207.4C91.506 210.46 100.326 208.88 107.026 207.19ZM143.246 319.36C146.866 314.75 145.896 322.56 142.536 320.57L143.246 319.36ZM78.746 317.03C95.136 314.03 111.976 314.34 128.536 312.51C131.906 311.07 138.746 313.54 131.576 313.9C113.956 314.79 96.396 317.07 78.768 317.57L78.495 317.36L78.746 317.03ZM175.716 314.7C174.696 311.64 178.256 305.23 179.386 311.72C182.146 304.88 184.736 318.35 184.526 309.52C186.986 307.49 185.416 315.28 188.976 311.48C190.086 317.07 188.306 318.71 185.536 315.15C183.946 319.72 177.516 309.64 178.026 317.51C176.616 317.71 175.986 315.71 175.716 314.7ZM171.686 313.11C170.966 309.17 176.456 302.03 174.306 309.95C174.646 313.1 170.666 320.99 171.686 313.11ZM190.796 312.61C188.696 307.95 193.506 301.16 195.136 298.52C195.556 304.03 189.446 308.86 192.926 313.73C192.056 314.14 191.056 313.44 190.796 312.61ZM194.716 310.81C193.746 305.93 199.536 313.2 194.716 310.81V310.81ZM152.846 306.02C153.816 299.56 157.136 308.26 152.846 306.02V306.02ZM180.246 305.86C182.606 309.75 182.936 301.83 180.246 305.86V305.86ZM179.396 301.31C181.506 295.31 183.736 303.18 179.496 302.51L179.396 301.31ZM156.826 300.67C156.786 297.22 152.106 288.04 154.526 287.46C155.436 289.44 160.686 302.93 156.826 300.67ZM187.806 298.61C189.916 290.89 191.066 302.5 187.596 300.22L187.806 298.61ZM309.796 298.98C313.516 297.92 325.996 295.64 324.976 299.16C320.196 299.89 314.096 300.56 309.796 298.98ZM162.746 294.86C164.266 298.36 166.516 291.53 162.746 294.86V294.86ZM158.346 293.27C157.186 289.31 157.456 282.22 159.616 290.28C163.336 290.87 157.846 297.07 158.346 293.27ZM192.996 294.29C191.396 290.22 192.716 279.52 193.946 289.63C193.836 290.45 194.726 294.97 192.996 294.29ZM181.246 288.92C183.596 283.38 183.976 292.84 181.246 288.92V288.92ZM149.376 279.47C147.566 276.58 146.936 269.7 149.856 276.52C151.556 278.93 153.256 288.16 149.856 280.59L149.376 279.47ZM262.166 284.67C260.386 282.06 260.076 268.37 262.506 277.33C264.126 278.87 265.076 284.21 262.166 284.67ZM264.976 278.61C263.196 269.39 269.596 280.74 266.056 281.6C265.386 280.75 265.166 279.65 264.976 278.61ZM152.276 274.23C152.496 269.05 157.716 270.04 153.776 274.42C153.066 275.88 151.906 276.4 152.276 274.23ZM268.916 274.19C266.456 270.5 270.286 266.19 270.996 272.43C272.206 274.37 270.296 275.69 268.916 274.19ZM149.246 270.07C152.376 272.98 153.886 261.62 149.246 270.07V270.07ZM270.286 266.93C265.926 258.43 277.456 269.67 271.296 268.29L270.286 266.93ZM147.246 266.91C146.726 263.73 153.216 257.39 150.086 264.36C150.266 265.16 147.936 269.94 147.246 266.91ZM182.296 266.31C182.306 263.95 186.466 254.54 184.776 261.62C184.926 262.53 182.696 270.86 182.296 266.31ZM144.246 263.48C144.136 259.95 151.436 250.53 148.226 259.12C147.366 260.17 146.336 265.08 144.246 263.48ZM270.756 259.87C267.126 253.56 277.636 264.64 270.756 259.87V259.87ZM270.196 253.77C266.926 246.43 280.326 258.91 271.636 255.25L270.806 254.58L270.196 253.77ZM249.796 253.95C249.876 248.8 254.436 256.18 249.796 253.95V253.95ZM268.246 248.61C262.046 246.91 273.866 245.78 274.116 249.6C272.226 250.24 270.026 249.24 268.246 248.61ZM266.486 244.2C264.166 238.28 277.876 246.82 268.116 244.57L266.486 244.2ZM263.556 239.41C266.066 235.33 274.416 240.65 266.726 240.56C265.846 240.35 263.826 240.66 263.556 239.41ZM259.806 237.95C259.406 232.76 272.166 232.8 264.336 236.73C262.966 237.2 261.326 238.72 259.806 237.95ZM257.246 234.53C258.476 230.26 266.556 230.26 260.326 234.5C259.436 235.27 257.216 236.93 257.246 234.53ZM144.246 201.42C146.136 205.95 147.296 195.56 144.246 201.42V201.42ZM152.246 191.86C154.606 195.75 154.936 187.83 152.246 191.86V191.86ZM164.246 178.86C168.286 174.72 170.486 182.76 164.246 178.86V178.86ZM153.246 173.86C155.606 177.75 155.936 169.83 153.246 173.86V173.86ZM160.246 171.86C162.566 168.55 163.786 175.52 160.246 171.86V171.86ZM117.996 161.78C112.546 154.47 126.136 164.72 117.996 161.78V161.78ZM150.246 131.86C151.296 128.61 152.766 135.33 150.246 131.86V131.86ZM182.246 84.05C185.016 86.927 186.786 78.196 182.246 84.05V84.05ZM195.276 75.36C195.836 68.313 199.096 73.216 195.456 76.697L195.276 75.36ZM186.746 74.86C187.256 78.243 191.086 71.16 186.746 74.86V74.86ZM190.716 65.816C190.656 62.296 197.816 65.481 191.576 66.32L191.076 66.157L190.716 65.816ZM191.876 62.069C191.836 57.355 198.396 59.592 192.746 62.344L192.236 62.355L191.876 62.069ZM194.246 55.86C196.566 59.167 197.786 52.198 194.246 55.86V55.86ZM194.246 52.512C197.886 56.263 200.546 44.552 194.246 52.512V52.512ZM197.246 42.933C201.766 41.21 193.946 38.316 200.116 37.99C202.976 39.217 198.546 46.722 197.246 42.933ZM198.666 33.235C200.966 27.005 202.096 30.566 201.616 32.781C205.856 33.094 197.186 39.09 198.666 33.235ZM193.946 27.373C199.076 18.031 192.626 35.783 193.366 28.727L193.946 27.373ZM200.216 24.738C195.266 30.862 208.966 20.622 200.216 24.738V24.738ZM198.886 23.095C199.036 18.376 206.436 18.507 200.706 22.725C200.246 22.964 199.426 23.678 198.886 23.095ZM199.246 16.715C199.506 9.26199 206.466 12.756 201.246 17.36C200.196 18.951 198.696 18.937 199.246 16.715ZM193.246 14.071C192.776 9.75499 203.716 0.987988 198.056 8.43199C196.406 9.94399 195.256 13.582 193.246 14.071Z" fill="#121211"/>
</g>
</g>
<defs>
<clipPath id="clip0_1_2">
<rect width="325.04" height="339.77" fill="white"/>
</clipPath>
</defs>
</svg>
