<svg width="50" height="40" viewBox="0 0 470 484" fill="none" xmlns="http://www.w3.org/2000/svg">
<g id="stand" class="stand">
<path id="path3396" d="M194.74 482.69C122.37 478.808 106.14 476.79 89.98 469.661C80.131 465.316 72.692 463.868 60.011 463.826C47.297 463.785 44.283 462.819 32.299 454.951C18.69 446.016 0.240997 426.127 0.240997 420.39C0.240997 418.497 1.76729 416.057 5.26489 412.359C9.97459 407.379 10.2192 406.867 9.175 404.169C7.0769 398.748 7.7356 390.826 10.9523 382.791C13.6824 375.972 14.2291 375.263 16.9746 374.987C19.3186 374.751 21.0554 375.601 24.7367 378.787C32.9313 385.88 35.5197 382.858 34.5814 367.291C33.0285 341.517 39.4703 297.437 46.4894 285.806C57.6664 267.286 101.423 227.895 123.051 216.883C137.32 209.619 173.184 203.748 194.39 205.205C211.287 206.367 231.785 212.301 243.167 219.326C250.502 223.853 251.951 223.522 261.18 215.209C270.165 207.117 272.082 205.879 277.941 204.384C281.488 203.48 283.146 202.406 284.454 200.165C287.138 195.571 288.391 183.453 288.574 160.325C288.768 135.85 288.663 135.458 278.496 122.791C263.38 103.958 253.928 86.762 252.143 74.848C250.582 64.429 251.34 10.142 253.091 6.98801C255.387 2.85051 260.104 0.799402 267.332 0.795202C279.304 0.788202 289.6 7.93719 298.781 22.6302C305.048 32.6602 310.119 38.7912 312.148 38.7912C314.42 38.7912 315.184 36.2478 315.304 28.2912C315.501 15.2812 318.935 11.0832 330.218 10.0592C335.923 9.54194 336.313 9.65584 339.119 12.6603C343.138 16.962 355.049 41.4033 361.113 57.7913C370.632 83.5123 373.659 97.0463 374.82 119.07C375.51 132.146 376.27 133.791 381.628 133.791C387.102 133.791 396.194 135.812 404.915 138.968C415.759 142.892 421.168 147.787 429.901 161.579C433.631 167.471 438.806 175.24 441.399 178.844C443.993 182.448 447.04 187.744 448.171 190.614C452.083 200.539 455.109 205.442 459.584 209.109C465.183 213.696 467.874 217.98 469.281 224.542C470.8 231.626 469.678 234.805 461.749 245.874C450.84 261.103 446.09 265.436 437.241 268.229C433.116 269.531 424.791 271.382 418.741 272.342C402.346 274.943 401.08 275.378 397.991 279.47C394.477 284.125 394.507 287.857 398.1 293.111C403.57 301.108 404.241 303.203 404.241 312.3C404.241 324.403 402.542 334.157 399.031 342.218C396.615 347.763 395.819 351.451 395.037 360.718C393.852 374.748 392.118 381.271 387.923 387.473C384.395 392.69 378.822 396.034 370.741 397.784C358.8 400.369 353.229 405.649 353.258 414.353C353.288 423.26 355.627 425.88 375.119 438.834C384.672 445.182 393.554 451.616 394.857 453.131C399.991 459.099 398.532 464.448 390.84 467.85C384.463 470.671 363.797 473.054 349.741 472.59C335.341 472.114 331.74 470.737 315.406 459.46C309.54 455.41 301.591 450.193 297.741 447.867C293.891 445.541 288.842 441.477 286.52 438.836C284.169 436.161 281.144 433.813 279.692 433.536C275.833 432.798 269.928 434.401 258.741 439.222C251.305 442.427 246.857 443.697 241.395 444.177C228.222 445.333 227.416 447.547 235.74 459.702C243.106 470.457 242.975 473.124 234.806 478.745C231.673 480.901 228.43 482.06 223.571 482.763C216.086 483.845 216.305 483.845 194.741 482.689L194.74 482.69Z" fill="black"/>
</g>
</svg>
