<?xml version="1.0" encoding="utf-8"?>
<!-- Generator: Adobe Illustrator 27.5.0, SVG Export Plug-In . SVG Version: 6.00 Build 0)  -->
<svg version="1.1" xmlns="http://www.w3.org/2000/svg" xmlns:xlink="http://www.w3.org/1999/xlink" x="0px" y="0px"
	 viewBox="0 0 500 500" style="enable-background:new 0 0 500 500;" xml:space="preserve">
<g id="BACKGROUND">
	<rect style="fill:#FFFFFF;" width="500" height="500"/>
</g>
<g id="OBJECTS">
	<path d="M69.348,218.071c-3.757-1.184-6.306-5.302-5.681-9.181c0.039-0.243-0.124-0.473-0.367-0.516
		c-0.243-0.041-0.474,0.118-0.52,0.36c-0.512,2.698-1.39,4.675-2.686,6.044c-1.601,1.693-3.998,2.356-5.827,1.613
		c-0.228-0.092-0.487,0.015-0.584,0.242c-0.096,0.226,0.007,0.488,0.232,0.588c4.37,1.939,7.47,6.229,7.713,10.674
		c0.013,0.239,0.211,0.426,0.45,0.426h0.008c0.242-0.004,0.438-0.2,0.442-0.442c0.04-2.269,0.464-4.098,1.293-5.588
		c1.184-2.103,3.342-3.444,5.367-3.338c0.221,0.014,0.427-0.146,0.467-0.37C69.696,218.358,69.564,218.14,69.348,218.071z
		 M63.036,221.849c-0.49,0.88-0.85,1.862-1.083,2.962c-0.937-2.875-2.929-5.483-5.557-7.246c1.563-0.143,3.157-0.904,4.353-2.168
		c0.878-0.928,1.578-2.095,2.113-3.532c0.551,2.639,2.269,5.05,4.624,6.374C65.712,218.711,64.071,220.011,63.036,221.849z
		 M58.036,232.304c-3.468-0.115-6-3.337-6.709-6.459c-0.053-0.234-0.277-0.382-0.516-0.344c-0.236,0.041-0.399,0.259-0.371,0.497
		c0.218,1.83-0.393,3.745-1.636,5.123c-1.232,1.375-3.03,2.196-4.918,2.155c-0.212,0.014-0.447,0.189-0.456,0.433
		c-0.01,0.244,0.178,0.451,0.421,0.467c3.494,0.221,6.498,2.956,6.987,6.361c0.032,0.223,0.223,0.386,0.446,0.386
		c0.008,0,0.016,0,0.024-0.001c0.233-0.012,0.418-0.2,0.427-0.433c0.065-1.689,0.511-3.225,1.29-4.441
		c1.144-1.791,3.095-2.889,4.983-2.845c0.249,0.027,0.457-0.186,0.465-0.435C58.479,232.52,58.284,232.312,58.036,232.304z
		 M52.264,235.564c-0.517,0.807-0.902,1.737-1.143,2.75c-0.921-2.062-2.689-3.715-4.824-4.52c1.213-0.406,2.323-1.118,3.176-2.072
		c0.882-0.978,1.484-2.194,1.753-3.477c0.939,1.937,2.5,3.655,4.489,4.467C54.351,233.238,53.109,234.24,52.264,235.564z"/>
	<path d="M185.24,183.695c-0.074-0.215-0.298-0.341-0.519-0.295c-1.372,0.289-2.939-0.321-3.998-1.556
		c-0.912-1.055-1.47-2.511-1.658-4.328c-0.025-0.235-0.237-0.437-0.463-0.403c-0.236,0.007-0.426,0.196-0.435,0.432
		c-0.063,1.594-0.175,3.136-0.846,4.486c-0.582,1.187-1.838,2.357-3.302,2.271c-0.006,0-0.011,0-0.017-0.001
		c-0.241-0.004-0.46,0.178-0.473,0.425c-0.014,0.248,0.176,0.46,0.424,0.474l0.02,0.001c1.525,0.086,3.084,0.989,4.072,2.361
		c1.014,1.409,1.445,3.154,1.733,4.676c0.041,0.215,0.229,0.366,0.442,0.366c0.022,0,0.045-0.002,0.068-0.005
		c0.239-0.036,0.407-0.256,0.381-0.496c-0.358-3.167,1.469-6.472,4.342-7.858C185.214,184.147,185.313,183.911,185.24,183.695z
		 M179.959,189.346c-0.287-0.8-0.665-1.589-1.184-2.31c-0.735-1.021-1.749-1.818-2.856-2.284c0.983-0.519,1.763-1.415,2.209-2.324
		c0.329-0.663,0.538-1.367,0.674-2.087c0.312,0.798,0.725,1.496,1.238,2.089c0.856,0.999,2.005,1.655,3.18,1.866
		C181.602,185.534,180.434,187.363,179.959,189.346z"/>
	<path d="M143.446,82.129c-0.703-2.499-1.818-4.444-3.313-5.78c-0.93-0.831-2.062-1.425-3.214-1.718
		c-0.061-0.243-0.127-0.471-0.205-0.673c-0.623-1.637-1.893-3.12-3.576-4.175c-2.268-1.433-5.091-1.975-7.744-1.485
		c-0.245,0.045-0.406,0.28-0.361,0.525c0.045,0.244,0.278,0.409,0.525,0.361c2.431-0.448,5.021,0.047,7.101,1.362
		c1.52,0.952,2.661,2.277,3.215,3.735c0.02,0.051,0.036,0.11,0.055,0.164c-0.774-0.075-1.539-0.008-2.241,0.205
		c-1.512,0.453-2.668,1.543-3.016,2.844c-0.424,1.551,0.453,3.273,1.88,3.687c0.239,0.067,0.476,0.098,0.71,0.098
		c1.242,0,2.378-0.872,2.988-1.82c0.7-1.09,0.995-2.46,0.848-3.843c0.873,0.287,1.721,0.767,2.436,1.406
		c1.365,1.22,2.39,3.021,3.046,5.352c1.15,4.089,0.607,8.101-1.452,10.734c-0.153,0.196-0.118,0.479,0.077,0.632
		c0.082,0.064,0.18,0.095,0.277,0.095c0.134,0,0.266-0.059,0.355-0.173C144.071,90.804,144.673,86.493,143.446,82.129z
		 M135.491,78.971c-0.569,0.883-1.677,1.633-2.694,1.343c-0.953-0.276-1.552-1.507-1.257-2.585c0.265-0.988,1.209-1.858,2.407-2.217
		c0.443-0.134,0.903-0.201,1.379-0.201c0.274,0,0.553,0.022,0.836,0.067C136.375,76.672,136.136,77.967,135.491,78.971z
		 M120.941,58.076c-0.265-0.32-0.548-0.518-0.857-0.603c-0.476-0.144-1.022-0.026-1.537,0.336c-0.952,0.685-1.486,1.933-1.43,3.339
		c0.009,0.224,0.032,0.445,0.065,0.664c-0.368-0.402-0.762-0.775-1.179-1.114c-1.125-0.908-2.196-1.203-3.099-0.851
		c-0.858,0.345-1.441,1.317-1.417,2.37c0.027,0.786,0.361,1.601,0.993,2.42c1.227,1.6,2.982,2.6,4.68,3.567
		c1.099,0.626,2.236,1.274,3.199,2.072c0.082,0.068,0.184,0.104,0.288,0.104c0.059,0,0.118-0.011,0.175-0.035
		c0.155-0.065,0.26-0.211,0.274-0.379c0.112-1.372,0.24-2.701,0.368-4.024l0.109-1.129c0.135-1.338,0.273-2.722,0.199-4.118
		C121.721,59.885,121.579,58.856,120.941,58.076z M120.677,64.725l-0.109,1.13c-0.102,1.061-0.205,2.125-0.3,3.212
		c-0.85-0.615-1.768-1.137-2.661-1.646c-1.695-0.965-3.296-1.878-4.412-3.333c-0.515-0.668-0.787-1.308-0.807-1.897
		c-0.015-0.68,0.335-1.301,0.848-1.507c0.146-0.057,0.297-0.082,0.45-0.082c0.618,0,1.271,0.409,1.75,0.796
		c1.045,0.849,1.94,1.939,2.589,3.151c0.113,0.21,0.367,0.297,0.586,0.197c0.216-0.1,0.317-0.351,0.231-0.573
		c-0.367-0.936-0.782-1.998-0.826-3.061c-0.043-1.085,0.361-2.071,1.052-2.568c0.272-0.191,0.555-0.267,0.765-0.204
		c0.135,0.037,0.27,0.139,0.412,0.311c0.475,0.579,0.585,1.428,0.628,2.099C120.944,62.07,120.808,63.419,120.677,64.725z"/>
	<path d="M343.584,51.912c-0.217-1.099-1.058-2.088-2.252-2.645c-0.667-0.309-1.381-0.461-2.051-0.537
		c1.164-0.946,2.451-2.235,3.168-3.884c0.792-1.834,0.848-4.447-0.812-6.151c-0.808-0.825-1.992-1.377-3.428-1.598
		c-2.708-0.398-5.603,0.549-7.559,2.466c-1.587,1.563-2.54,3.766-2.65,5.999c-0.547-0.678-1.208-1.316-2.063-1.686
		c-2.034-0.879-4.381,0.16-5.802,1.581c-2.647,2.646-3.204,7.055-1.528,10.363c-0.745-0.28-1.504-0.423-2.246-0.416
		c-1.45,0.011-2.821,0.624-3.668,1.641c-0.898,1.089-1.256,2.691-1.008,4.508c0.278,2.054,1.248,4.031,2.677,5.545h-0.02
		c-1.647,0-3.348,0.874-4.235,2.339c-1.152,1.894-0.96,4.525,0.466,6.396c1.196,1.589,3.222,2.599,5.369,2.722
		c-0.777,5.106-0.658,9.206,0.386,12.849c0.056,0.197,0.237,0.326,0.433,0.326c0.04,0,0.083-0.006,0.124-0.017
		c0.239-0.068,0.377-0.318,0.309-0.557c-1.014-3.54-1.121-7.549-0.347-12.588c3.109-0.031,5.88-0.408,8.668-1.204
		c1.331-0.383,3.006-0.994,4.161-2.326c1.034-1.193,1.567-3.273,0.514-4.778c-0.413-0.59-0.978-0.988-1.619-1.296
		c1.616-0.349,3.208-0.831,4.749-1.439c0.96-0.379,1.958-0.83,2.759-1.564c0.915-0.836,1.428-1.963,1.371-3.015
		c-0.067-1.19-0.836-2.335-2.055-3.062c-0.449-0.271-0.93-0.474-1.423-0.635c2.36-0.529,4.832-1.245,6.967-2.646
		C342.473,55.6,343.975,53.842,343.584,51.912z M340.445,55.847c-2.585,1.696-5.775,2.349-8.589,2.925
		c-0.21,0.043-0.361,0.229-0.36,0.443c0.001,0.215,0.153,0.398,0.364,0.44c1.102,0.215,2.166,0.453,3.072,0.999
		c0.949,0.566,1.569,1.462,1.618,2.339c0.041,0.785-0.362,1.645-1.08,2.301c-0.655,0.6-1.466,0.99-2.482,1.391
		c-1.98,0.782-4.046,1.348-6.139,1.685c-0.206,0.033-0.361,0.202-0.377,0.41c-0.017,0.207,0.112,0.399,0.31,0.463
		c1.089,0.354,2.112,0.737,2.67,1.532c0.79,1.132,0.355,2.737-0.457,3.672c-0.779,0.9-1.93,1.532-3.728,2.05
		c-2.658,0.758-5.306,1.123-8.266,1.164c0.623-3.589,1.57-7.116,2.838-10.489c3.168-8.436,8.039-15.175,14.09-19.491
		c0.203-0.145,0.25-0.426,0.106-0.629c-0.144-0.202-0.427-0.248-0.628-0.105c-6.198,4.42-11.18,11.304-14.41,19.907
		c-1.304,3.469-2.276,7.098-2.908,10.807c-1.923-0.082-3.738-0.968-4.797-2.374c-1.208-1.584-1.378-3.799-0.414-5.384
		c0.726-1.198,2.109-1.913,3.444-1.913c0.493,0,0.978,0.098,1.421,0.304c0.209,0.097,0.46,0.02,0.579-0.178
		c0.118-0.2,0.065-0.456-0.121-0.593c-1.943-1.423-3.297-3.701-3.621-6.092c-0.123-0.907-0.183-2.608,0.81-3.813
		c0.677-0.814,1.792-1.306,2.981-1.315c1.367-0.019,2.54,0.567,3.28,1.053c0.188,0.121,0.433,0.09,0.582-0.076
		c0.149-0.165,0.154-0.414,0.013-0.586c-2.457-3.004-2.215-7.859,0.529-10.602c1.206-1.206,3.156-2.104,4.808-1.391
		c1.126,0.488,1.918,1.647,2.553,2.578c0.118,0.172,0.34,0.24,0.532,0.167c0.194-0.074,0.313-0.272,0.287-0.479
		c-0.316-2.447,0.577-5.038,2.328-6.764c1.757-1.725,4.361-2.574,6.794-2.218c0.864,0.133,2.071,0.473,2.917,1.337
		c1.167,1.197,1.426,3.321,0.63,5.163c-0.837,1.929-2.594,3.353-3.841,4.255c-0.157,0.114-0.224,0.315-0.165,0.5
		c0.058,0.185,0.228,0.312,0.421,0.315c0.86,0.014,1.969,0.087,2.916,0.525c0.933,0.435,1.587,1.184,1.749,2.005
		C343.002,53.578,341.734,55.007,340.445,55.847z"/>
	<path d="M400.569,163.607c-1.047-2.286-2.962-3.985-5.124-4.545c-1.551-0.409-3.608-0.169-4.698,1.29
		c-0.385,0.512-0.645,1.176-0.771,1.98c-0.087,0.594-0.09,1.202-0.012,1.801c-0.509-0.495-1.067-0.938-1.662-1.315
		c-0.988-0.621-2.506-1.344-4.323-1.294c-1.658,0.042-3.193,0.792-4.106,2.01c-1.618,2.174-0.858,5.374,0.813,7.211
		c1.83,2.001,4.484,2.86,6.592,3.385c0.295,0.073,0.59,0.143,0.887,0.213c1.34,0.317,2.726,0.645,3.932,1.28
		c1.918,1.003,3.483,2.849,4.41,5.198c0.06,0.152,0.197,0.26,0.359,0.281c0.02,0.003,0.04,0.004,0.06,0.004
		c0.141,0,0.275-0.066,0.361-0.181c2.386-3.196,3.843-6.837,4.212-10.529C401.763,167.797,401.449,165.511,400.569,163.607z
		 M400.604,170.307c-0.33,3.286-1.563,6.535-3.579,9.441c-1.03-2.197-2.611-3.928-4.509-4.921c-1.306-0.688-2.749-1.029-4.143-1.359
		c-0.293-0.069-0.586-0.138-0.876-0.211c-1.985-0.494-4.478-1.295-6.144-3.117c-1.424-1.567-2.097-4.264-0.756-6.065
		c0.748-0.997,2.021-1.613,3.409-1.648c0.056-0.002,0.112-0.003,0.168-0.003c1.49,0,2.801,0.624,3.649,1.158
		c1.142,0.724,2.138,1.714,2.88,2.864c0.131,0.202,0.398,0.265,0.605,0.145c0.208-0.121,0.284-0.385,0.173-0.598
		c-0.568-1.086-0.786-2.339-0.611-3.523c0.102-0.651,0.303-1.181,0.6-1.574c0.84-1.124,2.487-1.292,3.751-0.96
		c1.903,0.493,3.597,2.006,4.532,4.05C400.563,165.741,400.85,167.868,400.604,170.307z"/>
	<path d="M473.951,316.928c-0.62-4.674-3.357-9.057-7.245-11.709c2.916-0.743,5.362-3.583,5.715-6.874
		c0.351-3.291-1.142-6.804-3.991-9.397c-4.051-3.694-10.079-4.887-15.223-3.074c0.079-0.186,0.193-0.379,0.315-0.587
		c0.143-0.242,0.283-0.486,0.384-0.734c0.836-2.026-0.953-4.234-3.088-5.118c-2.281-0.948-5.045-1.109-7.997-0.466
		c-2.529,0.544-5.057,1.386-7.518,2.504c-1.466-0.82-2.969-1.552-4.474-2.164c-1.895-0.78-4.404-1.666-7.058-1.584
		c-0.248,0.008-0.443,0.215-0.436,0.465c0.008,0.248,0.169,0.435,0.465,0.436c2.496-0.085,4.876,0.771,6.689,1.516
		c1.29,0.525,2.574,1.151,3.838,1.833c-6.16,3.308-10.033,10.503-9.278,17.471c0.274,2.501,1.057,4.587,2.327,6.2
		c1.507,1.927,3.704,3.097,5.903,3.02c1.378-0.027,2.665-0.501,3.845-1.165c-3.362,4.992-4.38,11.6-2.489,17.32
		c0.791,2.403,1.957,4.277,3.467,5.57c1.853,1.585,4.285,2.231,6.353,1.678c1.835-0.481,3.281-1.809,4.454-3.044
		c0.712-0.749,1.485-1.68,1.827-2.739c1.341,2.18,3.124,4.088,5.215,5.571c1.59,1.124,3.918,2.357,6.487,2.357
		c0.411,0,0.828-0.032,1.249-0.1c1.878-0.303,3.719-1.34,5.47-3.079C472.785,327.412,474.623,322.007,473.951,316.928z
		 M468.52,330.394c-1.614,1.604-3.29,2.556-4.979,2.83c-2.754,0.444-5.366-0.896-7.071-2.103c-2.355-1.67-4.301-3.907-5.625-6.469
		c-0.079-0.153-0.236-0.244-0.4-0.244c-0.044,0-0.088,0.006-0.132,0.019c-0.208,0.064-0.34,0.267-0.316,0.483
		c0.153,1.308-0.851,2.553-1.743,3.493c-1.086,1.144-2.414,2.37-4.032,2.794c-1.785,0.474-3.906-0.097-5.536-1.492
		c-1.384-1.184-2.459-2.922-3.198-5.168c-2.121-6.416-0.406-14.002,4.267-18.877c0.164-0.171,0.167-0.44,0.007-0.616
		c-0.161-0.175-0.429-0.194-0.614-0.047c-1.679,1.344-3.692,2.724-5.887,2.766c-1.863,0.058-3.863-0.992-5.178-2.675
		c-1.165-1.479-1.885-3.411-2.14-5.741c-0.738-6.807,3.176-13.846,9.337-16.856c6.066,3.454,11.39,8.456,15.404,14.488
		c4.787,7.198,7.761,15.85,8.6,25.021c0.021,0.233,0.218,0.409,0.448,0.409c0.014,0,0.028-0.001,0.042-0.002
		c0.247-0.023,0.43-0.242,0.407-0.49c-0.853-9.319-3.878-18.115-8.748-25.438c-3.969-5.966-9.204-10.933-15.162-14.441
		c2.215-0.961,4.477-1.704,6.741-2.191c1.932-0.421,4.795-0.693,7.46,0.418c1.514,0.626,3.26,2.345,2.601,3.945
		c-0.086,0.211-0.208,0.415-0.328,0.62c-0.307,0.522-0.654,1.113-0.515,1.816c0.025,0.132,0.11,0.246,0.229,0.31
		c0.119,0.064,0.259,0.07,0.385,0.019c4.893-2.024,11.057-0.941,14.98,2.637c2.639,2.4,4.023,5.629,3.702,8.635
		c-0.356,3.328-3.097,6.134-6.109,6.254c-0.201,0.009-0.372,0.149-0.42,0.343c-0.048,0.195,0.039,0.398,0.214,0.498
		c4.203,2.407,7.209,6.891,7.847,11.702C473.694,321.853,471.955,326.967,468.52,330.394z"/>
	<path d="M388.324,381.038c-0.102-0.161-0.291-0.242-0.482-0.198c-4.245,0.989-7.902,3.037-10.577,5.924
		c-1.708,1.837-2.966,4.032-3.676,6.38c-0.868-0.634-1.853-1.145-2.951-1.511c-1.83-0.605-3.918-0.817-6.385-0.661
		c-0.232,0.015-0.414,0.204-0.421,0.436c-0.105,3.539,0.768,7.219,2.527,10.64c0.85,1.655,1.706,2.831,2.698,3.7
		c1.665,1.458,3.779,2.134,5.624,2.602c0.908,0.235,1.911,0.447,2.917,0.447c0.601,0,1.202-0.076,1.785-0.266
		c0.139-0.045,0.234-0.154,0.279-0.282c2.809-1.612,5.971-3.614,8.417-6.301c2.838-3.112,4.357-6.784,4.279-10.338
		C392.275,387.775,390.37,384.261,388.324,381.038z M374.905,407.477c-1.744-0.442-3.732-1.074-5.254-2.407
		c-0.902-0.792-1.694-1.883-2.491-3.434c-1.621-3.153-2.459-6.529-2.435-9.789c2.166-0.1,4.014,0.107,5.629,0.641
		c1.113,0.37,2.134,0.923,2.983,1.594c-0.315,1.34-0.448,2.669-0.381,3.952c0.151,3.17,1.448,6.158,3.522,8.335
		c-1.488-0.819-2.862-1.947-4.005-3.328c-1.811-2.189-3.095-4.914-4.128-7.102c-0.105-0.226-0.377-0.318-0.599-0.216
		c-0.225,0.107-0.322,0.375-0.215,0.599c1.294,2.744,2.507,5.188,4.248,7.292c1.608,1.944,3.646,3.423,5.84,4.281
		C376.721,407.901,375.797,407.708,374.905,407.477z M387.414,401.341c-2.28,2.503-5.124,4.348-7.906,5.956
		c-0.169-1.138-0.005-2.346,0.223-3.589c0.865-4.657,2.011-9.559,4.531-13.86c0.126-0.215,0.054-0.491-0.161-0.617
		c-0.216-0.125-0.492-0.054-0.617,0.161c-2.59,4.421-3.759,9.415-4.639,14.153c-0.214,1.167-0.381,2.312-0.29,3.436
		c-2.743-2.019-4.527-5.366-4.699-8.991c-0.067-1.289,0.074-2.629,0.419-3.98c0.627-2.445,1.889-4.739,3.651-6.633
		c2.45-2.645,5.923-4.621,9.81-5.585c1.91,3.038,3.646,6.327,3.722,9.837C391.531,394.951,390.094,398.4,387.414,401.341z"/>
	<path d="M303.669,440.672c-0.225,0-0.42-0.169-0.446-0.398c-0.197-1.667-0.57-3.52-1.848-4.631
		c-1.047-0.919-2.546-1.199-4.119-1.425c-0.232-0.033-0.4-0.24-0.385-0.475c0.015-0.234,0.207-0.418,0.442-0.421
		c1.45-0.023,2.901-0.899,3.789-2.287c0.998-1.561,1.105-3.348,1.02-4.571c-0.017-0.238,0.155-0.448,0.391-0.479
		c0.228-0.036,0.455,0.128,0.5,0.362c0.331,1.725,0.918,3.812,2.54,4.657c0.909,0.463,2.057,0.463,3.071,0.463
		c0.212,0,0.395,0.148,0.44,0.355c0.045,0.207-0.061,0.418-0.253,0.506c-2.906,1.324-4.879,4.633-4.691,7.868
		c0.014,0.244-0.167,0.454-0.41,0.475C303.696,440.672,303.682,440.672,303.669,440.672z M299.424,433.71
		c0.945,0.246,1.815,0.617,2.544,1.256c0.756,0.658,1.24,1.502,1.562,2.414c0.559-2.027,1.81-3.851,3.51-5.064
		c-0.647-0.063-1.297-0.203-1.9-0.51c-1.126-0.586-1.83-1.604-2.294-2.728c-0.172,0.807-0.478,1.648-0.986,2.444
		C301.242,432.489,300.382,433.246,299.424,433.71z"/>
	<path d="M227.267,363.821c0.034,0.008,0.069,0.011,0.103,0.011c0.205,0,0.39-0.14,0.438-0.348c0.313-1.338,0.66-2.559,1.06-3.732
		c0.08-0.236-0.045-0.491-0.281-0.572c-0.234-0.077-0.491,0.047-0.571,0.281c-0.41,1.202-0.764,2.451-1.084,3.817
		C226.874,363.522,227.024,363.764,227.267,363.821z M215.417,369.724c0.067,0,0.135-0.015,0.198-0.047
		c0.223-0.11,0.315-0.38,0.205-0.602c-0.874-1.775-1.507-3.666-1.88-5.623c-0.047-0.245-0.284-0.402-0.527-0.358
		c-0.244,0.047-0.405,0.282-0.358,0.527c0.389,2.036,1.047,4.005,1.957,5.852C215.091,369.631,215.251,369.724,215.417,369.724z
		 M233.194,370.019c-0.525-0.503-1.396-0.453-2.276,0.133c-0.632,0.427-1.199,0.949-1.683,1.543
		c0.054-0.448,0.089-0.874,0.106-1.288c0.033-0.843-0.201-1.405-0.694-1.674c-0.521-0.285-1.124-0.091-1.492,0.226
		c-0.343,0.297-0.523,0.686-0.678,1.056c-1.34,3.152-1.6,6.717-0.733,10.035c0.044,0.167,0.179,0.295,0.348,0.328
		c0.029,0.006,0.059,0.009,0.088,0.009c0.139,0,0.273-0.065,0.359-0.179c0.831-1.101,1.818-2.11,2.773-3.086
		c1.441-1.473,2.93-2.995,3.913-4.864C233.72,371.33,233.709,370.513,233.194,370.019z M232.429,371.837
		c-0.922,1.755-2.3,3.164-3.76,4.656c-0.76,0.777-1.54,1.574-2.257,2.431c-0.557-2.864-0.247-5.87,0.896-8.56
		c0.119-0.285,0.242-0.555,0.437-0.724c0.095-0.082,0.234-0.144,0.352-0.144c0.044,0,0.085,0.009,0.12,0.028
		c0.16,0.087,0.241,0.396,0.224,0.846c-0.046,1.087-0.223,2.275-0.556,3.737c-0.053,0.232,0.084,0.466,0.313,0.533
		c0.23,0.063,0.47-0.056,0.55-0.281c0.503-1.407,1.453-2.637,2.672-3.46c0.395-0.264,0.924-0.449,1.15-0.23
		C232.805,370.895,232.642,371.438,232.429,371.837z M220.869,360.181c-0.242-0.063-0.486,0.083-0.548,0.325
		c-0.503,1.983-0.683,4.007-0.535,6.016c0.017,0.237,0.215,0.417,0.449,0.417c0.011,0,0.022,0,0.033-0.001
		c0.248-0.019,0.435-0.235,0.416-0.483c-0.14-1.912,0.031-3.839,0.51-5.728C221.256,360.487,221.11,360.241,220.869,360.181z
		 M218.766,376.375c-1.143-0.652-2.455,0.122-3.232,0.98c-0.965,1.061-1.568,2.356-1.939,3.239
		c-0.513,1.235-0.906,2.523-1.174,3.836c-0.316-1.934-0.776-3.848-1.377-5.729c-0.362-1.133-0.941-2.487-2.214-2.893
		c-1.348-0.449-2.713,0.449-3.317,1.52c-0.606,1.064-0.664,2.299-0.635,3.476c0.214,8.205,4.113,15.807,7.553,22.515
		c0.07,0.137,0.207,0.229,0.361,0.243c0.013,0.001,0.026,0.002,0.04,0.002c0.14,0,0.273-0.065,0.358-0.178
		c2.633-3.46,4.123-7.747,5.313-11.493c1.341-4.198,2.669-9.061,1.447-13.656C219.778,377.585,219.487,376.784,218.766,376.375z
		 M217.645,391.619c-1.1,3.465-2.46,7.397-4.746,10.639c-3.309-6.462-6.918-13.738-7.12-21.476c-0.025-1.047,0.02-2.136,0.519-3.01
		c0.361-0.639,1.084-1.179,1.812-1.179c0.148,0,0.296,0.023,0.442,0.071c0.886,0.282,1.339,1.383,1.636,2.311
		c1.059,3.316,1.67,6.741,1.818,10.189c0.004,0.142,0.009,0.282,0.016,0.424c0.012,0.246,0.208,0.428,0.468,0.428
		c0.247-0.011,0.44-0.217,0.432-0.465c-0.004-0.14-0.01-0.28-0.015-0.42c-0.075-2.788,0.449-5.611,1.521-8.192
		c0.554-1.321,1.101-2.24,1.774-2.98c0.578-0.639,1.486-1.164,2.12-0.801c0.43,0.243,0.632,0.827,0.759,1.309
		C220.239,382.828,218.947,387.542,217.645,391.619z"/>
	<path d="M45.855,369.264c2.171,0,4.431-0.427,6.682-1.273c2.882-1.083,5.776-2.853,8.841-5.4c1.439,0.658,2.643,1.456,3.646,2.444
		c0.088,0.086,0.202,0.129,0.316,0.129c0.116,0,0.233-0.045,0.321-0.135c0.175-0.177,0.173-0.462-0.004-0.637
		c-1.126-1.109-2.474-1.995-4.1-2.714c-0.115-0.344-0.224-0.711-0.338-1.1c-0.402-1.38-0.858-2.944-1.829-4.273
		c-1.555-2.13-4.05-3.102-5.868-3.54c-6.043-1.478-12.31,0.5-18.181,2.856c-2.618,1.053-5.636,2.327-8.314,4.142
		c-0.448,0.298-0.926,0.68-1.07,1.254c-0.198,0.779,0.306,1.518,0.863,1.88c0.498,0.312,1.079,0.43,1.592,0.533l0.109,0.022
		c1.545,0.31,3.064,0.777,4.518,1.389c1.09,0.455,2.175,1.006,3.223,1.539c1.828,0.929,3.718,1.89,5.755,2.408
		C43.249,369.106,44.536,369.264,45.855,369.264z M33.386,364.011c-1.508-0.635-3.085-1.12-4.688-1.441l-0.109-0.022
		c-0.479-0.097-0.932-0.187-1.286-0.41c-0.293-0.189-0.559-0.568-0.474-0.9c0.069-0.277,0.39-0.522,0.698-0.727
		c2.608-1.766,5.573-3.019,8.148-4.054c4.378-1.757,8.972-3.299,13.481-3.299c1.395,0,2.782,0.148,4.152,0.483
		c1.673,0.404,3.96,1.287,5.354,3.197c0.878,1.202,1.31,2.685,1.692,3.993c0.04,0.138,0.084,0.271,0.124,0.406
		c-1.822-0.673-3.931-1.141-6.551-1.456c-5.088-0.611-10.213-0.595-15.234,0.045c-0.247,0.032-0.421,0.257-0.39,0.504
		c0.032,0.246,0.257,0.422,0.504,0.39c4.947-0.632,9.998-0.647,15.012-0.045c2.686,0.322,4.809,0.809,6.626,1.515
		c-2.854,2.324-5.551,3.953-8.226,4.958c-2.403,0.902-6.086,1.767-9.981,0.769c-1.942-0.494-3.786-1.432-5.57-2.339
		C35.606,365.037,34.506,364.479,33.386,364.011z M66.19,373.038c-2.62,0.248-5.209,0.917-7.702,1.976
		c-5.354-1.765-11.527,0.154-15.058,4.701c-3.465,4.475-3.897,11.015-1.052,15.903c0.158,0.275,0.637,1.109,1.48,1.109h0.023
		c0.454-0.014,0.811-0.267,1.11-0.501c4.402-3.423,9.88-7.683,12.23-13.637c0.86-2.17,1.266-4.497,1.648-6.756
		c2.399-1.017,4.889-1.659,7.406-1.897c0.248-0.024,0.43-0.244,0.406-0.491C66.657,373.196,66.43,373.021,66.19,373.038z
		 M56.382,382.256c-2.259,5.726-7.63,9.903-11.946,13.259c-0.187,0.147-0.402,0.304-0.577,0.31h-0.005
		c-0.208,0-0.448-0.227-0.696-0.66c-2.667-4.581-2.262-10.708,0.984-14.899c2.483-3.197,6.36-5.008,10.256-5.008
		c0.951,0,1.901,0.113,2.834,0.335c-4.424,2.139-8.252,5.459-10.852,9.475c-0.135,0.208-0.075,0.487,0.133,0.623
		c0.076,0.048,0.161,0.072,0.245,0.072c0.148,0,0.293-0.072,0.379-0.206c2.56-3.954,6.356-7.211,10.739-9.273
		C57.527,378.306,57.133,380.361,56.382,382.256z"/>
	<path d="M194.577,226.21c-0.895-0.027-1.745,0.168-2.518,0.552c-1.01,0.501-1.943,1.259-2.699,2.191
		c-1.451,1.792-1.727,3.982-0.737,5.856c1.127,2.151,3.074,3.66,5.209,4.036c0.351,0.062,0.706,0.092,1.059,0.092
		c2.037,0,4.036-0.999,5.201-2.67c1.372-1.968,1.444-4.748,0.177-6.759C199.048,227.549,196.814,226.254,194.577,226.21z
		 M199.353,235.752c-1.152,1.652-3.36,2.557-5.365,2.206c-1.861-0.328-3.569-1.661-4.567-3.568c-0.816-1.546-0.577-3.367,0.64-4.87
		c0.674-0.833,1.504-1.507,2.399-1.951c0.614-0.304,1.287-0.458,2.002-0.458c0.033,0,0.066,0,0.098,0.001
		c1.91,0.038,3.897,1.192,4.946,2.875C200.586,231.701,200.523,234.072,199.353,235.752z M224.19,245.978
		c-0.496-1.405-1.576-2.64-2.98-3.437c0.052-1.416-0.564-2.908-1.702-4.047c-0.698-0.697-1.563-1.26-2.639-1.72
		c-0.53-0.233-1.126-0.435-1.82-0.618c-1.169-0.314-2.287-0.453-3.341-0.443c0.693-2.671,0.158-5.565-1.481-7.692
		c-2.152-2.774-6.032-4.019-9.401-3.075c-0.764-3.521-3.225-6.577-6.521-8.056c-3.336-1.497-7.314-1.279-10.474,0.551
		c-2.352-2.473-6.007-3.945-9.862-3.952h-0.004c-3.326,0-6.895,1-10.61,2.972c-3.625,1.933-5.984,4.138-7.208,6.738
		c-0.062,0.127-0.12,0.256-0.178,0.386c-0.198,0.435-0.384,0.847-0.674,1.166c-0.63,0.701-1.693,0.909-2.721,1.11l-0.292,0.058
		c-6.994,1.43-12.841,7.042-14.549,13.967l-0.109,0.464c-0.181,0.781-0.351,1.518-0.727,2.152c-0.543,0.904-1.442,1.511-2.394,2.153
		c-0.321,0.216-0.641,0.433-0.947,0.66c-2.775,2.047-4.487,5.156-4.579,8.315c-0.098,3.181,1.566,6.413,4.363,8.517
		c-0.63,1.63-0.824,3.909,0.568,5.444c0.832,0.914,2.01,1.296,3.209,1.296c0.971,0,1.955-0.251,2.777-0.673
		c1.614-0.841,2.833-2.204,4.012-3.522l0.45-0.501c5.897-6.527,13.865-11.814,23.042-15.289c8.088-3.055,17.3-4.798,27.383-5.181
		l1.172-0.042c2.422-0.082,4.927-0.167,7.338-0.751c3.21-0.772,5.793-2.4,7.273-4.586c0.363-0.539,0.644-1.124,0.865-1.729
		c1.056-0.042,2.191,0.09,3.391,0.412c0.65,0.171,1.202,0.358,1.692,0.573c0.973,0.416,1.745,0.917,2.361,1.53
		c0.852,0.854,1.359,1.93,1.434,2.977c-0.759-0.282-1.465-0.345-2.099-0.172c-0.987,0.271-1.865,1.306-1.598,2.42
		c0.12,0.48,0.45,0.885,0.93,1.139c0.326,0.173,0.693,0.262,1.057,0.262c0.248,0,0.493-0.041,0.723-0.125
		c0.835-0.312,1.494-1.122,1.758-2.126c1.066,0.688,1.877,1.672,2.265,2.771c0.483,1.37,0.285,2.894-0.515,3.979
		c-0.148,0.2-0.105,0.482,0.095,0.63c0.08,0.059,0.174,0.088,0.267,0.088c0.138,0,0.274-0.063,0.363-0.183
		C224.525,249.469,224.771,247.625,224.19,245.978z M210.693,236.035c-0.204,0.64-0.499,1.247-0.875,1.805
		c-1.354,1.999-3.746,3.495-6.738,4.215c-2.322,0.563-4.78,0.646-7.157,0.727l-1.176,0.042c-10.179,0.387-19.488,2.149-27.667,5.239
		c-9.311,3.526-17.4,8.896-23.392,15.527l-0.453,0.504c-1.126,1.258-2.289,2.559-3.755,3.323c-1.53,0.786-3.707,0.89-4.906-0.428
		c-1.199-1.322-0.896-3.417-0.272-4.809c0.088-0.197,0.025-0.428-0.151-0.552c-2.729-1.923-4.366-4.975-4.274-7.967
		c0.083-2.843,1.697-5.762,4.214-7.619c0.297-0.22,0.606-0.429,0.916-0.638c0.991-0.669,2.016-1.361,2.663-2.438
		c0.448-0.756,0.643-1.597,0.831-2.411l0.106-0.453c1.626-6.593,7.194-11.938,13.853-13.299l0.287-0.057
		c1.118-0.219,2.386-0.467,3.216-1.39c0.383-0.424,0.608-0.919,0.826-1.398c0.056-0.123,0.111-0.246,0.171-0.37
		c1.141-2.422,3.371-4.493,6.818-6.33c3.583-1.902,7.01-2.866,10.186-2.866h0.004c3.743,0.007,7.273,1.475,9.443,3.926
		c0.146,0.165,0.389,0.2,0.576,0.083c2.956-1.85,6.769-2.113,9.949-0.687c3.135,1.406,5.529,4.503,6.099,7.89
		c0.022,0.131,0.101,0.245,0.215,0.313c0.115,0.067,0.253,0.081,0.378,0.037c3.123-1.095,6.859,0.006,8.886,2.62
		C211.072,230.592,211.534,233.519,210.693,236.035z M220.246,243.131c-0.132,0.627-0.528,1.392-1.239,1.657
		c-0.323,0.117-0.724,0.084-1.046-0.088c-0.146-0.077-0.401-0.253-0.478-0.558c-0.138-0.576,0.394-1.181,0.961-1.337
		c0.166-0.046,0.336-0.065,0.507-0.065c0.463,0,0.927,0.146,1.311,0.317C220.257,243.081,220.251,243.106,220.246,243.131z
		 M141.494,248.387c-0.479-0.162-0.993-0.216-1.537-0.159c-0.777,0.081-1.585,0.386-2.339,0.882c-1.069,0.704-1.804,1.83-1.965,3.01
		c-0.244,1.775,0.721,3.682,2.346,4.637c0.807,0.474,1.751,0.712,2.716,0.712c0.842,0,1.699-0.182,2.493-0.548
		c1.538-0.717,2.552-2.074,2.584-3.454c0.016-0.598-0.15-1.251-0.496-1.948C144.537,250.04,143.258,248.986,141.494,248.387z
		 M142.828,256.104c-1.438,0.663-3.114,0.616-4.374-0.124c-1.32-0.775-2.106-2.312-1.91-3.738c0.127-0.927,0.713-1.817,1.568-2.38
		c0.634-0.417,1.304-0.673,1.938-0.739c0,0,0,0,0,0c0.108-0.011,0.214-0.017,0.318-0.017c0.293,0,0.574,0.045,0.836,0.134
		c1.535,0.521,2.641,1.426,3.287,2.684c0.277,0.558,0.411,1.069,0.399,1.52C144.861,254.711,143.76,255.669,142.828,256.104z
		 M180.202,229.002c-0.811-1.598-2.081-2.865-3.571-3.566c-1.569-0.752-3.466-0.988-4.95-0.617
		c-1.374,0.345-3.314,1.103-4.763,2.755c-1.321,1.522-1.909,3.501-1.573,5.298c0.178,0.928,0.599,1.853,1.29,2.829
		c1.49,2.091,3.595,3.319,5.667,3.319c0.067,0,0.135-0.001,0.201-0.004c1.008-0.038,2.073-0.364,3.256-0.997
		c2.621-1.403,4.406-3.567,4.896-5.938c0.109-0.53,0.139-1,0.091-1.447C180.682,230.13,180.51,229.612,180.202,229.002z
		 M179.773,231.898c-0.435,2.108-2.053,4.05-4.438,5.326c-1.06,0.567-1.997,0.858-2.866,0.891c-1.821,0.078-3.738-1.027-5.099-2.937
		c-0.614-0.867-0.987-1.677-1.139-2.474c-0.286-1.527,0.226-3.224,1.366-4.538c1.294-1.476,3.055-2.159,4.303-2.473
		c1.289-0.322,2.952-0.109,4.344,0.557c1.313,0.618,2.433,1.741,3.154,3.16c0.259,0.515,0.404,0.94,0.454,1.328
		C179.889,231.085,179.864,231.454,179.773,231.898z M158.298,237.021c-1.627-1.042-3.862-1.184-5.835-0.368
		c-2.592,1.058-4.008,4.293-3.03,6.923c0.788,2.118,3.009,3.522,5.229,3.522c0.534,0,1.067-0.081,1.581-0.252
		c0.887-0.292,1.762-0.84,2.533-1.587c0.965-0.94,1.589-2.005,1.805-3.08C160.966,240.25,160.027,238.129,158.298,237.021z
		 M159.697,242.001c-0.18,0.896-0.716,1.799-1.55,2.612c-0.672,0.651-1.428,1.127-2.189,1.377c-2.172,0.726-4.882-0.573-5.682-2.729
		c-0.802-2.156,0.403-4.908,2.526-5.775c0,0,0.001,0,0.002-0.001c0.744-0.308,1.529-0.46,2.292-0.46
		c0.986,0,1.935,0.253,2.714,0.753C159.214,238.678,160.007,240.453,159.697,242.001z"/>
	<path d="M35.506,130.684c-0.102,0.227,0,0.493,0.226,0.595c0.06,0.027,0.122,0.04,0.184,0.04c0.172,0,0.336-0.099,0.411-0.266
		c1.235-2.75,4.221-4.613,7.2-4.571c0.263,0.01,0.454-0.193,0.459-0.442c0.005-0.248-0.193-0.454-0.442-0.459
		C40.184,125.532,36.884,127.614,35.506,130.684z M35.398,126.495c0.055,0.022,0.111,0.032,0.167,0.032
		c0.179,0,0.348-0.107,0.418-0.283c0.955-2.391,3.777-3.91,6.291-3.392c0.241,0.046,0.482-0.106,0.533-0.35
		c0.05-0.244-0.106-0.482-0.35-0.533c-2.97-0.614-6.183,1.115-7.31,3.94C35.055,126.14,35.167,126.402,35.398,126.495z
		 M155.444,166.865c-0.96-3.423-2.284-7.354-4.818-10.561c-2.444-3.094-6.124-5.583-10.641-7.197
		c-15.075-5.403-30.582,0.937-38.484,5.198c-0.178,0.096-0.349,0.195-0.525,0.292c0.335-1.275,0.681-2.483,1.206-3.553
		c1.324-2.71,3.702-4.898,5.8-6.829l4.969-4.573c1.699-1.561,3.397-3.123,5.092-4.686c6.878-6.326,13.121-12.7,13.951-21.112
		c0.79-7.96-4.526-16.225-12.102-18.818c-3.074-1.051-6.605-1.297-10.215-0.712c-4.172,0.667-8.274,2.475-11.902,5.219
		c-1.562-2.659-3.67-4.751-6.139-6.056c-2.119-1.111-4.634-1.746-7.473-1.889c-10.167-0.508-20.325,5.966-24.174,15.385
		c-2.708,6.647-2.23,14.465,1.24,21.073c-2.61-0.062-5.222,0.134-7.779,0.614c-6.533,1.232-12.308,4.242-16.261,8.476
		c-4.778,5.127-7.152,12.349-6.351,19.319c0.497,4.293,2.213,7.751,4.831,9.737c2.046,1.557,4.717,2.339,7.973,2.339
		c1.278,0,2.646-0.12,4.101-0.362c6.183-1.026,12.029-3.566,17.682-6.022c1.945-0.845,3.956-1.719,5.947-2.516
		c8.89-3.561,15.89-4.65,22.005-3.426c0.563,0.701,1.16,1.35,1.776,1.955c-7.333,4.959-12.923,10.819-16.596,17.436
		c-5.466,9.876-6.213,21.623-1.95,30.657c5.63,11.932,20.051,19.955,34.604,19.954c2.106,0,4.217-0.169,6.302-0.517
		c1.511-0.251,3.046-0.595,4.531-0.928c4.102-0.921,8.341-1.874,12.382-0.889l0.231,0.059c1.742,0.438,3.911,0.986,5.169-0.514
		c0.857-1.032,0.671-2.411,0.508-3.628c-0.042-0.311-0.084-0.62-0.108-0.923c-0.34-3.887,2.671-7.273,5.327-10.262l0.073-0.082
		c3.777-4.251,9.032-10.809,11.061-18.642C158.378,183.385,157.97,175.857,155.444,166.865z M60.824,107.313
		c3.708-9.076,13.5-15.313,23.295-14.825c2.708,0.135,5.097,0.737,7.098,1.786c2.351,1.243,4.362,3.254,5.844,5.818
		c-4.587,3.692-8.225,8.791-10.254,14.42c-2.539,7.04-2.95,15.138-1.209,23.515c-2.274-2.297-4.845-4.191-7.823-5.756
		c-4.714-2.468-10.071-3.911-15.509-4.193C58.753,121.7,58.195,113.769,60.824,107.313z M71.039,158.796
		c-2.003,0.802-4.02,1.678-5.971,2.526c-5.603,2.434-11.397,4.952-17.471,5.96c-4.907,0.815-8.737,0.207-11.381-1.806
		c-2.421-1.837-4.013-5.077-4.482-9.123c-0.771-6.711,1.515-13.664,6.115-18.601c3.823-4.094,9.423-7.008,15.769-8.206
		c2.741-0.514,5.549-0.71,8.345-0.587c5.397,0.242,10.72,1.664,15.393,4.111c3.353,1.761,6.177,3.949,8.631,6.681
		c0.482,2.004,1.079,4.009,1.784,5.962c0.673,1.866,1.374,3.51,2.124,4.994c-11.947-5.647-26.181-6.29-38.367-1.65
		c-0.233,0.088-0.349,0.349-0.261,0.581c0.089,0.233,0.349,0.351,0.581,0.261c12.334-4.696,26.81-3.892,38.754,2.141
		c0.605,1.106,1.258,2.147,1.954,3.103C86.501,154.185,79.623,155.358,71.039,158.796z M93.968,155.51
		c-0.958-1.195-1.849-2.551-2.652-4.036c-0.974-1.746-1.856-3.73-2.699-6.067c-0.707-1.961-1.308-3.975-1.787-5.988
		c-2.102-8.773-1.817-17.28,0.823-24.602c2.018-5.598,5.664-10.666,10.267-14.273c3.606-2.826,7.721-4.673,11.9-5.341
		c3.464-0.561,6.846-0.329,9.78,0.675c7.197,2.463,12.247,10.316,11.497,17.877c-0.8,8.096-6.92,14.335-13.665,20.538
		c-1.696,1.564-3.393,3.124-5.091,4.686l-4.969,4.573c-2.157,1.984-4.601,4.234-5.999,7.096c-0.65,1.325-1.03,2.79-1.433,4.342
		l-0.057,0.218c-0.422,0.238-0.835,0.481-1.249,0.723c-2.047-13.434,1.248-27.249,9.108-38.002c0.146-0.201,0.103-0.482-0.098-0.629
		c-0.201-0.146-0.482-0.103-0.629,0.098c-8.071,11.043-11.421,25.255-9.22,39.039c-0.609,0.373-1.241,0.779-1.885,1.208
		C95.236,156.993,94.581,156.284,93.968,155.51z M155.818,189.654c-1.98,7.645-7.148,14.088-10.863,18.27l-0.073,0.082
		c-2.777,3.124-5.925,6.666-5.552,10.936c0.025,0.315,0.069,0.64,0.113,0.968c0.153,1.134,0.297,2.205-0.307,2.931
		c-0.893,1.066-2.68,0.615-4.257,0.218l-0.236-0.059c-4.245-1.035-8.591-0.059-12.795,0.885c-1.473,0.33-2.995,0.673-4.482,0.919
		c-15.845,2.652-33.766-5.843-39.943-18.933c-4.142-8.776-3.405-20.209,1.923-29.836c3.679-6.626,9.315-12.492,16.756-17.437
		c0.832-0.561,1.644-1.081,2.413-1.546c0.022-0.014,0.044-0.029,0.063-0.046c0.632-0.372,1.265-0.745,1.921-1.113
		c0.473-0.276,0.946-0.535,1.428-0.794c7.771-4.189,23.009-10.427,37.753-5.143c4.359,1.558,7.898,3.946,10.238,6.908
		c2.436,3.082,3.721,6.908,4.657,10.246C157.059,175.943,157.465,183.317,155.818,189.654z M113.265,177.197
		c-0.201-0.149-0.482-0.105-0.63,0.094c-0.148,0.2-0.106,0.482,0.094,0.63c0.399,0.295,0.567,0.895,0.381,1.373
		c-0.177,0.477-0.686,0.822-1.212,0.822h-0.005c-0.519-0.002-1.038-0.348-1.26-0.84c-0.103-0.226-0.37-0.33-0.595-0.225
		c-0.227,0.102-0.328,0.369-0.225,0.596c0.368,0.816,1.203,1.367,2.078,1.371h0.009c0.903,0,1.747-0.578,2.053-1.402
		C114.281,178.77,113.986,177.731,113.265,177.197z M113.231,174.948c0.429-0.264,0.414-1.066-0.033-1.791
		c-0.447-0.725-1.157-1.098-1.586-0.834c-0.429,0.264-0.414,1.066,0.033,1.791C112.093,174.839,112.803,175.213,113.231,174.948z
		 M105.781,176.01c-0.429,0.264-0.414,1.066,0.033,1.791c0.447,0.725,1.157,1.098,1.586,0.834c0.429-0.264,0.414-1.066-0.033-1.791
		C106.92,176.119,106.21,175.745,105.781,176.01z"/>
	<path d="M276.073,99.462c-14.84-0.912-30.491,1.81-46.508,8.101c-13.136,5.164-26.267,12.534-41.322,23.191
		c-0.203,0.144-0.251,0.425-0.107,0.628c0.088,0.124,0.227,0.19,0.368,0.19c0.09,0,0.181-0.027,0.26-0.083
		c14.994-10.615,28.064-17.951,41.13-23.088c15.893-6.243,31.417-8.947,46.122-8.04c0.27,0.013,0.462-0.174,0.478-0.422
		C276.51,99.691,276.322,99.477,276.073,99.462z M302.077,107.435c-0.559-1.309-1.61-2.306-2.639-3.215
		c-6.873-6.039-15.345-10.726-24.521-13.601c3.536-5.121,5.904-9.235,7.623-13.257c1.602-3.755,2.585-7.316,3.007-10.888
		c0.212-1.821,0.23-3.516,0.054-5.039c-0.199-1.764-0.659-3.337-1.361-4.673c-0.002-0.005-0.004-0.009-0.006-0.014
		c-0.002-0.003-0.003-0.007-0.005-0.01c-0.231-0.444-0.52-0.9-0.858-1.358c-2.077-2.794-5.643-4.601-10.902-5.525
		c-1.341-0.238-2.742-0.425-4.161-0.554c-5.09-0.49-10.758-0.33-17.403,0.497c-0.275,0.033-0.557,0.068-0.822,0.108
		c-6.812,0.906-13.163,2.339-18.875,4.26c-0.011,0.003-0.021,0.006-0.031,0.01c-5.288,1.767-10.171,3.986-14.538,6.589l-0.041-0.749
		c-0.276-5.253-0.562-10.685-1.877-15.882c-1.883-7.409-5.853-13.994-11.178-18.544c-5.812-4.965-13.228-7.516-20.348-6.988
		c-2.039,0.147-4.277,1.012-4.442,2.996c-0.137,1.619,1.259,2.78,2.384,3.716c6.702,5.617,9.663,15.398,7.198,23.785
		c-0.751,2.564-2.001,5.193-3.931,8.273c-2.569,4.092-5.666,7.957-8.66,11.694c-4.387,5.475-8.923,11.137-11.896,17.632
		c-6.271,13.69-4.808,30.462,3.703,42.876c-1.088,0.619-1.996,1.179-2.876,1.723l-0.113,0.07c-0.192,0.118-0.267,0.361-0.175,0.567
		c1.383,3.09,3.063,6.084,4.994,8.898c0.073,0.106,0.188,0.177,0.316,0.192c0.129,0.013,0.257-0.025,0.354-0.11
		c2.468-2.186,6.422-0.438,9.598,0.966c5.933,2.638,12.083,3.631,17.983,3.631c10.886,0,20.92-3.383,27.152-6.061
		c9.192-3.949,17.826-9.322,26.176-14.519c4.522-2.814,9.198-5.725,13.905-8.372c6.909-3.877,15.068-7.659,23.206-6.335
		c1.542,0.253,3.082,0.693,4.571,1.118c1.452,0.414,2.954,0.842,4.478,1.106c1.991,0.34,3.414,0.083,4.34-0.793
		C302.64,110.532,302.607,108.68,302.077,107.435z M274.019,90.337c-3.59-1.08-7.281-1.888-10.977-2.396
		c-0.272-0.251-0.534-0.51-0.796-0.768c4.218-3.446,8.162-7.438,11.653-10.977l0.068-0.069c1.112-1.129,2.228-2.269,3.329-3.426
		c1.339,1.671,2.777,3.214,4.288,4.594C279.874,81.229,277.524,85.28,274.019,90.337z M253.082,71.912
		c-0.758-2.339-1.351-4.86-1.775-7.489c0.78-0.281,1.559-0.561,2.348-0.827c5.808-1.984,11.106-3.444,16.187-4.463
		c1.573,4.659,3.89,8.979,6.89,12.854c-1.125,1.184-2.268,2.351-3.407,3.507l-0.069,0.069c-3.491,3.54-7.438,7.536-11.644,10.964
		C257.871,82.614,254.921,77.576,253.082,71.912z M261.552,87.754c-0.007-0.001-0.014-0.002-0.02-0.003
		c0.003-0.003,0.007-0.005,0.01-0.008C261.544,87.747,261.548,87.75,261.552,87.754z M284.652,66.369
		c-0.388,3.294-1.276,6.586-2.695,10.04c-1.419-1.319-2.773-2.781-4.036-4.366c2.204-2.371,4.838-5.428,6.883-8.983
		C284.833,64.1,284.787,65.204,284.652,66.369z M283.548,57.414c0.569,1.155,0.953,2.492,1.135,3.99
		c-2.035,3.939-4.927,7.333-7.324,9.919c-2.872-3.735-5.097-7.887-6.622-12.361C275.164,58.105,279.469,57.582,283.548,57.414z
		 M272.311,50.743c5.023,0.882,8.404,2.575,10.336,5.174c0.154,0.209,0.297,0.417,0.427,0.623c-4.03,0.19-8.267,0.709-12.621,1.558
		c-0.812-2.551-1.371-5.181-1.67-7.837C269.985,50.384,271.172,50.54,272.311,50.743z M250.583,50.746
		c0.156-0.02,0.322-0.041,0.514-0.064c6.345-0.79,11.832-0.956,16.765-0.513c0.297,2.745,0.87,5.464,1.702,8.101
		c-5.088,1.027-10.392,2.489-16.198,4.472c-0.735,0.247-1.462,0.51-2.191,0.771C250.609,59.571,250.412,55.383,250.583,50.746z
		 M252.225,72.19c1.873,5.766,4.876,10.901,8.685,14.903c-0.215,0.171-0.43,0.343-0.648,0.508
		c-5.152-0.535-10.352-0.527-15.458,0.026c-1.798,0.197-3.521,0.444-5.143,0.73c-0.522-0.815-1.035-1.736-1.6-2.885
		c-1.995-4.085-3.546-8.447-4.627-12.965c5.028-2.881,10.604-5.427,17.014-7.771C250.877,67.35,251.47,69.858,252.225,72.19z
		 M231.782,54.928c5.436-1.805,11.45-3.166,17.898-4.053c-0.164,4.697,0.04,8.948,0.628,12.953
		c-6.43,2.343-12.029,4.889-17.085,7.766C232.001,66.086,231.514,60.485,231.782,54.928z M230.869,55.237
		c-0.238,5.614,0.274,11.269,1.533,16.827c-6.132,3.573-11.388,7.665-15.662,12.174c0.604-7.499,0.321-15.184-0.049-22.458
		C220.941,59.203,225.708,57.006,230.869,55.237z M216.623,85.673c4.292-4.714,9.677-8.979,16.004-12.692
		c1.095,4.488,2.64,8.824,4.625,12.889c0.512,1.04,0.983,1.901,1.457,2.669c-8.264,1.569-16.362,4.47-24.093,8.653
		C215.575,93.627,216.232,89.842,216.623,85.673z M300.839,111.005c-0.705,0.666-1.87,0.849-3.568,0.559
		c-1.476-0.256-2.954-0.678-4.383-1.085c-1.514-0.432-3.079-0.878-4.673-1.14c-8.407-1.373-16.746,2.484-23.793,6.438
		c-4.724,2.657-9.409,5.573-13.939,8.392c-8.322,5.179-16.927,10.534-26.056,14.456c-9.475,4.071-27.846,9.8-44.415,2.434
		c-2.189-0.968-4.721-2.088-7.021-2.088c-1.125,0-2.195,0.268-3.141,0.953c-1.712-2.543-3.217-5.229-4.479-7.996
		c0.918-0.567,1.879-1.155,3.051-1.809c0.111-0.062,0.191-0.169,0.219-0.293c0.029-0.125,0.003-0.255-0.071-0.359
		c-8.581-12.196-10.114-28.836-3.904-42.392c2.926-6.394,7.427-12.011,11.78-17.443c3.01-3.757,6.123-7.642,8.72-11.778
		c1.975-3.153,3.257-5.853,4.032-8.498c2.562-8.72-0.516-18.888-7.489-24.733c-1.011-0.841-2.157-1.794-2.06-2.946
		c0.118-1.42,2.019-2.058,3.61-2.173c6.892-0.508,14.065,1.962,19.698,6.775c5.185,4.429,9.052,10.851,10.89,18.08
		c1.294,5.111,1.577,10.498,1.852,15.731l0.081,1.466c0.395,7.732,0.718,15.944-0.035,23.877c-0.415,4.514-1.145,8.562-2.23,12.367
		c-7.419,4.164-14.227,9.365-20.241,15.46c-0.175,0.177-0.173,0.462,0.004,0.637c0.176,0.174,0.462,0.173,0.637-0.004
		c5.998-6.079,12.794-11.26,20.201-15.397c8.129-4.524,16.677-7.62,25.405-9.201c1.685-0.305,3.496-0.564,5.382-0.77
		c5.104-0.553,10.302-0.556,15.453-0.009c0.805,0.081,1.609,0.179,2.416,0.296c3.811,0.516,7.614,1.351,11.306,2.48
		c9.279,2.82,17.844,7.525,24.766,13.606c0.952,0.84,1.921,1.756,2.406,2.893C301.661,108.756,301.709,110.176,300.839,111.005z
		 M247.024,74.507c0.788-0.322,1.273-0.961,1.083-1.427c-0.19-0.466-0.984-0.584-1.772-0.262c-0.788,0.322-1.273,0.961-1.083,1.427
		C245.443,74.712,246.236,74.829,247.024,74.507z M243.209,80.547c0.318,0.19,0.686,0.283,1.053,0.283
		c0.532,0,1.063-0.193,1.444-0.562c0.179-0.173,0.183-0.458,0.011-0.637c-0.173-0.179-0.458-0.183-0.637-0.011
		c-0.357,0.345-0.976,0.413-1.417,0.15c-0.443-0.254-0.7-0.816-0.611-1.336c0.087-0.512,0.514-0.967,1.036-1.105
		c0.241-0.064,0.384-0.31,0.32-0.551c-0.064-0.241-0.311-0.384-0.551-0.32c-0.866,0.229-1.546,0.962-1.693,1.824
		C242.012,79.176,242.445,80.109,243.209,80.547z M198.1,57.784c-0.234,0.024-0.455,0.19-0.462,0.438
		c-0.503,19.39-5.788,38.579-15.282,55.492c-2.782,4.956-6.72,11.15-12.532,15.079c-0.206,0.139-0.26,0.419-0.121,0.625
		c0.087,0.129,0.229,0.198,0.373,0.198c0.087,0,0.175-0.025,0.251-0.077c5.969-4.035,9.984-10.341,12.814-15.384
		c9.565-17.041,14.89-36.374,15.397-55.909C198.544,57.997,198.348,57.791,198.1,57.784z M247.93,80.604
		c0.19,0.466,0.984,0.584,1.772,0.262c0.788-0.322,1.273-0.961,1.083-1.427c-0.19-0.466-0.984-0.584-1.772-0.262
		C248.225,79.498,247.74,80.137,247.93,80.604z"/>
	<path d="M385.969,86.255c0.447-0.232,0.493-1.033,0.101-1.789c-0.392-0.756-1.072-1.181-1.519-0.95
		c-0.447,0.232-0.493,1.033-0.101,1.789C384.841,86.061,385.521,86.486,385.969,86.255z M378.46,86.758
		c-0.447,0.232-0.493,1.033-0.101,1.789c0.392,0.756,1.072,1.181,1.519,0.95c0.447-0.232,0.493-1.033,0.101-1.789
		C379.587,86.951,378.907,86.526,378.46,86.758z M452.786,90.7c-0.225-0.103-0.492-0.003-0.596,0.223
		c-0.103,0.227-0.003,0.493,0.223,0.596c4.123,1.874,7.625,5.273,9.609,9.328c1.991,4.052,2.531,8.903,1.48,13.306
		c-0.058,0.242,0.091,0.485,0.333,0.543c0.035,0.008,0.07,0.012,0.105,0.012c0.204,0,0.389-0.139,0.438-0.346
		c1.099-4.605,0.535-9.676-1.546-13.912C460.757,96.213,457.096,92.658,452.786,90.7z M385.199,88.547
		c-0.162,0.188-0.141,0.473,0.048,0.635c0.375,0.324,0.499,0.935,0.277,1.397c-0.213,0.464-0.746,0.772-1.275,0.729
		c-0.519-0.041-1.01-0.424-1.195-0.932c-0.085-0.234-0.341-0.353-0.577-0.27c-0.234,0.085-0.354,0.344-0.269,0.577
		c0.305,0.841,1.097,1.453,1.969,1.522c0.055,0.004,0.112,0.007,0.167,0.007c0.844,0,1.649-0.5,1.994-1.251
		c0.392-0.818,0.175-1.877-0.505-2.462C385.647,88.338,385.361,88.358,385.199,88.547z M468.625,100.879
		c-1.516-3.607-3.956-7.204-7.462-10.993c-3.659-3.97-7.202-6.726-10.832-8.425c-7.191-3.361-15.291-2.965-23.129-2.581
		c-5.282,0.258-10.743,0.526-15.916-0.346c-8.558-1.442-16.56-6.219-22.005-13.115c0.072-0.134,0.153-0.265,0.209-0.406
		c0.853-2.142-0.326-4.552-1.932-5.825c-1.731-1.374-4.01-1.831-5.801-2.075c-3.392-0.473-6.75-0.477-10.25-0.01
		c-0.398-4.031,0.634-8.244,2.862-11.627c0.079-0.121,0.096-0.274,0.044-0.409c-0.052-0.136-0.166-0.238-0.306-0.274l-5.072-1.324
		c-0.113-0.029-0.238-0.013-0.341,0.047c-0.104,0.061-0.179,0.16-0.208,0.276c-1.097,4.24-1.147,8.744-0.13,13.092
		c0.085,0.37,0.166,0.719,0.078,1.017c-0.107,0.398-0.532,0.709-0.983,1.041c-3.649,2.645-6.538,6.225-8.355,10.352
		c-0.936,2.128-1.364,3.999-1.307,5.715c0.028,1.044,0.44,2.149,1.068,2.95c-1.268,13.237,1.275,27.053,7.174,38.924
		c6.218,12.535,16.316,23.303,28.434,30.319c7.957,4.601,16.001,7.227,23.909,7.805c1.097,0.08,2.199,0.12,3.304,0.12
		c11.545,0,23.382-4.353,32.935-12.201c6.579-5.395,11.429-11.892,14.025-18.79C471.569,116.319,471.563,107.843,468.625,100.879z
		 M358.691,74.981c-0.053-1.582,0.35-3.324,1.231-5.326c1.751-3.981,4.538-7.435,8.103-10.019c0.51-0.375,1.089-0.799,1.275-1.491
		c0.153-0.515,0.036-1.02-0.083-1.537c-0.934-3.991-0.922-8.183,0.032-12.155l4.033,1.053c-2.19,3.595-3.143,7.991-2.618,12.161
		c0.015,0.12,0.077,0.229,0.174,0.302c0.095,0.073,0.216,0.105,0.337,0.087c3.58-0.517,7-0.536,10.459-0.053
		c1.782,0.243,3.814,0.658,5.365,1.888c1.344,1.066,2.344,3.053,1.654,4.786c-0.076,0.192-0.169,0.372-0.283,0.551
		c-1.064,1.619-3.449,2.079-5.26,1.696c-1.644-0.337-3.107-1.157-4.656-2.024c-0.554-0.311-1.108-0.62-1.67-0.908
		c-0.141-0.071-0.308-0.065-0.44,0.017c-0.134,0.082-0.215,0.227-0.215,0.384c0,1.212,0.376,2.358,0.741,3.466
		c0.121,0.369,0.243,0.738,0.349,1.108c0.346,1.203,0.589,2.882-0.224,4.048c-0.588,0.837-1.487,1.071-2.138,1.119
		c-1.252,0.096-2.638-0.429-3.499-1.332c-1.605-1.702-2.007-4.222-2.257-6.451c-0.024-0.212-0.193-0.378-0.405-0.398
		c-0.221-0.018-0.409,0.111-0.473,0.314c-1.158,3.698-2.854,7.198-5.038,10.399c-0.464,0.671-1.02,1.402-1.77,1.583
		c-0.792,0.19-1.388-0.279-1.753-0.713C359.095,76.886,358.714,75.884,358.691,74.981z M467.797,123.819
		c-2.54,6.75-7.296,13.116-13.754,18.411c-10.291,8.453-23.263,12.782-35.602,11.878c-7.771-0.569-15.684-3.155-23.523-7.687
		c-11.967-6.929-21.938-17.561-28.079-29.94c-5.719-11.509-8.237-24.869-7.141-37.724c0.422,0.279,0.876,0.438,1.351,0.438
		c0.189,0,0.382-0.023,0.574-0.069c1.009-0.244,1.702-1.08,2.302-1.949c1.878-2.752,3.402-5.717,4.545-8.838
		c0.34,1.902,0.943,3.719,2.233,5.086c1.041,1.091,2.702,1.723,4.219,1.61c1.194-0.089,2.19-0.621,2.809-1.501
		c0.816-1.171,0.935-2.791,0.352-4.814c-0.11-0.38-0.234-0.76-0.359-1.139c-0.27-0.823-0.53-1.612-0.639-2.408
		c0.31,0.169,0.619,0.342,0.929,0.515c1.541,0.863,3.134,1.755,4.912,2.12c1.872,0.395,4.377,0.018,5.819-1.623
		c5.578,6.956,13.703,11.772,22.392,13.237c5.269,0.888,10.78,0.618,16.109,0.357c8.08-0.397,15.714-0.77,22.704,2.498
		c3.521,1.649,6.973,4.338,10.552,8.221c3.433,3.712,5.819,7.222,7.293,10.732C470.644,107.983,470.645,116.217,467.797,123.819z
		 M463.439,116.363c-0.241,0.063-0.385,0.309-0.322,0.549c0.232,0.892-0.015,1.91-0.63,2.594c-0.166,0.185-0.151,0.47,0.034,0.636
		c0.086,0.077,0.194,0.115,0.301,0.115c0.123,0,0.246-0.05,0.335-0.15c0.823-0.917,1.142-2.228,0.83-3.423
		C463.926,116.445,463.681,116.302,463.439,116.363z"/>
	<path d="M256.908,451.159c0.471-0.709,0.512-1.51,0.093-1.789c-0.42-0.279-1.142,0.07-1.613,0.78
		c-0.471,0.709-0.513,1.51-0.093,1.789C255.715,452.218,256.437,451.868,256.908,451.159z M257.509,456.816
		c-0.211-0.128-0.488-0.066-0.621,0.144c-0.14,0.225-0.387,0.391-0.643,0.433c-0.26,0.045-0.551-0.034-0.756-0.196
		c-0.111-0.093-0.187-0.205-0.212-0.306c-0.051-0.224,0.111-0.525,0.282-0.814c0.127-0.215,0.055-0.491-0.158-0.617
		c-0.215-0.125-0.49-0.055-0.617,0.158c-0.194,0.33-0.52,0.88-0.383,1.481c0.073,0.297,0.248,0.567,0.517,0.795
		c0.335,0.265,0.763,0.41,1.187,0.41c0.095,0,0.189-0.007,0.282-0.022c0.515-0.083,0.987-0.4,1.265-0.845
		C257.785,457.226,257.72,456.948,257.509,456.816z M261.178,453.902c-0.471,0.709-0.513,1.51-0.093,1.789
		c0.42,0.279,1.142-0.07,1.613-0.78c0.471-0.71,0.513-1.51,0.093-1.789C262.371,452.843,261.649,453.192,261.178,453.902z
		 M295.744,464.355c-0.299-0.48-0.67-0.894-1.03-1.293c-0.243-0.27-0.486-0.539-0.704-0.829c-1.175-1.56-1.54-3.614-1.893-5.601
		l-0.122-0.685c-1.614-8.81-5.536-17.081-11.342-23.918c-2.345-2.763-4.503-4.665-6.792-5.99c-2.036-1.169-4.403-2.003-7.034-2.476
		c-4.676-0.852-9.523-0.495-14.016,1.034c-0.656,0.223-1.318,0.472-1.985,0.722c-2.883,1.081-5.863,2.2-8.635,1.286
		c-0.146-0.048-0.291-0.102-0.436-0.157c-0.566-0.21-1.151-0.423-1.8-0.379c-0.658,0.045-1.253,0.36-1.721,0.91
		c-0.624,0.734-0.953,1.823-0.859,2.842c0.1,1.074,0.525,2.052,0.935,2.999c0.177,0.407,0.354,0.815,0.504,1.23
		c0.438,1.209,0.293,2.458-0.058,3.961c0,0.001,0,0.001,0,0.001c-0.062,0.266-0.128,0.531-0.194,0.797
		c-0.211,0.848-0.429,1.726-0.514,2.604c-0.248,2.564-0.141,5.309,0.327,8.393c0.694,4.57,2.181,8.789,4.42,12.542
		c4.341,7.276,11.731,12.738,19.767,14.611c2.195,0.511,4.432,0.761,6.662,0.761c6.237,0,12.405-1.959,17.336-5.64
		c0.286-0.214,0.571-0.435,0.858-0.657c1.411-1.094,2.869-2.225,4.564-2.53c0.281-0.052,0.578-0.087,0.877-0.123
		c1.156-0.139,2.466-0.296,3.13-1.395C296.583,466.389,296.251,465.169,295.744,464.355z M295.22,466.909
		c-0.436,0.721-1.422,0.84-2.466,0.965c-0.318,0.039-0.633,0.077-0.931,0.131c-1.911,0.344-3.459,1.544-4.956,2.705
		c-0.281,0.218-0.563,0.436-0.844,0.647c-6.483,4.839-15.175,6.605-23.255,4.723c-7.802-1.818-14.979-7.125-19.198-14.194
		c-2.179-3.652-3.627-7.762-4.303-12.216c-0.457-3.009-0.562-5.682-0.321-8.172c0.079-0.812,0.289-1.656,0.491-2.473
		c0.067-0.27,0.134-0.54,0.197-0.809c0.313-1.338,0.598-2.897,0.028-4.473c-0.156-0.432-0.34-0.858-0.525-1.283
		c-0.4-0.922-0.777-1.793-0.864-2.722c-0.072-0.774,0.182-1.628,0.648-2.176c0.214-0.251,0.578-0.559,1.099-0.594
		c0.455-0.041,0.924,0.14,1.421,0.325c0.155,0.058,0.311,0.115,0.467,0.167c3.074,1.017,6.206-0.162,9.235-1.297
		c0.658-0.247,1.311-0.493,1.959-0.712c4.348-1.482,9.039-1.828,13.565-1.001c2.53,0.455,4.8,1.253,6.746,2.37
		c2.196,1.271,4.279,3.111,6.556,5.792c5.703,6.717,9.556,14.843,11.141,23.497l0.122,0.681c0.371,2.091,0.755,4.254,2.059,5.984
		c0.233,0.311,0.493,0.602,0.755,0.891c0.348,0.388,0.678,0.754,0.935,1.167C295.329,465.392,295.602,466.272,295.22,466.909z"/>
	<path d="M165.389,413.984c0.07,0,0.141-0.016,0.207-0.051c0.221-0.114,0.307-0.386,0.192-0.607
		c-2.389-4.594-3.721-9.816-3.862-15.109c2.49-5.45,6.721-9.944,11.93-12.657c0.221-0.115,0.306-0.387,0.191-0.608
		c-0.114-0.22-0.386-0.305-0.607-0.191c-4.858,2.531-8.883,6.562-11.516,11.459c0.118-4.273,1.006-8.5,2.601-12.328
		c0.096-0.229-0.013-0.493-0.242-0.589c-0.229-0.091-0.492,0.013-0.589,0.243c-1.878,4.509-2.802,9.553-2.674,14.587
		c0.129,5.466,1.502,10.863,3.969,15.609C165.069,413.896,165.226,413.984,165.389,413.984z M124.049,405.41l-1.272-0.859
		c-2.025-1.378-4.15-2.89-5.97-4.604c-4.307-4.057-7.135-9.487-9.869-14.741c-2.725-5.234-5.543-10.648-9.844-14.791
		c-0.178-0.171-0.464-0.168-0.637,0.012c-0.173,0.178-0.167,0.464,0.012,0.637c4.195,4.04,6.978,9.387,9.67,14.558
		c2.769,5.319,5.632,10.819,10.051,14.981c1.486,1.398,3.156,2.652,4.813,3.813c-2.683-0.07-5.404,0.126-8.053,0.337
		c-0.965,0.077-1.927,0.153-2.885,0.215c-5.191,0.346-11.764,0.273-16.56-3.359c-0.2-0.151-0.481-0.112-0.631,0.087
		c-0.15,0.198-0.111,0.48,0.087,0.631c3.92,2.97,8.901,3.676,13.439,3.676c1.289,0,2.542-0.057,3.724-0.135
		c0.962-0.063,1.929-0.14,2.897-0.216c3.09-0.246,6.282-0.495,9.358-0.283l1.168,0.789c4.478,3.015,8.708,5.864,11.005,10.425
		c0.079,0.158,0.238,0.248,0.403,0.248c0.068,0,0.137-0.016,0.202-0.048c0.222-0.112,0.311-0.383,0.2-0.604
		C132.952,411.404,128.426,408.356,124.049,405.41z M144.065,416.056c0.078,0.055,0.167,0.08,0.255,0.08
		c0.143,0,0.284-0.068,0.371-0.194c0.142-0.204,0.091-0.485-0.114-0.626c-4.548-3.145-7.963-7.785-9.617-13.067
		c-0.728-2.357-1.116-4.858-1.49-7.277c-0.091-0.586-0.182-1.172-0.277-1.755c0.107-0.963,0.368-1.942,0.622-2.89l0.079-0.295
		c0.725-2.715,1.54-6.3,1.411-9.95c-0.099-2.629-0.74-6.418-3.222-9.542c-0.155-0.194-0.438-0.228-0.633-0.072
		c-0.195,0.155-0.227,0.438-0.072,0.633c2.331,2.932,2.933,6.521,3.028,9.013c0.125,3.531-0.672,7.031-1.381,9.685l-0.079,0.294
		c-0.061,0.228-0.122,0.458-0.182,0.689c-0.241-1.229-0.53-2.479-0.929-3.716c-2.348-7.245-8.271-13.317-15.456-15.851
		c-0.233-0.083-0.491,0.04-0.574,0.275c-0.083,0.234,0.041,0.492,0.275,0.574c6.926,2.441,12.635,8.296,14.898,15.278
		c0.64,1.985,1.012,4.033,1.317,5.951c0.099,0.604,0.193,1.21,0.287,1.815c0.38,2.451,0.772,4.987,1.52,7.407
		C135.813,407.99,139.352,412.798,144.065,416.056z M117.306,431.35c-3.319-1.432-6.993-1.357-10.549-1.282
		c-0.992,0.02-1.984,0.042-2.964,0.029c-5.56-0.063-11.2-1.252-16.311-3.441c-0.228-0.098-0.493,0.008-0.591,0.236
		c-0.098,0.229,0.008,0.493,0.237,0.592c5.219,2.234,10.978,3.45,16.655,3.513c0.989,0.011,1.991-0.01,2.993-0.03
		c3.461-0.069,7.035-0.145,10.174,1.209c0.058,0.026,0.118,0.037,0.178,0.037c0.174,0,0.34-0.102,0.413-0.272
		C117.64,431.714,117.535,431.449,117.306,431.35z M181.901,441.807c-0.714-0.464-1.516-0.497-1.79-0.074
		c-0.274,0.423,0.082,1.141,0.796,1.605c0.714,0.464,1.516,0.497,1.79,0.074C182.972,442.989,182.615,442.27,181.901,441.807z
		 M178.209,447.635c-0.714-0.464-1.516-0.497-1.79-0.074c-0.274,0.423,0.082,1.141,0.797,1.605c0.714,0.464,1.516,0.497,1.79,0.074
		C179.28,448.817,178.924,448.099,178.209,447.635z M206.916,427.129c-4.745-2.137-10.018-2.522-15.117-2.895
		c-3.382-0.247-6.88-0.502-10.188-1.268c-1.807-0.413-3.181-0.916-4.328-1.584c-0.526-0.297-1.012-0.643-1.444-1.025
		c-3.659-3.269-3.426-9.072-1.571-13.375c1.187-2.746,2.963-5.249,4.68-7.669c1.12-1.578,2.278-3.211,3.275-4.909
		c3.157-5.37,3.812-10.712,1.796-14.656c-1.939-3.775-6.55-6.045-10.725-5.271c-0.601,0.113-1.229,0.277-1.837,0.435
		c-2.11,0.551-4.103,1.07-5.449-0.171c-0.293-0.271-0.527-0.609-0.775-0.967c-0.211-0.305-0.429-0.62-0.698-0.912
		c-1.743-1.841-4.782-1.611-7.021-0.566c-1.729,0.804-3.257,2.033-4.496,3.546c-1.591-4.893-4.843-9.31-9.056-12.201
		c-2.804-1.92-5.53-2.845-8.111-2.717c-2.001,0.089-3.88,0.809-5.698,1.506c-1.536,0.589-3.124,1.197-4.741,1.397
		c-3.216,0.408-6.43-0.773-9.537-1.914c-0.497-0.183-0.993-0.365-1.489-0.541c-5.618-1.985-10.447-2.696-14.759-2.174
		c-5.46,0.65-10.197,3.46-12.671,7.517c-1.627,2.669-2.456,6.105-2.534,10.503c-0.057,3.303,0.263,6.497,0.948,9.495
		c0.071,0.31,0.147,0.622,0.223,0.934c0.379,1.561,0.771,3.174,0.605,4.737c-0.112,1.088-0.503,2.129-0.892,3.05
		c-5.655-0.694-11.43,2.876-12.99,8.119c-0.912,3.068-0.333,6.534,1.59,9.51c1.654,2.56,4.047,4.365,6.703,5.096
		c-1.374,0.833-2.502,2.13-3.245,3.756c-1.133,2.48-1.256,5.441-0.326,7.921c1.515,4.022,5.483,7.35,10.613,8.901
		c4.045,1.22,8.337,1.355,12.488,1.485l1.443,0.048c8.646,0.293,18.571,1.26,26.63,6.22c2.726,1.678,5.348,3.865,8.252,6.883
		c0.007,0.007,0.016,0.009,0.023,0.016c1.968,2.05,3.865,4.28,5.7,6.436c3.373,3.964,6.861,8.063,11.004,11.332
		c4.439,3.514,9.82,6.226,15.994,8.06c5.028,1.502,10.078,2.251,14.958,2.251c5.915,0,11.581-1.099,16.658-3.287
		c10.344-4.453,18.093-13.875,19.74-24.003C222.356,443.085,216.499,431.458,206.916,427.129z M136.956,452.584
		c-2.895-2.989-5.529-5.176-8.27-6.864c-8.238-5.069-18.308-6.056-27.071-6.354l-1.447-0.047c-4.093-0.128-8.325-0.262-12.256-1.447
		c-4.863-1.47-8.613-4.594-10.031-8.356c-0.847-2.259-0.734-4.962,0.303-7.229c0.855-1.872,2.266-3.25,3.972-3.883
		c0.194-0.072,0.314-0.267,0.291-0.471c-0.023-0.206-0.183-0.369-0.387-0.397c-2.917-0.395-5.613-2.204-7.396-4.965
		c-1.78-2.755-2.32-5.949-1.483-8.764c1.389-4.671,6.675-8,11.749-7.511c-0.041,0.092-0.082,0.185-0.123,0.277
		c-0.153,0.338-0.304,0.675-0.448,1.013c-2.407,5.693-2.418,11.376-0.031,15.593c1.98,3.492,5.797,6.23,10.746,7.712
		c3.176,0.955,6.51,1.361,9.733,1.753c1.124,0.136,2.248,0.274,3.367,0.433c6.408,0.915,11.176,2.446,15.004,4.819
		c4.888,3.023,8.141,7.51,8.926,12.309c0.036,0.221,0.227,0.377,0.444,0.377c0.024,0,0.048-0.002,0.073-0.006
		c0.245-0.04,0.412-0.272,0.372-0.517c-0.828-5.056-4.232-9.769-9.341-12.928c-3.937-2.44-8.815-4.012-15.351-4.945
		c-1.125-0.16-2.255-0.297-3.385-0.435c-3.186-0.387-6.48-0.788-9.582-1.721c-4.727-1.414-8.357-4.004-10.222-7.293
		c-2.248-3.971-2.22-9.365,0.076-14.797c0.141-0.331,0.29-0.662,0.44-0.995c0.127-0.281,0.254-0.564,0.378-0.85
		c0.454-1.051,0.95-2.285,1.088-3.617c0.183-1.718-0.228-3.408-0.626-5.044c-0.075-0.309-0.15-0.617-0.22-0.923
		c-0.669-2.926-0.981-6.047-0.925-9.277c0.075-4.234,0.86-7.521,2.402-10.051c2.331-3.823,6.821-6.474,12.01-7.092
		c4.17-0.506,8.867,0.193,14.351,2.13c0.491,0.174,0.984,0.355,1.479,0.537c3.207,1.179,6.523,2.397,9.959,1.962
		c1.726-0.213,3.366-0.841,4.953-1.449c1.831-0.702,3.561-1.365,5.416-1.449c2.381-0.092,4.923,0.755,7.561,2.561
		c4.27,2.931,7.537,7.486,8.965,12.503c0.071,0.237,0.133,0.466,0.194,0.701c1.209,4.838,0.788,9.965,0.382,14.923
		c-0.15,1.826-0.305,3.715-0.377,5.569c-0.235,6.211,0.726,14.586,6.64,19.214c0.195,0.152,0.478,0.119,0.632-0.077
		c0.154-0.196,0.119-0.479-0.077-0.632c-5.615-4.395-6.522-12.47-6.295-18.471c0.072-1.834,0.226-3.713,0.375-5.529
		c0.412-5.03,0.839-10.233-0.407-15.218c-0.044-0.172-0.092-0.337-0.139-0.504c1.208-1.624,2.772-2.922,4.55-3.749
		c1.946-0.907,4.552-1.144,5.982,0.365c0.223,0.242,0.414,0.517,0.616,0.809c0.264,0.383,0.538,0.779,0.905,1.117
		c1.707,1.574,4.139,0.938,6.287,0.381c0.62-0.162,1.205-0.315,1.774-0.421c3.797-0.704,7.995,1.362,9.758,4.797
		c2.66,5.203-0.352,11.376-1.771,13.79c-0.978,1.665-2.124,3.281-3.233,4.844c-1.744,2.458-3.548,5-4.772,7.833
		c-1.983,4.599-2.195,10.836,1.8,14.405c0.358,0.317,0.758,0.601,1.172,0.865c-0.7,0.958-1.516,1.76-2.443,2.365
		c-2.918,1.885-6.966,1.526-9.021-0.803c-0.148-0.166-0.294-0.345-0.443-0.526c-0.754-0.917-1.601-1.961-2.896-1.839
		c-1.335,0.114-2.093,1.455-2.338,2.569c-0.075,0.346-0.124,0.7-0.173,1.054c-0.096,0.692-0.186,1.347-0.478,1.903
		c-0.444,0.835-1.222,1.195-1.797,1.348c-1.174,0.316-2.631,0.083-3.71-0.592c-1.444-0.901-2.463-2.291-3.542-3.763
		c-0.318-0.434-0.635-0.866-0.963-1.285c-0.723-0.92-1.726-2.049-3.08-2.623c-1.229-0.516-2.971-0.539-4.095,0.574
		c-1.277,1.268-1.274,3.388,0.009,6.13c1.118,2.386,2.427,4.764,3.892,7.067l0.146,0.229c0.841,1.319,1.71,2.684,1.821,4.168
		c0.069,0.866-0.255,1.831-0.826,2.459c-0.286,0.314-0.767,0.691-1.437,0.702c-0.409-0.002-0.831-0.117-1.275-0.25
		c-0.337-0.101-0.686-0.206-1.056-0.259c-1.242-0.182-2.544,0.416-3.406,1.55c-0.862,1.132-1.085,2.549-0.585,3.694
		c0.214,0.498,0.527,0.926,0.829,1.341c0.322,0.442,0.626,0.858,0.789,1.321c0.296,0.853,0.02,1.625-0.264,2.122
		c-0.556,0.975-1.628,1.749-2.738,1.975C137.202,452.556,137.079,452.569,136.956,452.584z M219.654,454.029
		c-1.599,9.832-9.138,18.987-19.207,23.321c-9.071,3.909-20.081,4.266-31.002,0.999c-6.064-1.801-11.344-4.46-15.693-7.902
		c-4.073-3.214-7.531-7.279-10.876-11.21c-1.668-1.96-3.392-3.975-5.176-5.876c1.299-0.32,2.497-1.208,3.156-2.363
		c0.532-0.932,0.649-1.948,0.332-2.866c-0.209-0.588-0.566-1.079-0.911-1.553c-0.286-0.392-0.555-0.763-0.731-1.169
		c-0.371-0.849-0.189-1.919,0.475-2.791c0.665-0.874,1.651-1.337,2.562-1.203c0.303,0.043,0.606,0.134,0.925,0.23
		c0.492,0.147,1.005,0.281,1.551,0.288c0.783-0.012,1.505-0.357,2.086-0.997c0.742-0.816,1.147-2.018,1.058-3.135
		c-0.128-1.708-1.059-3.169-1.959-4.583l-0.145-0.229c-1.444-2.27-2.735-4.615-3.836-6.966c-0.772-1.65-1.431-3.876-0.19-5.109
		c0.824-0.815,2.19-0.769,3.11-0.384c1.164,0.493,2.066,1.516,2.722,2.349c0.322,0.411,0.633,0.837,0.945,1.261
		c1.082,1.476,2.2,3.002,3.791,3.994c1.299,0.815,2.993,1.082,4.42,0.698c1.072-0.288,1.888-0.909,2.361-1.798
		c0.365-0.698,0.471-1.461,0.573-2.2c0.045-0.33,0.091-0.661,0.161-0.984c0.193-0.879,0.742-1.795,1.538-1.864
		c0.823-0.077,1.449,0.697,2.12,1.514c0.156,0.19,0.311,0.377,0.464,0.551c2.338,2.647,6.906,3.078,10.186,0.962
		c1.045-0.682,1.958-1.584,2.734-2.665c1.15,0.617,2.494,1.1,4.214,1.493c3.375,0.78,6.908,1.039,10.324,1.288
		c5.021,0.367,10.213,0.746,14.813,2.818C215.769,432.116,221.404,443.328,219.654,454.029z M185.658,447.39
		c-0.205-0.141-0.485-0.088-0.626,0.116c-0.141,0.205-0.089,0.486,0.116,0.626c0.355,0.244,0.721,0.511,0.965,0.866
		c0.175,0.253,0.316,0.643,0.183,0.982c-0.047,0.124-0.145,0.258-0.291,0.396c-0.656,0.613-1.795,0.649-2.487,0.081
		c-0.193-0.159-0.476-0.13-0.634,0.062c-0.158,0.192-0.13,0.476,0.062,0.633c0.495,0.407,1.127,0.609,1.761,0.609
		c0.698,0,1.398-0.245,1.916-0.728c0.251-0.238,0.421-0.479,0.515-0.73c0.221-0.561,0.115-1.24-0.282-1.816
		C186.523,448.007,186.063,447.669,185.658,447.39z"/>
	<path d="M346.532,457.489c-0.837,0.159-1.439,0.689-1.345,1.184c0.094,0.495,0.848,0.767,1.685,0.609
		c0.837-0.159,1.439-0.689,1.345-1.184C348.123,457.603,347.369,457.33,346.532,457.489z M346.855,451.334
		c-0.094-0.495-0.848-0.768-1.685-0.609c-0.837,0.159-1.439,0.689-1.345,1.184c0.094,0.495,0.848,0.768,1.685,0.609
		C346.347,452.359,346.949,451.829,346.855,451.334z M341.28,456.492c-0.864,0.067-1.722,0.061-2.175-0.452
		c-0.32-0.364-0.334-0.991-0.026-1.404c0.301-0.419,0.885-0.639,1.432-0.532c0.232,0.044,0.479-0.113,0.528-0.357
		c0.047-0.244-0.113-0.48-0.357-0.528c-0.888-0.169-1.828,0.185-2.329,0.885c-0.553,0.742-0.52,1.853,0.077,2.532
		c0.583,0.661,1.479,0.79,2.191,0.79c0.283,0,0.537-0.02,0.732-0.036c0.248-0.019,0.433-0.236,0.413-0.485
		C341.746,456.657,341.525,456.475,341.28,456.492z M443.493,350.638c-0.264-0.027-0.462,0.176-0.475,0.424
		c-1.08,18.935-7.948,37.719-19.339,52.889c-0.15,0.199-0.11,0.481,0.09,0.63c0.081,0.062,0.176,0.091,0.27,0.091
		c0.136,0,0.272-0.063,0.36-0.18c11.497-15.311,18.429-34.267,19.519-53.378C443.931,350.865,443.741,350.652,443.493,350.638z
		 M458.864,355.346c-0.382-0.384-0.928-0.439-1.256-0.472c-2.655-0.264-5.3-0.529-7.954-0.8c0.243-1.612,0.462-3.275,0.647-4.963
		c0.026-0.244-0.147-0.464-0.39-0.496c-4.673-0.604-8.849-0.864-12.827-0.823c-2.006,0.028-3.883,0.142-5.736,0.345
		c-0.12,0.013-0.229,0.074-0.304,0.169c-0.075,0.094-0.108,0.215-0.093,0.334c0.9,7.238-0.391,15.297-3.947,24.636
		c-10.358,27.273-33.323,49.243-61.431,58.767c-4.085,1.382-8.231,2.483-12.327,3.271c-1.775,0.346-3.604,0.65-5.372,0.945
		c-6.159,1.027-12.528,2.088-18.109,5.063c-4.782,2.552-8.683,6.964-10.302,11.603c-1.892-0.832-4.02-1.098-6.049-0.732
		c-0.245,0.044-0.408,0.278-0.364,0.522c0.044,0.245,0.282,0.404,0.522,0.364c1.893-0.337,3.87-0.081,5.62,0.71
		c-0.379,1.33-0.572,2.653-0.577,3.946c-1.694-0.188-3.409-0.066-5.113,0.393c-0.24,0.064-0.383,0.311-0.318,0.551
		c0.054,0.202,0.236,0.333,0.435,0.333c0.039,0,0.078-0.005,0.117-0.016c1.635-0.441,3.282-0.551,4.9-0.357
		c0.066,1.014,0.246,2.017,0.552,2.984c0.063,0.201,0.137,0.399,0.21,0.597c-1.087,0.733-2.377,1.177-3.682,1.232
		c-0.248,0.011-0.442,0.221-0.431,0.47c0.01,0.242,0.21,0.431,0.45,0.431h0.019c1.407-0.06,2.797-0.526,3.988-1.288
		c0.418,0.928,0.947,1.818,1.576,2.658c-0.725,1.099-2.01,1.836-3.319,1.883c-0.249,0.01-0.443,0.218-0.435,0.466
		c0.009,0.244,0.208,0.435,0.45,0.435h0.016c1.523-0.055,2.964-0.833,3.872-2.051c1.935,2.28,4.621,4.131,7.777,5.267
		c3.305,1.184,6.804,1.519,9.895,1.519c1.767,0,3.402-0.11,4.79-0.233c12.75-1.15,25.876-5.654,37.961-13.026
		c3.685-2.248,7.303-4.777,10.755-7.516c4.884-3.875,9.637-8.307,14.125-13.175c2.769-2.31,5.215-4.468,7.475-6.594
		c6.111-5.731,12.117-12.36,18.906-20.863c11.219-14.073,24.276-33.034,25.678-54.927
		C459.291,356.498,459.334,355.814,458.864,355.346z M344.285,472.111c-3.732,0.332-9.274,0.565-14.301-1.237
		c-4.91-1.768-8.625-5.326-9.937-9.521c-0.321-1.015-0.502-2.071-0.537-3.14c-0.051-1.462,0.164-2.977,0.635-4.5
		c0.003-0.007,0.003-0.013,0.005-0.02c0.002-0.008,0.004-0.015,0.006-0.022c1.441-4.594,5.286-9.022,10.032-11.555
		c5.451-2.905,11.746-3.955,17.833-4.97c1.774-0.296,3.609-0.602,5.396-0.948c3.685-0.71,7.409-1.683,11.095-2.871
		c-2.032,2.926-3.171,6.345-3.227,9.771c-0.094,5.594,2.797,11.122,7.366,14.085c3.031,1.97,6.728,2.937,11.256,2.937
		c0.143,0,0.298-0.013,0.443-0.015C368.803,466.873,356.37,471.021,344.285,472.111z M406.567,438.657
		c-4.465,4.842-9.19,9.251-14.045,13.103c-3.393,2.692-6.948,5.178-10.569,7.392c-5.293,0.324-9.493-0.568-12.811-2.724
		c-4.315-2.798-7.045-8.025-6.956-13.315c0.06-3.643,1.414-7.283,3.809-10.265c28.299-9.635,51.415-31.775,61.852-59.253
		c3.534-9.285,4.862-17.342,4.052-24.612c1.558-0.158,3.148-0.246,4.819-0.279c1.712,8.806,0.466,17.986-3.533,25.896
		c-0.112,0.222-0.023,0.493,0.199,0.605c0.065,0.033,0.134,0.048,0.203,0.048c0.165,0,0.323-0.091,0.402-0.247
		c4.064-8.039,5.346-17.36,3.643-26.311c3.638-0.016,7.478,0.223,11.726,0.756c-0.191,1.686-0.413,3.35-0.661,4.954
		c-2.85,18.489-10.233,37.671-21.945,57.014C420.464,421.795,413.672,430.96,406.567,438.657z M458.366,356.85
		c-1.385,21.642-14.346,40.453-25.483,54.423c-6.761,8.468-12.739,15.067-18.818,20.768c-0.812,0.764-1.659,1.536-2.526,2.314
		c5.586-6.637,10.949-14.159,15.984-22.469c11.684-19.297,19.079-38.445,21.993-56.922c2.67,0.273,5.332,0.539,8.002,0.805
		c0.28,0.029,0.566,0.069,0.709,0.214C458.395,356.15,458.388,356.518,458.366,356.85z"/>
	<path d="M263.937,402.762c-1.143,1.344-3.007,2.037-4.75,1.775c-0.246-0.038-0.476,0.132-0.513,0.377
		c-0.038,0.246,0.131,0.476,0.377,0.513c0.288,0.044,0.579,0.065,0.87,0.065c1.773,0,3.549-0.793,4.702-2.146
		c0.161-0.189,0.138-0.473-0.051-0.635C264.384,402.55,264.098,402.572,263.937,402.762z M263.049,399.494
		c-0.14-0.205-0.421-0.258-0.625-0.117c-3.473,2.377-8.279,2.612-11.958,0.581c-0.219-0.122-0.492-0.042-0.612,0.177
		c-0.12,0.217-0.041,0.492,0.177,0.611c1.803,0.995,3.855,1.486,5.91,1.486c2.472,0,4.947-0.711,6.992-2.113
		C263.138,399.98,263.19,399.699,263.049,399.494z M351.951,382.758c-0.568-3.349-2.031-8.087-5.773-11.645
		c-3.103-2.955-7.17-4.505-11.102-6.004c-2.127-0.811-4.326-1.649-6.339-2.699c-11.366-5.935-17.295-18.77-20.766-27.909
		c-0.643-1.684-1.463-3.292-3.087-3.648c-0.68-0.151-1.376-0.028-2.02,0.088c-2.314,0.443-4.888,1.09-6.138,3.155
		c-0.864,1.43-0.825,3.112-0.788,4.738l0.011,0.555c0.141,9.352-4.017,19.086-12.359,28.93c-1.3,1.531-2.677,3.046-4.008,4.512
		c-2.026,2.229-4.12,4.533-6.002,6.961c-1.993,2.577-3.384,4.83-4.368,7.067c-2.946,0.773-6.257,0.845-8.931,0.9
		c-7.316,0.146-14.321-0.049-19.517-3.985c-1.378-1.039-3.267-2.461-4.97-1.488c-0.352,0.199-0.664,0.506-0.959,0.918
		c0,0,0,0.001-0.001,0.001c-0.019,0.026-0.039,0.043-0.058,0.07c-0.059,0.088-0.117,0.175-0.172,0.267
		c-2.299,3.748-1.127,8.511,0.152,12.68c0.922,3.019,1.876,6.141,3.587,8.904c3.396,5.493,9.817,9.009,16.266,9.009
		c0.4,0,0.8-0.013,1.199-0.041c5.823-0.405,11.347-3.691,14.601-8.628c1.692,2.925,3.996,5.341,6.714,7.004
		c3.093,1.895,6.741,2.817,10.41,2.817c4.818,0,9.661-1.605,13.333-4.684c0.641,0.611,1.325,1.168,2.056,1.628
		c2.556,1.624,5.686,2.479,8.981,2.479c0.694,0,1.395-0.038,2.1-0.114c4.861-0.523,9.562-2.869,12.901-6.438
		c0.637-0.688,1.194-1.389,1.686-2.086c5.453,2.401,12.641,1.129,17.248-3.103C350.937,398.299,353.279,390.554,351.951,382.758z
		 M236.239,383.071c1.194-0.679,2.741,0.487,4.036,1.463c5.817,4.406,14.031,4.247,20.024,4.127
		c2.531-0.052,5.623-0.122,8.496-0.773c-0.151,0.401-0.297,0.813-0.432,1.242c-0.376,1.204-0.622,2.445-0.743,3.69
		c-2.125,0.846-4.558,1.421-7.442,1.744c-6.137,0.681-11.452-0.037-15.807-2.13c-3.995-1.911-7.143-5.127-8.694-8.841
		C235.858,383.366,236.042,383.183,236.239,383.071z M255.747,413.198c-6.507,0.447-13.201-2.986-16.637-8.543
		c-1.65-2.665-2.586-5.731-3.492-8.695c-1.164-3.794-2.235-8.088-0.512-11.455c1.71,3.674,4.888,6.832,8.876,8.741
		c3.415,1.642,7.388,2.467,11.854,2.467c1.431,0,2.912-0.084,4.442-0.254c2.793-0.313,5.171-0.865,7.278-1.658
		c-0.186,3.637,0.638,7.422,2.362,10.772C266.856,409.501,261.451,412.801,255.747,413.198z M345.231,402.308
		c-4.314,3.961-11.01,5.179-16.126,3.007c2.038-3.14,3.202-6.74,3.352-10.457c0.01-0.249-0.184-0.458-0.432-0.469
		c-0.239,0.012-0.459,0.184-0.469,0.432c-0.149,3.73-1.355,7.342-3.49,10.45c-0.512,0.76-1.125,1.526-1.82,2.276
		c-3.192,3.412-7.689,5.656-12.338,6.156c-3.851,0.416-7.58-0.374-10.502-2.23c-0.786-0.496-1.526-1.092-2.2-1.774
		c-1.975-1.984-3.196-4.488-3.438-7.047c-0.024-0.248-0.259-0.422-0.491-0.406c-0.248,0.024-0.429,0.244-0.406,0.491
		c0.247,2.613,1.441,5.159,3.358,7.23c-6.186,5.141-15.822,5.912-22.635,1.737c-2.783-1.702-5.123-4.231-6.764-7.311
		c-1.84-3.467-2.672-7.448-2.344-11.21c0.105-1.278,0.353-2.552,0.737-3.783c0.221-0.7,0.465-1.366,0.723-1.976
		c0.957-2.234,2.339-4.484,4.347-7.08c1.86-2.4,3.942-4.691,5.957-6.907c1.336-1.471,2.719-2.992,4.029-4.535
		c8.487-10.016,12.717-19.951,12.572-29.527l-0.011-0.561c-0.034-1.497-0.07-3.045,0.658-4.252c1.059-1.748,3.413-2.328,5.559-2.74
		c0.554-0.1,1.125-0.202,1.634-0.089c1.209,0.264,1.887,1.641,2.439,3.089c3.523,9.276,9.553,22.31,21.191,28.387
		c2.061,1.074,4.285,1.921,6.435,2.741c4.026,1.535,7.829,2.985,10.802,5.815c3.562,3.387,4.96,7.93,5.505,11.144
		C352.34,390.406,350.105,397.84,345.231,402.308z M306.159,374.523c-0.499,0.073-0.803,0.815-0.679,1.658
		c0.123,0.843,0.627,1.466,1.126,1.393c0.499-0.073,0.803-0.815,0.679-1.658C307.162,375.074,306.658,374.451,306.159,374.523z
		 M312.974,373.448c-0.498,0.073-0.803,0.815-0.679,1.658c0.123,0.843,0.627,1.466,1.126,1.393c0.499-0.073,0.803-0.815,0.679-1.658
		C313.976,373.999,313.472,373.375,312.974,373.448z M312.289,378.766c-0.241,0.061-0.388,0.305-0.328,0.546
		c0.158,0.632-0.068,1.346-0.559,1.773c-0.496,0.424-1.232,0.546-1.831,0.304c-0.6-0.249-1.053-0.866-1.103-1.502
		c-0.019-0.248-0.236-0.442-0.484-0.413c-0.248,0.019-0.433,0.236-0.413,0.484c0.076,0.974,0.741,1.883,1.658,2.265
		c0.311,0.126,0.646,0.186,0.982,0.186c0.641,0,1.288-0.223,1.78-0.643c0.743-0.646,1.082-1.721,0.844-2.673
		C312.774,378.852,312.531,378.705,312.289,378.766z"/>
	<path d="M410.704,349.956c-0.228-2.667-0.743-5.332-1.241-7.91c-0.43-2.227-0.874-4.53-1.128-6.81
		c-0.577-5.188-0.194-10.517,0.176-15.67c0.239-3.331,0.486-6.775,0.476-10.168c-0.053-15.398-6.056-28.669-16.058-35.499
		c-4.698-3.209-10.354-5.116-16.805-5.696c2.513-5.712,3.813-11.991,3.743-18.206c0-0.366-0.036-0.746-0.294-1.045
		c-0.309-0.37-0.787-0.432-1.037-0.463c-4.124-0.599-8.216-1.037-12.179-1.312c0.333-1.126,0.697-2.236,1.122-3.371
		c0.054-0.143,0.032-0.304-0.06-0.427c-0.091-0.122-0.222-0.186-0.391-0.181c-6.836,0.451-13.709,1.271-20.431,2.437
		c-0.669,0.117-1.415,0.296-1.821,0.94c-0.237,0.391-0.259,0.82-0.281,1.215c-0.049,1.224-0.03,2.453,0.042,3.66
		c-5.303,2.181-10.611,4.584-15.781,7.151c-0.4,0.2-0.949,0.475-1.254,1.011c-0.418,0.746-0.166,1.571,0.169,2.354
		c2.779,6.393,7.22,11.937,12.845,16.085c-8.123,6.683-14.128,16.49-16.098,26.36c-2.289,11.479,0.003,23.727,6.286,33.603
		c2.368,3.722,5.507,7.443,9.598,11.378c14.375,13.808,32.154,21.685,48.893,21.684c0.224,0,0.452-0.002,0.676-0.004
		c5.577-0.072,13.124-1.283,17.406-6.646C410.773,360.043,411.07,354.138,410.704,349.956z M378.413,249.38
		c0.201,0.025,0.396,0.061,0.472,0.153c0.08,0.092,0.08,0.352,0.08,0.468c0.07,6.194-1.243,12.451-3.787,18.12
		c-3.33-0.242-6.861-0.113-10.508,0.38c-0.898-6.789-0.405-13.836,1.433-20.442C370.104,248.332,374.238,248.773,378.413,249.38z
		 M345.395,247.82c0.016-0.299,0.032-0.582,0.147-0.774c0.205-0.326,0.732-0.442,1.21-0.526c6.463-1.122,13.068-1.922,19.644-2.379
		c-0.399,1.11-0.751,2.201-1.067,3.316c-1.953,6.826-2.481,14.135-1.549,21.169c-1.782,0.26-3.597,0.607-5.412,1.054
		c-2.207,0.542-4.205,1.142-6.103,1.823c-4.004-5.849-6.364-12.68-6.815-19.792C345.36,250.433,345.341,249.125,345.395,247.82z
		 M328.497,261.609c-0.244-0.569-0.438-1.151-0.212-1.555c0.156-0.274,0.487-0.456,0.872-0.648
		c5.062-2.514,10.259-4.868,15.453-7.011c0.55,6.972,2.887,13.662,6.789,19.431c-3.753,1.435-6.929,3.155-9.679,5.254
		c-0.164,0.123-0.327,0.255-0.491,0.385C335.644,273.396,331.241,267.924,328.497,261.609z M406.572,363.863
		c-4.062,5.087-11.331,6.237-16.715,6.307c-16.687,0.216-34.534-7.598-48.933-21.428c-4.038-3.884-7.133-7.552-9.462-11.212
		c-6.16-9.683-8.406-21.69-6.163-32.943c1.966-9.846,8.027-19.641,16.215-26.199l0.003-0.003c0.248-0.202,0.495-0.398,0.746-0.585
		c2.809-2.145,6.07-3.888,9.969-5.33c1.966-0.72,4.042-1.347,6.348-1.914c1.931-0.475,3.867-0.848,5.757-1.108
		c2.569-0.368,5.08-0.552,7.501-0.552c1.223,0,2.423,0.047,3.597,0.141c6.554,0.498,12.268,2.385,16.984,5.607
		c9.758,6.661,15.614,19.655,15.666,34.758c0.01,3.358-0.236,6.785-0.474,10.1c-0.373,5.194-0.758,10.565-0.173,15.836
		c0.258,2.315,0.706,4.635,1.14,6.88c0.493,2.555,1.004,5.198,1.228,7.818C410.159,354.052,409.883,359.714,406.572,363.863z
		 M389.44,275.488c-10.197-0.989-20.861,1.032-30.018,5.695c-2.764,1.407-6.694,3.708-8.911,7.43
		c-0.127,0.214-0.057,0.49,0.157,0.617c0.072,0.043,0.151,0.063,0.23,0.063c0.153,0,0.302-0.078,0.387-0.22
		c2.097-3.522,5.881-5.733,8.545-7.089c9.005-4.586,19.489-6.58,29.522-5.6c0.245,0.016,0.468-0.157,0.492-0.405
		C389.868,275.732,389.687,275.513,389.44,275.488z M363.706,275.146c-0.013-0.247-0.192-0.441-0.475-0.424
		c-9.131,0.509-18.024,5.502-23.206,13.03c-0.141,0.205-0.089,0.485,0.116,0.626c0.077,0.054,0.166,0.079,0.255,0.079
		c0.142,0,0.283-0.068,0.371-0.195c5.027-7.302,13.654-12.147,22.515-12.641C363.53,275.607,363.72,275.395,363.706,275.146z
		 M369.071,293.608c-0.49,0.115-0.73,0.881-0.535,1.71c0.195,0.829,0.751,1.407,1.241,1.292c0.491-0.116,0.73-0.881,0.535-1.71
		S369.562,293.492,369.071,293.608z M362.374,295.263c-0.49,0.116-0.73,0.881-0.535,1.71c0.195,0.829,0.751,1.407,1.241,1.292
		c0.49-0.115,0.73-0.881,0.535-1.71C363.42,295.726,362.864,295.148,362.374,295.263z M369.05,299.482
		c-0.204,0.143-0.252,0.424-0.11,0.627c0.286,0.406,0.256,1.029-0.072,1.423c-0.321,0.398-0.917,0.562-1.414,0.396
		c-0.493-0.166-0.875-0.658-0.931-1.195c-0.026-0.248-0.264-0.428-0.493-0.402c-0.248,0.025-0.428,0.246-0.402,0.493
		c0.091,0.891,0.709,1.678,1.538,1.957c0.227,0.077,0.462,0.113,0.697,0.113c0.654,0,1.297-0.286,1.703-0.792
		c0.581-0.698,0.629-1.777,0.113-2.511C369.534,299.388,369.252,299.339,369.05,299.482z"/>
	<path d="M157.348,289.531c1.252-4.829,2.747-10.168,6.191-14.137c0.132-0.153,0.147-0.375,0.036-0.544
		c-0.111-0.168-0.319-0.24-0.514-0.181c-7.197,2.307-13.059,8.446-15.065,15.724c-6.023-2.386-13.004-2.057-18.78,0.914
		c-0.176,0.09-0.272,0.285-0.238,0.479s0.193,0.344,0.389,0.368c4.173,0.509,8.206,2.515,11.129,5.52
		c-5.484,6.42-7.672,15.443-5.711,23.655c0.048,0.199,0.223,0.34,0.427,0.346h0.011c0.2,0,0.377-0.132,0.432-0.325
		c1.86-6.389,5.646-12.214,10.703-16.5c0.215,3.433,1.958,7.009,4.876,9.946c2.876,2.876,6.485,4.9,9.934,6.726
		c0.176,0.094,0.393,0.06,0.533-0.083c0.14-0.143,0.168-0.362,0.07-0.536c-3.479-6.193-4.905-13.47-4.027-20.522
		c8.646-2.699,17.139-3.361,24.58-1.918c0.187,0.035,0.38-0.051,0.476-0.218c0.096-0.166,0.076-0.376-0.051-0.521
		C176.592,290.67,166.469,287.431,157.348,289.531z M157.2,299.609c-0.166,0.053-0.287,0.197-0.31,0.369
		c-0.912,6.839,0.292,13.9,3.396,20.049c-2.977-1.616-5.982-3.438-8.413-5.868c-3.016-3.036-4.705-6.767-4.634-10.239
		c0.004-0.174-0.095-0.335-0.251-0.413c-0.063-0.032-0.132-0.047-0.199-0.047c-0.1,0-0.2,0.033-0.281,0.099
		c-5.105,4.086-9.032,9.674-11.186,15.876c-1.264-7.597,1.009-15.687,6.122-21.477c0.153-0.173,0.15-0.436-0.008-0.604
		c-2.752-2.965-6.52-5.053-10.508-5.86c5.426-2.337,11.753-2.385,17.199-0.076c0.121,0.051,0.259,0.047,0.377-0.011
		c0.118-0.059,0.204-0.166,0.236-0.294c1.668-6.692,6.733-12.447,13.115-15.048c-3.034,4.154-4.373,9.342-5.567,13.971
		c-0.04,0.155,0.005,0.319,0.119,0.432c0.113,0.113,0.279,0.156,0.432,0.116c8.559-2.256,18.166,0.457,24.336,6.762
		C173.832,296.179,165.575,296.954,157.2,299.609z M197.375,334.931c-1.688-0.463-3.393-0.113-5.042,0.223
		c-1.007,0.207-2.049,0.419-3.053,0.436c-1.253,0.009-2.493-0.301-3.632-0.879c1.099-0.845,2.176-1.757,3.196-2.754
		c3.842-3.782,6.809-7.676,9.338-12.253c4.274-7.73,6.454-15.149,6.478-22.05c0.039-8.356-3.291-16.14-8.908-20.822
		c-2.63-2.188-5.859-3.892-10.469-5.527c-5.134-1.821-9.854-2.867-14.43-3.195c-6.649-0.48-13.964,0.531-22.367,3.089
		c-4.758,1.446-8.218,2.905-11.218,4.731c-3.713,2.258-7.226,5.457-10.441,9.509c-8.899,11.21-13.044,25.789-11.372,40
		c0.54,4.571,1.583,8.036,3.285,10.905c3.256,5.454,9.47,9.297,17.049,10.545c2.11,0.344,4.231,0.487,6.335,0.487
		c4.8,0,9.5-0.74,13.733-1.503c0.345,2.681,0.926,5.026,1.791,7.128c1.895,4.618,5.263,8.059,9.24,9.443
		c1.575,0.547,3.313,0.813,5.362,0.813c0.678,0,1.391-0.029,2.143-0.087c9.242-0.726,17.94-5.236,23.866-12.376
		c2.444-2.961,3.709-5.68,3.867-8.311C202.307,339.505,200.701,335.848,197.375,334.931z M155.968,344.939
		c-6.086,1.101-13.153,2.183-20.032,1.062c-7.317-1.204-13.302-4.892-16.421-10.116c-1.635-2.757-2.64-6.109-3.165-10.551
		c-1.645-13.974,2.431-28.311,11.183-39.335c3.148-3.967,6.582-7.096,10.204-9.299c2.933-1.784,6.329-3.214,11.012-4.637
		c6.97-2.122,13.172-3.166,18.853-3.166c1.08,0,2.143,0.038,3.187,0.113c4.494,0.323,9.137,1.352,14.194,3.146
		c4.505,1.597,7.65,3.254,10.193,5.37c5.413,4.512,8.622,12.035,8.584,20.126c-0.024,6.748-2.166,14.022-6.366,21.617
		c-2.486,4.499-5.403,8.327-9.181,12.046c-1.159,1.133-2.386,2.177-3.648,3.107c-0.001,0-0.001,0.001-0.002,0.002
		c-0.002,0.001-0.004,0.003-0.006,0.005c-8.311,6.196-19.016,8.771-28.393,10.474C156.124,344.908,156.078,344.917,155.968,344.939z
		 M201.229,342.427c-0.146,2.436-1.344,4.984-3.662,7.792c-5.685,6.85-14.374,11.357-23.242,12.053
		c-2.894,0.22-5.164,0.006-7.14-0.68c-3.733-1.298-6.905-4.554-8.702-8.933c-0.84-2.042-1.404-4.327-1.738-6.949
		c9.294-1.706,19.818-4.302,28.118-10.396c1.366,0.776,2.878,1.174,4.43,1.177c1.091-0.018,2.174-0.24,3.222-0.454
		c1.617-0.331,3.145-0.642,4.622-0.238C199.902,336.561,201.388,339.767,201.229,342.427z M181.002,344.77
		c-0.49,0.116-0.73,0.881-0.535,1.71c0.195,0.829,0.751,1.407,1.241,1.292c0.49-0.115,0.73-0.881,0.535-1.71
		C182.049,345.233,181.493,344.655,181.002,344.77z M180.981,350.645c-0.203,0.143-0.252,0.424-0.109,0.627
		c0.285,0.406,0.255,1.029-0.073,1.423c-0.32,0.398-0.914,0.564-1.414,0.396c-0.493-0.166-0.875-0.658-0.93-1.196
		c-0.026-0.248-0.249-0.433-0.494-0.402c-0.247,0.026-0.427,0.246-0.402,0.493c0.092,0.891,0.71,1.677,1.538,1.957
		c0.227,0.077,0.462,0.113,0.697,0.113c0.654,0,1.297-0.286,1.703-0.792c0.581-0.698,0.629-1.777,0.113-2.511
		C181.466,350.551,181.186,350.501,180.981,350.645z M174.305,346.426c-0.49,0.115-0.73,0.881-0.535,1.71
		c0.195,0.829,0.751,1.407,1.241,1.292c0.49-0.115,0.73-0.881,0.535-1.71C175.351,346.888,174.795,346.31,174.305,346.426z"/>
	<path d="M68.611,272.89c0.348-0.777,0.257-1.574-0.202-1.78c-0.46-0.206-1.115,0.257-1.463,1.035
		c-0.348,0.777-0.257,1.574,0.202,1.78C67.608,274.13,68.263,273.667,68.611,272.89z M71.203,277.497
		c-0.232,0.012-0.458,0.184-0.467,0.433c-0.02,0.495-0.421,0.972-0.922,1.086c-0.493,0.122-1.069-0.106-1.364-0.544
		c-0.29-0.432-0.296-1.055-0.014-1.515c0.13-0.212,0.063-0.49-0.149-0.619c-0.212-0.133-0.49-0.064-0.619,0.148
		c-0.468,0.763-0.454,1.764,0.035,2.489c0.413,0.612,1.123,0.975,1.835,0.975c0.163,0,0.325-0.018,0.485-0.058
		c0.884-0.201,1.578-1.03,1.613-1.927C71.645,277.717,71.451,277.508,71.203,277.497z M74.736,273.859
		c-0.46-0.206-1.115,0.257-1.463,1.035c-0.348,0.777-0.257,1.574,0.202,1.78c0.46,0.206,1.115-0.257,1.463-1.034
		C75.286,274.862,75.196,274.065,74.736,273.859z M96.449,320.404c-0.316-0.91-0.754-1.935-1.615-2.64
		c-0.823-0.683-2.192-1.014-3.214-0.324c-1.227,0.823-1.184,2.354-1.147,3.703c0.011,0.398,0.023,0.794,0.002,1.167
		c-0.144,2.581-2.556,4.851-5.377,5.062c-2.58,0.189-5.293-1.159-7.071-3.55c-1.505-2.02-2.376-4.688-2.587-7.929
		c-0.248-3.825,0.44-7.696,1.989-11.191c1.794-4.042,4.719-7.562,7.547-10.967c3.177-3.823,6.463-7.777,8.2-12.516
		c1.976-5.393,1.768-11.485-0.571-16.715c-1.025-2.282-2.395-4.13-3.966-5.369c-0.199-1.446-1.117-2.863-2.5-3.822
		c-1.197-0.843-2.584-1.301-3.89-1.626c2.45-1.951,4.078-4.399,4.621-6.975c0.711-3.372-0.62-6.885-3.235-8.544
		c-0.119-0.075-0.267-0.091-0.398-0.042c-2.417,0.901-4.709,2.101-6.811,3.566c-0.151,0.105-0.223,0.292-0.181,0.471
		c0.041,0.179,0.188,0.315,0.37,0.343c1.889,0.291,3.441,2.178,3.61,4.391c0.177,2.197-0.863,4.232-1.853,5.636
		c-3.015-1.315-6.24-1.497-8.899-0.491c-0.881,0.329-1.543,0.765-1.997,1.287c-2.869-0.051-5.839,0.663-8.606,2.075
		c-3.193,1.622-6.21,4.171-8.965,7.577c-6.676,8.285-10.232,19.786-9.755,31.557c0.419,10.349,3.869,21.339,9.978,31.779
		c2.048,3.508,5.313,8.582,9.997,12.139c4.577,3.48,10.283,5.316,15.994,5.316c2.686,0,5.374-0.406,7.944-1.239
		c3.835-1.234,7.058-3.287,9.32-5.936C97.124,332.218,98.327,325.862,96.449,320.404z M67.785,254.472
		c0.068-0.158,0.146-0.29,0.24-0.404c0.005-0.006,0.01-0.012,0.014-0.018c0.344-0.465,0.933-0.855,1.752-1.161
		c2.537-0.959,5.648-0.734,8.54,0.617c0.193,0.09,0.425,0.032,0.552-0.139c1.139-1.529,2.452-3.904,2.241-6.537
		c-0.17-2.23-1.558-4.186-3.382-4.935c1.753-1.139,3.632-2.093,5.597-2.842c2.182,1.508,3.269,4.545,2.652,7.475
		c-0.552,2.618-2.343,5.108-5.043,7.012c-0.146,0.103-0.217,0.282-0.182,0.457c0.035,0.175,0.171,0.313,0.345,0.351
		c1.473,0.324,3.157,0.749,4.515,1.704c1.233,0.855,2.037,2.112,2.151,3.37c0.015,0.148,0.015,0.296,0.007,0.447
		c-0.033,0.771-0.422,1.549-1.039,2.083c-0.514,0.444-1.126,0.655-1.705,0.595c-1.609-0.172-2.574-2.036-3.234-3.642
		c-0.071-0.172-0.229-0.32-0.429-0.275c-0.186,0.004-0.352,0.127-0.414,0.303c-0.371,1.043-0.754,2.121-1.46,2.927
		c-0.61,0.689-1.657,1.256-2.622,0.975c-1.02-0.308-1.567-1.469-1.645-2.416c-0.094-1.154,0.303-2.335,0.654-3.378
		c0.058-0.172,0.007-0.361-0.129-0.481c-0.084-0.074-0.19-0.112-0.298-0.112c-0.067,0-0.134,0.015-0.196,0.045
		c-1.797,0.869-3.416,1.566-5.046,1.312c-0.914-0.149-1.833-0.802-2.285-1.626C67.707,255.769,67.498,255.14,67.785,254.472z
		 M92.699,336.014c-2.153,2.522-5.235,4.48-8.911,5.664c-7.76,2.513-16.617,1.004-23.116-3.938
		c-4.556-3.459-7.755-8.434-9.764-11.876c-6.035-10.313-9.443-21.157-9.856-31.361c-0.468-11.555,3.016-22.837,9.556-30.954
		c2.674-3.306,5.592-5.776,8.673-7.34c2.463-1.256,5.096-1.929,7.643-1.975c-0.282,0.753-0.213,1.591,0.22,2.378
		c0.588,1.07,1.738,1.887,2.933,2.081c1.65,0.259,3.251-0.311,4.635-0.943c-0.257,0.86-0.453,1.784-0.376,2.741
		c0.106,1.283,0.852,2.772,2.286,3.206c0.253,0.074,0.516,0.11,0.783,0.11c0.979,0,2.005-0.487,2.772-1.354
		c0.569-0.648,0.941-1.404,1.25-2.183c0.746,1.53,1.815,2.99,3.518,3.172c0.835,0.083,1.685-0.202,2.389-0.81
		c0.7-0.605,1.152-1.459,1.291-2.338c1.532,1.404,2.553,3.222,3.161,4.577c2.243,5.017,2.443,10.862,0.547,16.037
		c-1.684,4.592-4.918,8.486-8.047,12.25c-2.868,3.452-5.834,7.02-7.678,11.177c-1.607,3.628-2.321,7.645-2.064,11.615
		c0.223,3.418,1.153,6.248,2.763,8.409c1.962,2.635,4.973,4.123,7.862,3.91c3.255-0.243,6.039-2.894,6.208-5.909
		c0.022-0.398,0.011-0.82-0.001-1.243c-0.034-1.226-0.067-2.384,0.749-2.931c0.648-0.438,1.584-0.188,2.138,0.272
		c0.69,0.565,1.063,1.449,1.337,2.24C97.373,325.86,96.236,331.871,92.699,336.014z"/>
	<path d="M343.243,161.814c-0.091,0.231,0.021,0.493,0.252,0.585c0.055,0.021,0.111,0.032,0.166,0.032
		c0.179,0,0.348-0.108,0.419-0.284c0.61-1.538,0.448-3.363-0.424-4.764c-0.132-0.212-0.409-0.274-0.621-0.144
		c-0.211,0.132-0.275,0.409-0.144,0.62C343.615,159.021,343.75,160.536,343.243,161.814z M383.431,193.764
		c-2.738-5.211-7.242-9.019-12.356-10.448c-5.256-1.468-11.082-0.142-14.813,3.299c-0.669-3.297-3.285-6.248-6.887-7.679
		c-3.096-1.226-6.883-1.388-11.256-0.481c-3.254,0.682-6.065,1.988-8.02,3.698c-0.648-1.454-1.733-2.525-3.024-3.003
		c2.995-2.035,5.102-4.056,6.586-6.311c2.079-3.161,2.801-6.776,1.977-9.92c-0.848-3.202-3.426-5.723-6.362-6.364
		c4.751-3.891,7.041-10.329,5.598-16.032c-1.535-6.095-7.534-10.705-13.573-10.512c0.439-4.914-2.793-9.985-7.708-11.963
		c-4.587-1.859-10.408-0.982-14.828,2.233c-3.899,2.836-6.807,7.385-8.195,12.84c-0.174,0.696-0.354,1.415-0.828,1.825
		c-0.3,0.253-0.708,0.383-1.14,0.519l-0.138,0.044c-5.45,1.724-9.983,6.161-11.828,11.578c-1.767,5.161-1.054,11.119,1.843,15.745
		c-3.404,0.317-6.654,2.304-8.439,5.215c-0.368,0.598-0.652,1.251-0.896,1.925c-2.896-3.684-7.455-5.803-11.726-5.422
		c0.226-4.588-2.002-9.173-5.778-11.804c-3.924-2.741-9.25-3.173-13.566-1.101c-1.778,0.846-3.062,2.028-3.694,3.382
		c-4.683-5.115-12.231-7.75-19.458-6.744c-7.056,0.983-13.809,5.321-18.064,11.606c-1.711,2.526-2.802,5.029-3.241,7.442
		c-0.931,5.228,1.021,11.175,5.364,16.381c-3.565,3.121-4.662,8.698-2.474,12.918c2.261,4.361,7.725,6.687,12.495,5.278
		c0.36-0.108,0.7-0.209,0.962-0.135c0.44,0.132,0.675,0.715,0.901,1.279l0.055,0.137c0.158,0.38,0.358,0.759,0.592,1.12
		c1.636,2.622,5.001,4.342,8.574,4.383c3.686,0.043,7.201-1.454,9.957-2.854c1.245,3.807,5.201,6.758,9.833,7.265
		c3.568,0.387,7.51-0.479,12.03-2.652c0.127,2.973,1.729,5.866,4.217,7.524c2.494,1.66,5.797,2.021,8.601,0.986
		c0.027,2.872,0.728,5.719,2.031,8.311c-9.9,1.777-18.133,5.393-24.456,10.773c-4.185,3.561-7.73,7.834-10.537,12.701
		c-2.6,4.506-4.436,9.312-5.455,14.284c-1.783,8.613-1.162,17.557-0.563,26.208c0.193,2.782,0.393,5.659,0.509,8.481
		c0.281,6.581,0.045,11.576-0.768,16.197c-0.801,4.577-2.253,9.095-3.657,13.464c-0.954,2.97-1.941,6.041-2.722,9.121
		c-0.672,2.663-1.199,5.496-0.504,8.176c1.004,3.868,4.626,7.088,9.228,8.205c1.547,0.379,3.117,0.531,4.671,0.531
		c2.758,0,5.464-0.478,7.898-1.005c16.594-3.596,32.313-12.206,44.26-24.244c11.962-12.034,20.47-27.807,23.954-44.414
		c2.224-10.608,3.299-26.149-4.206-39.94c-1.386-2.547-3.088-4.931-5.036-7.117c1.687-0.286,3.367-0.897,4.901-1.83
		c2.463-1.49,4.663-3.747,6.549-6.719c1.343,3.408,4.937,5.793,8.64,5.568c3.5-0.217,6.64-2.765,7.73-6.057
		c2.239,5.146,7.56,8.859,13.198,9.03c5.967,0.182,11.816-3.617,14.132-9.098c3.504,2.247,7.934,2.976,11.971,1.941
		c4.211-1.087,7.875-4.071,9.803-7.984c1.426-2.912,1.827-6.896-0.299-9.579c4.826-1.797,8.365-5.512,9.305-9.827
		C386.167,200.146,384.762,196.293,383.431,193.764z M270.807,168.52c1.768-2.882,5.099-4.778,8.486-4.829
		c0.166-0.003,0.318-0.096,0.393-0.245c0.076-0.148,0.065-0.326-0.03-0.462c-3.1-4.479-3.931-10.458-2.168-15.604
		c1.755-5.152,6.065-9.371,11.249-11.011l0.136-0.043c0.498-0.158,1.012-0.321,1.453-0.693c0.694-0.6,0.918-1.499,1.123-2.319
		c1.329-5.221,4.115-9.59,7.844-12.303c4.174-3.036,9.654-3.872,13.961-2.126c4.645,1.869,7.76,6.939,7.09,11.542
		c-0.019,0.136,0.024,0.273,0.118,0.373c0.093,0.1,0.226,0.15,0.364,0.141c5.785-0.471,11.694,3.931,13.174,9.804
		c1.439,5.691-1.077,12.165-6.12,15.744c-0.157,0.111-0.226,0.309-0.172,0.493c0.054,0.184,0.218,0.314,0.41,0.324
		c2.997,0.154,5.793,2.611,6.649,5.843c0.758,2.896,0.081,6.247-1.859,9.195c-1.552,2.359-3.837,4.464-7.19,6.624
		c-0.161,0.103-0.238,0.297-0.194,0.482c0.044,0.186,0.201,0.324,0.39,0.344c1.54,0.166,2.821,1.297,3.48,3.033
		c-0.967,1.01-1.673,2.139-2.081,3.375c-3.52-1.7-7.938-1.965-12.224-0.712c-3.693,1.087-7.305,3.215-11.042,6.507
		c-2.608,2.296-8.398,8.264-7.076,14.986c-1.286,0.018-2.566,0.266-3.822,0.73c10.815-21.241,15.746-44.933,14.239-68.613
		c-0.016-0.247-0.182-0.428-0.478-0.421c-0.248,0.016-0.436,0.23-0.421,0.478c1.52,23.878-3.539,47.774-14.627,69.117
		c-3.151,1.568-5.864,4.526-7.272,7.954c-1.383,3.337-1.818,7.285-1.321,11.732c-1.951-0.636-3.923-1.069-5.883-1.293
		c1.981-1.876,3.118-4.057,3.296-6.362c0.184-2.398-0.664-4.825-2.394-6.868c2.776-4.915,3.709-10.204,2.627-14.925
		c-1.202-5.299-5.148-9.611-9.909-10.897c2.03-5.284,1.87-11.033-0.454-15.478c-0.236-0.449-0.495-0.873-0.766-1.275
		C270.031,170.028,270.366,169.238,270.807,168.52z M265.631,218.297c0.004-0.156-0.072-0.303-0.202-0.388
		c-0.13-0.085-0.295-0.097-0.436-0.033c-2.654,1.223-5.939,0.967-8.37-0.65c-2.439-1.626-3.937-4.561-3.818-7.479
		c0.007-0.159-0.072-0.311-0.206-0.397c-0.134-0.086-0.303-0.095-0.446-0.024c-4.633,2.328-8.617,3.27-12.179,2.882
		c-4.482-0.49-8.271-3.422-9.215-7.13c-0.034-0.133-0.127-0.244-0.252-0.3c-0.125-0.057-0.269-0.052-0.392,0.011
		c-2.897,1.505-6.335,3.034-10.019,3.003c-3.273-0.037-6.343-1.591-7.824-3.965c-0.208-0.322-0.383-0.651-0.518-0.978l-0.053-0.131
		c-0.277-0.691-0.623-1.551-1.486-1.809c-0.521-0.148-1.026,0.003-1.529,0.154c-4.311,1.273-9.311-0.856-11.38-4.846
		c-2.068-3.988-0.93-9.301,2.591-12.096c0.096-0.076,0.156-0.188,0.168-0.31c0.012-0.122-0.027-0.244-0.107-0.336
		c-4.372-5.082-6.36-10.907-5.456-15.983c0.417-2.288,1.46-4.676,3.101-7.097c4.115-6.076,10.635-10.27,17.442-11.219
		c7.197-1.002,14.711,1.747,19.148,7.005c0.108,0.128,0.276,0.186,0.44,0.15c0.163-0.036,0.293-0.158,0.338-0.319
		c0.53-1.898,2.413-3.04,3.49-3.552c3.967-1.906,9.054-1.493,12.662,1.027c3.665,2.554,5.768,7.081,5.357,11.533
		c-0.012,0.137,0.038,0.272,0.138,0.367c0.1,0.095,0.235,0.141,0.374,0.12c4.358-0.607,9.151,1.671,11.926,5.676
		c0.298,0.426,0.58,0.889,0.835,1.374c2.273,4.348,2.357,10.031,0.226,15.202c-0.051,0.123-0.045,0.262,0.017,0.38
		c0.062,0.118,0.172,0.202,0.302,0.231c4.656,1.031,8.569,5.187,9.738,10.343c1.051,4.589,0.096,9.757-2.689,14.553
		c-0.098,0.168-0.076,0.381,0.055,0.526c1.708,1.908,2.553,4.197,2.381,6.445c-0.176,2.292-1.427,4.467-3.609,6.304
		c-0.124-0.011-0.245-0.017-0.367-0.024c0.069-5.506-1.27-11.542-4.005-17.958c-9.06-21.286-28.746-37.481-51.374-42.265
		c-0.248-0.05-0.482,0.104-0.534,0.347c-0.051,0.244,0.104,0.482,0.348,0.534c22.346,4.724,41.785,20.716,50.732,41.737
		c2.683,6.293,3.997,12.2,3.933,17.574c-1.424-0.043-2.853,0.006-4.25,0.177c-0.988,0.122-1.987,0.275-2.976,0.441
		C266.259,224.377,265.547,221.34,265.631,218.297z M303.616,246.242c7.375,13.55,6.31,28.864,4.117,39.324
		c-3.451,16.438-11.871,32.052-23.712,43.964c-11.827,11.916-27.387,20.439-43.813,23.999c-3.706,0.803-8.048,1.488-12.165,0.479
		c-4.285-1.04-7.648-4.006-8.57-7.557c-0.644-2.483-0.138-5.182,0.505-7.728c0.774-3.051,1.756-6.109,2.706-9.066
		c1.414-4.398,2.875-8.947,3.687-13.584c0.791-4.499,1.039-9.353,0.807-15.613c6.429,3.507,13.814,5.342,21.136,5.342
		c3.949,0,7.879-0.529,11.623-1.607c0.238-0.069,0.376-0.318,0.308-0.558c-0.069-0.238-0.316-0.378-0.558-0.308
		c-10.629,3.06-22.775,1.596-32.549-3.906c-0.118-2.751-0.309-5.543-0.496-8.247c-0.596-8.589-1.212-17.472,0.546-25.964
		c0.969-4.725,2.696-9.294,5.122-13.596c13.039,8.882,28.513,13.642,44.151,13.642c1.852,0,3.707-0.067,5.56-0.201
		c0.248-0.018,0.435-0.234,0.417-0.482c-0.019-0.249-0.238-0.435-0.482-0.417c-17.317,1.257-34.767-3.478-49.194-13.325
		c2.721-4.626,6.121-8.698,10.122-12.103c6.326-5.384,14.609-8.98,24.616-10.69h0.001c1.084-0.187,2.182-0.349,3.266-0.483
		c1.081-0.132,2.18-0.198,3.285-0.198c0.431,0,0.863,0.01,1.295,0.03c0.312,0.009,0.625,0.026,0.951,0.062
		c2.447,0.191,4.918,0.72,7.346,1.571c1.957,0.676,3.913,1.575,5.813,2.676c3.203,1.849,6.134,4.199,8.714,6.987
		C300.303,240.98,302.135,243.522,303.616,246.242z M384.421,203.948c-0.901,4.129-4.57,7.813-9.348,9.387
		c-0.149,0.049-0.26,0.171-0.297,0.322c-0.036,0.152,0.008,0.311,0.118,0.422c2.325,2.351,1.972,6.249,0.592,9.068
		c-1.813,3.68-5.26,6.486-9.219,7.509c-3.97,1.017-8.342,0.223-11.701-2.122c-0.114-0.08-0.258-0.102-0.391-0.061
		c-0.133,0.041-0.239,0.142-0.289,0.272c-2.025,5.413-7.663,9.211-13.471,9.039c-5.776-0.175-11.2-4.31-12.896-9.833
		c-0.061-0.202-0.249-0.341-0.469-0.316c-0.211,0.018-0.382,0.181-0.408,0.392c-0.447,3.522-3.693,6.567-7.237,6.786
		c-3.533,0.212-7.144-2.405-8.02-5.849c-0.045-0.177-0.192-0.309-0.373-0.335c-0.18-0.026-0.359,0.06-0.451,0.217
		c-1.919,3.259-4.192,5.698-6.754,7.247c-1.61,0.978-3.386,1.593-5.15,1.805c-2.485-2.652-5.288-4.906-8.334-6.719
		c3.67-5.509,9.212-10.341,16.081-13.984c8.311-4.407,17.62-6.743,25.695-8.588c8.698-1.989,17.905-3.725,26.463-1.249
		c0.236,0.067,0.488-0.069,0.558-0.307c0.069-0.239-0.069-0.489-0.308-0.558c-8.765-2.536-18.101-0.779-26.913,1.237
		c-8.13,1.857-17.51,4.212-25.917,8.67c-7.018,3.721-12.683,8.67-16.436,14.32c-1.749-0.986-3.54-1.809-5.336-2.447
		c-0.556-4.465-0.152-8.402,1.215-11.701c1.348-3.283,3.956-6.111,6.975-7.566c1.671-0.808,3.393-1.179,5.119-1.118
		c0.142,0.005,0.279-0.056,0.368-0.167c0.09-0.111,0.121-0.257,0.086-0.395c-1.655-6.47,4.114-12.404,6.67-14.656
		c3.636-3.203,7.137-5.27,10.701-6.319c4.26-1.245,8.65-0.92,12.036,0.893c0.123,0.065,0.267,0.069,0.394,0.015
		c0.127-0.056,0.221-0.166,0.255-0.3c0.354-1.378,1.096-2.629,2.204-3.719c1.836-1.813,4.702-3.2,8.07-3.906
		c4.193-0.872,7.808-0.724,10.74,0.437c3.56,1.415,6.155,4.561,6.456,7.829c0.017,0.176,0.134,0.327,0.302,0.384
		c0.168,0.057,0.353,0.011,0.475-0.117c3.453-3.671,9.303-5.153,14.557-3.686c4.877,1.362,9.178,5.007,11.802,9.999
		C383.895,196.58,385.229,200.22,384.421,203.948z M339.792,157.111c0.508,0.204,0.953,0.635,1.252,1.206
		c0.252,0.507,0.408,1.117,0.476,1.866c0.137,1.538-0.126,3.092-0.763,4.494c-0.103,0.226-0.003,0.493,0.223,0.596
		c0.061,0.028,0.124,0.04,0.186,0.04c0.171,0,0.334-0.098,0.41-0.264c0.701-1.543,0.991-3.253,0.84-4.947
		c-0.077-0.863-0.263-1.578-0.571-2.195c-0.401-0.768-1.012-1.348-1.718-1.632c-0.231-0.092-0.493,0.018-0.586,0.25
		C339.449,156.755,339.561,157.018,339.792,157.111z M279.164,244.072c-0.46-0.206-1.115,0.257-1.463,1.035
		c-0.348,0.777-0.257,1.574,0.202,1.78c0.46,0.206,1.115-0.257,1.463-1.034C279.715,245.075,279.624,244.278,279.164,244.072z
		 M251.803,282.555c-1.155-0.278-2.344-0.294-3.494-0.31c-0.517-0.007-1.034-0.014-1.547-0.045
		c-4.381-0.264-8.562-2.298-11.472-5.578c-0.165-0.186-0.451-0.202-0.636-0.038c-0.186,0.165-0.203,0.449-0.038,0.636
		c3.067,3.457,7.474,5.6,12.092,5.878c0.527,0.032,1.058,0.04,1.589,0.047c1.151,0.016,2.238,0.031,3.295,0.285
		c0.036,0.008,0.071,0.012,0.106,0.012c0.203,0,0.388-0.139,0.438-0.345C252.194,282.856,252.045,282.613,251.803,282.555z
		 M273.039,243.103c0.348-0.777,0.257-1.574-0.202-1.78c-0.46-0.206-1.115,0.257-1.463,1.035c-0.348,0.777-0.257,1.574,0.202,1.78
		C272.036,244.343,272.691,243.88,273.039,243.103z M275.631,247.711c-0.291-0.017-0.458,0.185-0.468,0.432
		c-0.019,0.496-0.42,0.972-0.92,1.086c-0.497,0.122-1.07-0.107-1.364-0.544c-0.29-0.431-0.296-1.054-0.014-1.515
		c0.129-0.212,0.063-0.49-0.149-0.619c-0.21-0.129-0.489-0.064-0.619,0.149c-0.467,0.764-0.453,1.764,0.035,2.488
		c0.412,0.612,1.123,0.975,1.836,0.975c0.162,0,0.325-0.019,0.484-0.058c0.885-0.202,1.578-1.031,1.613-1.927
		C276.073,247.93,275.879,247.721,275.631,247.711z"/>
	<path d="M423.817,210.448c-0.503,0.023-0.879,0.732-0.84,1.582c0.039,0.851,0.479,1.521,0.982,1.498
		c0.503-0.023,0.879-0.732,0.84-1.582C424.76,211.095,424.32,210.425,423.817,210.448z M471.137,222.041
		c-1.829-8.566-7.928-16.138-15.92-19.763c-2.41-1.086-5.054-1.848-7.854-2.303c2.32-2.457,3.892-5.54,4.438-8.786
		c0.033-0.197-0.068-0.393-0.248-0.48c-0.179-0.089-0.396-0.047-0.53,0.103c-2.648,2.922-5.949,4.939-9.294,5.682
		c-1.39,0.311-2.807,0.388-4.217,0.251c-0.64-3.011,0.724-6.154,1.621-7.793c2.997-5.514,8.168-9.696,14.188-11.475
		c0.177-0.052,0.304-0.206,0.321-0.389c0.017-0.183-0.078-0.358-0.242-0.443l-7.889-4.08c-0.587-0.304-1.174-0.57-1.83-0.466
		c-0.553,0.103-0.981,0.441-1.336,0.749c-2.777,2.382-5.11,5.197-6.934,8.369c-2.648,4.629-3.699,9.641-2.985,13.93
		c-0.385-0.226-0.758-0.466-1.105-0.732c-2.987-2.304-4.484-6.146-3.726-9.562c0.045-0.201-0.053-0.407-0.237-0.5
		c-0.187-0.093-0.408-0.05-0.543,0.106c-1.3,1.493-2.918,3.352-3.906,5.491c-0.889,1.898-1.173,3.89-0.825,5.634
		c-2.473-1.748-4.036-4.821-3.892-7.836c0.01-0.196-0.109-0.376-0.293-0.444c-0.183-0.066-0.391-0.009-0.512,0.146
		c-2.6,3.341-2.978,8.26-0.922,11.961c0.876,1.582,2.214,2.944,3.819,3.919c-4.409,1.59-8.196,3.535-11.533,5.937
		c-6.416,4.625-10.851,10.882-12.488,17.616c-0.966,3.997-2.114,9.991-0.932,15.867c1.164,5.78,4.19,10.932,8.522,14.508
		c4.973,4.109,11.969,6.401,20.793,6.813c1.004,0.048,1.999,0.071,2.99,0.071c12.007,0,22.907-3.497,30.947-9.979
		C468.501,246.18,473.545,233.27,471.137,222.041z M436.193,181.665c1.773-3.082,4.04-5.819,6.741-8.135
		c0.268-0.232,0.582-0.484,0.9-0.544c0.375-0.06,0.798,0.136,1.265,0.378l6.927,3.582c-5.8,2.003-10.746,6.173-13.682,11.573
		c-1.567,2.863-2.174,5.708-1.762,8.105c-1.115-0.18-2.172-0.498-3.151-0.954C432.512,191.448,433.506,186.36,436.193,181.665z
		 M417.254,198.975c-1.663-2.992-1.591-6.852,0.082-9.823c0.346,3.263,2.355,6.29,5.298,7.82c0.165,0.086,0.369,0.061,0.509-0.066
		c0.14-0.126,0.186-0.325,0.117-0.5c-0.691-1.752-0.522-3.966,0.467-6.077c0.682-1.475,1.629-2.755,2.784-4.132
		c-0.156,3.316,1.443,6.757,4.261,8.93c0.618,0.475,1.296,0.89,2.011,1.238c0.005,0.004,0.011,0.006,0.017,0.009
		c0.011,0.005,0.02,0.012,0.031,0.017c1.303,0.639,2.738,1.05,4.26,1.223c1.616,0.195,3.242,0.114,4.836-0.242
		c3.114-0.691,6.077-2.342,8.648-4.807c-0.747,2.701-2.24,5.22-4.294,7.238c-5.14-0.666-11.004-0.302-17.438,1.095
		c-2.612,0.572-5.106,1.257-7.426,2.033C419.647,202.03,418.172,200.634,417.254,198.975z M458.02,253.463
		c-8.531,6.878-20.367,10.326-33.329,9.709c-8.625-0.403-15.441-2.626-20.262-6.608c-4.173-3.445-7.09-8.413-8.213-13.991
		c-1.147-5.701-0.022-11.564,0.924-15.477c1.586-6.526,5.896-12.598,12.138-17.098c3.502-2.521,7.506-4.534,12.239-6.154
		c2.34-0.791,4.869-1.487,7.518-2.067c4.299-0.933,8.335-1.401,12.06-1.401c1.843,0,3.609,0.115,5.293,0.344
		c3.036,0.417,5.882,1.217,8.458,2.378c7.734,3.508,13.639,10.839,15.409,19.131C472.595,233.134,467.677,245.687,458.02,253.463z
		 M430.705,210.053c-0.503,0.023-0.879,0.732-0.84,1.582c0.039,0.851,0.479,1.521,0.982,1.498c0.503-0.023,0.879-0.732,0.84-1.582
		C431.648,210.7,431.208,210.029,430.705,210.053z M429.188,214.893c-0.226,0.103-0.326,0.37-0.223,0.596
		c0.207,0.452,0.063,1.057-0.333,1.385c-0.387,0.332-1.001,0.386-1.463,0.129c-0.453-0.254-0.738-0.808-0.694-1.347
		c0.021-0.248-0.164-0.465-0.412-0.486c-0.228-0.011-0.464,0.164-0.486,0.412c-0.074,0.892,0.389,1.779,1.152,2.206
		c0.333,0.187,0.708,0.278,1.08,0.278c0.511,0,1.017-0.172,1.403-0.504c0.699-0.578,0.946-1.631,0.573-2.447
		C429.682,214.89,429.415,214.79,429.188,214.893z"/>
</g>
</svg>
