<?xml version="1.0" encoding="UTF-8" standalone="no"?>
<svg
   xmlns:dc="http://purl.org/dc/elements/1.1/"
   xmlns:cc="http://creativecommons.org/ns#"
   xmlns:rdf="http://www.w3.org/1999/02/22-rdf-syntax-ns#"
   xmlns:svg="http://www.w3.org/2000/svg"
   xmlns="http://www.w3.org/2000/svg"
   viewBox="0 0 2721.2534 1906.5867"
   height="180"
   width="200"
   xml:space="preserve"
   id="svg2"
   version="1.1"><metadata
     id="metadata8"><rdf:RDF><cc:Work
         rdf:about=""><dc:format>image/svg+xml</dc:format><dc:type
           rdf:resource="http://purl.org/dc/dcmitype/StillImage" /></cc:Work></rdf:RDF></metadata><defs
     id="defs6"><clipPath
       id="clipPath18"
       clipPathUnits="userSpaceOnUse"><path
         id="path16"
         d="M 0,1429.944 H 2040.945 V 0 H 0 Z" /></clipPath></defs><g
     transform="matrix(1.3333333,0,0,-1.3333333,0,1906.5867)"
     id="g10"><g
       id="g12"><g
         clip-path="url(#clipPath18)"
         id="g14"><g
           transform="translate(1268.0491,1077.2305)"
           id="g20"><path
             id="path22"
             style="fill:#008b49;fill-opacity:1;fill-rule:nonzero;stroke:none"
             d="m 0,0 c -0.363,-2.182 -0.727,-4.454 -1.272,-6.727 -13.455,-62.27 -69.361,-107.45 -132.995,-107.45 -7.454,0 -15,0.636 -22.363,1.818 -0.818,0.181 -2.182,0.363 -3.818,0.363 h -0.636 c -83.724,13.636 -169.084,20.545 -253.717,20.545 -9.546,0 -19.182,-0.091 -28.727,-0.273 -59.725,-1 -121.45,-5.727 -183.356,-13.999 -58.907,-8.182 -117.178,-19.545 -173.085,-33.908 -57.088,-14.363 -113.358,-31.999 -167.356,-52.361 -55.544,-21 -109.814,-44.999 -161.267,-71.362 -46.998,-23.908 -93.632,-50.634 -138.631,-79.723 -1.818,40.362 -0.636,81.087 3.546,121.449 39.453,23.181 81.905,45.817 126.267,67.27 53.544,25.454 107.815,48.09 161.358,67.179 54.543,19.454 109.996,36.181 164.993,49.544 55.543,13.545 111.814,24.271 167.357,31.999 54.725,7.636 111.45,12.454 168.539,14.544 19.727,0.728 39.998,1.091 60.089,1.091 35.907,0 72.27,-1.182 108.178,-3.454 55.906,-3.545 111.904,-10 166.72,-19.09 1.455,-0.182 2.909,-0.363 4.273,-0.363 12.999,0 23.998,9.363 26.09,22.18 l 2.818,17.09 c 1.182,7.091 -0.455,14.091 -4.637,19.818 -4.09,5.636 -10.181,9.454 -17.09,10.545 -56.634,9.363 -115.086,15.999 -173.72,19.908 -37.726,2.364 -75.816,3.546 -113.178,3.546 -20.817,0 -41.726,-0.364 -62.088,-1.091 -58.725,-2.091 -117.813,-7.273 -175.63,-15.273 -56.543,-7.636 -115.177,-18.817 -174.448,-33.18 -58.179,-14.363 -115.995,-31.726 -171.993,-51.725 -56.907,-20.363 -113.45,-43.999 -167.993,-70.088 -28.09,-13.454 -55.453,-27.454 -81.724,-41.817 9.999,46.18 24.09,91.36 41.816,134.813 18.545,8.909 38.09,17.817 58.271,26.635 h 0.182 l 1.727,0.818 c 57.452,24.908 115.904,46.908 173.63,65.18 59.088,18.817 119.268,34.725 178.902,47.27 59.725,12.636 121.722,22.454 184.174,29.181 62.907,6.818 128.177,10.364 194.174,10.545 102.178,-0.091 204.538,-8.454 304.261,-24.817 C -38.18,144.358 12.182,74.088 0,0" /></g><g
           transform="translate(194.9095,569.7957)"
           id="g24"><path
             id="path26"
             style="fill:#008b49;fill-opacity:1;fill-rule:nonzero;stroke:none"
             d="m 0,0 c -6.182,-50.361 -10.636,-102.178 -13.272,-154.176 l -0.182,-0.636 v -1 c -2.454,-51.725 -3,-103.269 -1.727,-153.63 -52.998,65.906 -95.087,138.812 -125.45,217.355 12.818,9.545 26.09,19.181 40.635,29.181 C -68.179,-40.725 -34.544,-19.636 0,0" /></g><g
           transform="translate(360.4487,116.3589)"
           id="g28"><path
             id="path30"
             style="fill:#008b49;fill-opacity:1;fill-rule:nonzero;stroke:none"
             d="M 0,0 C 0.909,-8.454 1.818,-16.363 2.636,-23.908 -36.271,2 -72.997,31.454 -106.814,63.634 c -0.636,9.454 -1.182,18.908 -1.727,28.271 -3.364,66.543 -3.455,134.631 -0.273,202.356 3.182,66.18 9.818,133.268 19.636,199.447 35.271,17.181 72.36,33.271 110.268,47.725 C 11.727,490.344 4.454,438.528 -0.545,387.257 -7,321.987 -10.181,256.535 -10.09,192.72 -9.909,128.632 -6.545,63.816 0,0" /></g><g
           transform="translate(1430.6792,1019.4146)"
           id="g32"><path
             id="path34"
             style="fill:#008b49;fill-opacity:1;fill-rule:nonzero;stroke:none"
             d="m 0,0 c -13.727,-50.907 -40.543,-97.723 -77.633,-135.54 -57.544,-58.543 -137.54,-92.179 -219.628,-92.179 -16.635,0 -33.453,1.364 -49.907,4.091 -75.997,12.545 -153.449,18.909 -230.173,18.909 -40.362,0 -81.087,-1.819 -121.086,-5.273 -63.815,-5.363 -128.813,-15.635 -192.992,-30.453 -58.089,-13.364 -116.268,-30.817 -172.721,-51.816 -53.634,-19.818 -107.814,-43.817 -160.993,-71.543 -51.635,-26.817 -102.36,-57.452 -150.722,-90.905 -8.181,-5.637 -16.181,-11.364 -23.908,-17 -9.909,35.272 -17.545,71.179 -22.726,107.087 5.181,3.545 10.363,7.091 15.635,10.545 48.362,31.908 97.996,60.816 147.54,86.087 50.362,25.727 102.269,48.635 154.176,68.088 51.088,19.272 104.814,36.09 159.812,49.998 53.179,13.727 108.904,24.545 165.448,32.272 58.179,8 116.995,12.545 174.902,13.545 9.182,0.181 18.272,0.273 27.362,0.273 82.179,0 165.267,-6.909 246.991,-20.363 1.182,-0.182 2.545,-0.273 4.182,-0.273 9.817,-1.455 19.726,-2.182 29.544,-2.182 96.45,0 181.265,68.543 201.719,162.994 0.727,3.364 1.272,6.636 1.818,10 8.909,54.27 -3.818,108.904 -35.998,153.812 -32.09,44.907 -79.816,74.542 -134.177,83.542 -102.814,16.908 -207.719,25.544 -311.624,25.544 h -7.273 c -65.361,0 -131.813,-3.545 -197.537,-10.636 l -5.182,-0.091 -0.363,-0.545 c -62.816,-6.727 -125.632,-16.726 -186.63,-29.817 -61.906,-13 -124.358,-29.454 -185.72,-48.907 -55.361,-17.636 -110.449,-38.089 -164.266,-60.816 31.181,53.998 68.452,104.36 111.178,149.812 38.725,12.909 78.906,24.908 119.54,35.635 67.362,17.727 136.45,32.181 205.356,42.908 75.906,11.726 152.539,19.181 227.628,22.181 26.635,1 53.634,1.545 80.36,1.545 110.632,0 221.991,-9.09 330.987,-26.999 C -130.177,364.258 -33.635,277.989 -1,163.811 14.181,109.813 14.454,54.725 0,0" /></g><g
           transform="translate(547.4414,15.272)"
           id="g36"><path
             id="path38"
             style="fill:#008b49;fill-opacity:1;fill-rule:nonzero;stroke:none"
             d="m 0,0 c 0.909,-5.454 1.818,-10.454 2.727,-15.272 -37.816,12.908 -74.815,28.726 -110.177,47.089 -3.818,26.181 -7,51.907 -9.545,76.542 -6.273,59.998 -9.636,121.905 -9.727,184.084 l 0.909,3.636 -1,1.182 c 0.091,60.634 3.091,122.541 9.09,184.084 6.273,62.179 15.818,125.267 28.454,187.628 31.908,9.909 64.451,18.727 96.905,26.181 4.273,1.001 8.636,2.001 12.909,2.909 C 8.818,647.974 -0.909,596.34 -8.273,544.342 -16.818,484.254 -22.272,422.256 -24.454,360.259 -26.545,300.352 -25.544,239.172 -21.544,178.357 -17.454,118.723 -10.181,58.725 0,0" /></g><g
           transform="translate(686.6497,516.8162)"
           id="g40"><path
             id="path42"
             style="fill:#a03015;fill-opacity:1;fill-rule:nonzero;stroke:none"
             d="M 0,0 V -19.829 H 110.995 V -77.962 H 0 v -48.896 H -68.715 V 58.133 H 126.858 V 0 Z" /></g><g
           transform="translate(949.3669,470.8262)"
           id="g44"><path
             id="path46"
             style="fill:#a03015;fill-opacity:1;fill-rule:nonzero;stroke:none"
             d="M 0,0 -21.41,56.553 -42.81,0 Z m 17.974,-47.571 h -78.758 l -12.683,-33.297 h -75.586 l 76.647,184.991 H 29.597 L 106.244,-80.868 H 30.657 Z" /></g><g
           transform="translate(1140.1982,491.4407)"
           id="g48"><path
             id="path50"
             style="fill:#a03015;fill-opacity:1;fill-rule:nonzero;stroke:none"
             d="m 0,0 h 63.424 c 6.872,0 15.334,0 15.334,12.683 0,12.692 -8.462,12.692 -15.334,12.692 H 0 Z m 114.696,-48.366 32.777,-53.117 H 66.075 l -25.641,43.34 H 0 v -43.34 H -68.715 V 83.509 H 76.637 c 42.025,0 70.836,-29.597 70.836,-70.826 0,-26.956 -12.428,-49.151 -32.777,-61.049" /></g><g
           transform="translate(1589.4973,389.9581)"
           id="g52"><path
             id="path54"
             style="fill:#a03015;fill-opacity:1;fill-rule:nonzero;stroke:none"
             d="M 0,0 H -68.715 V 88.005 L -119.191,0 h -44.93 l -50.477,88.005 V 0 h -68.715 v 184.991 h 84.569 l 57.092,-105.703 57.083,105.703 H 0 Z" /></g><g
           transform="translate(1679.3855,522.0975)"
           id="g56"><path
             id="path58"
             style="fill:#a03015;fill-opacity:1;fill-rule:nonzero;stroke:none"
             d="m 0,0 v -17.179 h 126.858 v -44.93 H 0 v -17.178 h 126.858 v -52.852 H -68.715 V 52.852 H 126.858 V 0 Z" /></g><g
           transform="translate(1893.4722,491.4407)"
           id="g60"><path
             id="path62"
             style="fill:#a03015;fill-opacity:1;fill-rule:nonzero;stroke:none"
             d="m 0,0 h 63.424 c 6.872,0 15.334,0 15.334,12.683 0,12.692 -8.462,12.692 -15.334,12.692 H 0 Z m 114.696,-48.366 32.777,-53.117 H 66.074 l -25.64,43.34 H 0 v -43.34 H -68.715 V 83.509 H 76.637 c 42.025,0 70.836,-29.597 70.836,-70.826 0,-26.956 -12.428,-49.151 -32.777,-61.049" /></g><g
           transform="translate(869.7954,320.6939)"
           id="g64"><path
             id="path66"
             style="fill:#a03015;fill-opacity:1;fill-rule:nonzero;stroke:none"
             d="m 0,0 v -184.991 h -47.571 v 72.415 h -150.633 v -72.415 h -47.571 V 0 h 47.571 V -72.406 H -47.571 V 0 Z" /></g><g
           transform="translate(1007.2449,133.0616)"
           id="g68"><path
             id="path70"
             style="fill:#a03015;fill-opacity:1;fill-rule:nonzero;stroke:none"
             d="m 0,0 c -81.398,0 -116.276,30.922 -116.276,95.406 v 92.226 h 47.57 V 95.406 c 0,-25.905 7.127,-55.502 68.706,-55.502 61.579,0 68.715,29.862 68.715,55.502 v 92.226 h 47.571 V 95.406 C 116.286,31.187 81.133,0 0,0" /></g><g
           transform="translate(1368.009,280.7899)"
           id="g72"><path
             id="path74"
             style="fill:#a03015;fill-opacity:1;fill-rule:nonzero;stroke:none"
             d="m 0,0 h -89.85 v -145.087 h -47.571 V 0 h -89.86 V 39.904 H 0 Z" /></g></g></g></g></svg>