<svg width="50" height="45" viewBox="0 0 114 95" fill="none" xmlns="http://www.w3.org/2000/svg">
<g id="." clip-path="url(#clip0_1_2)">
<g id="hop">
<path id="path4301" d="M62.7844 1.98686C58.7193 15.0448 76.4907 23.2733 75.1257 27.6482C68.0354 30.3777 60.193 26.3821 52.7427 28.5848C46.64 28.176 40.6628 29.6783 35.2156 32.3529C28.6704 34.4673 24.3678 39.9961 19.3609 44.3267C15.6657 45.9997 14.5722 50.9581 12.1031 52.8369C8.18607 52.2915 -1.25583 52.5064 3.60311 59.5785C4.90505 62.119 9.73092 66.3237 11.6989 64.4431C9.16255 67.4883 6.61498 65.9552 4.9663 69.6927C2.72659 74.1581 2.25247 79.4104 0.159365 83.8223C-0.405883 86.9728 0.4263 95.7087 4.3802 93.7285C12.1395 88.9446 6.23875 72.7988 24.9408 74.3738C29.8136 73.9116 33.2486 69.6114 36.9781 66.8285C39.8798 65.9378 43.3664 63.849 45.841 62.4741C51.3989 59.4951 70.8445 56.1973 72.5473 57.1924C78.2933 58.821 84.5428 58.2456 90.1699 60.5749C93.0582 62.1298 102.112 66.6259 101.427 60.4637C101.057 57.793 94.2216 54.5781 100.171 56.174C104.303 56.7575 110.702 60.4975 113.251 55.7035C113.047 50.5135 107.724 53.6536 105.236 51.9709C102.536 50.9717 101.405 50.1356 97.979 49.3868C91.606 48.6423 96.9569 44.0024 100.739 44.193C107.014 43.885 105.065 35.1227 102.413 32.1559C99.7556 26.5868 94.0656 23.5781 88.3385 22.0994C85.8328 16.9095 83.793 11.3479 80.1212 6.86204C77.5608 4.3559 71.5254 2.08709 69.3323 4.4306C68.1859 4.80712 64.6221 -3.75295 62.7844 1.98686Z" fill="black"/>
</g>
</g>
<defs>
<clipPath id="clip0_1_2">
<rect width="113.251" height="94.0174" fill="white"/>
</clipPath>
</defs>
</svg>
